%TF.GenerationSoftware,KiCad,Pcbnew,9.0.7*%
%TF.CreationDate,2026-04-06T12:16:52+07:00*%
%TF.ProjectId,PCB,5043422e-6b69-4636-9164-5f7063625858,rev?*%
%TF.SameCoordinates,Original*%
%TF.FileFunction,Soldermask,Bot*%
%TF.FilePolarity,Negative*%
%FSLAX46Y46*%
G04 Gerber Fmt 4.6, Leading zero omitted, Abs format (unit mm)*
G04 Created by KiCad (PCBNEW 9.0.7) date 2026-04-06 12:16:52*
%MOMM*%
%LPD*%
G01*
G04 APERTURE LIST*
G04 Aperture macros list*
%AMRoundRect*
0 Rectangle with rounded corners*
0 $1 Rounding radius*
0 $2 $3 $4 $5 $6 $7 $8 $9 X,Y pos of 4 corners*
0 Add a 4 corners polygon primitive as box body*
4,1,4,$2,$3,$4,$5,$6,$7,$8,$9,$2,$3,0*
0 Add four circle primitives for the rounded corners*
1,1,$1+$1,$2,$3*
1,1,$1+$1,$4,$5*
1,1,$1+$1,$6,$7*
1,1,$1+$1,$8,$9*
0 Add four rect primitives between the rounded corners*
20,1,$1+$1,$2,$3,$4,$5,0*
20,1,$1+$1,$4,$5,$6,$7,0*
20,1,$1+$1,$6,$7,$8,$9,0*
20,1,$1+$1,$8,$9,$2,$3,0*%
G04 Aperture macros list end*
%ADD10C,1.600000*%
%ADD11RoundRect,0.102000X-1.750000X-0.750000X1.750000X-0.750000X1.750000X0.750000X-1.750000X0.750000X0*%
%ADD12RoundRect,0.102000X0.975000X-0.975000X0.975000X0.975000X-0.975000X0.975000X-0.975000X-0.975000X0*%
%ADD13C,2.154000*%
%ADD14R,1.600000X1.600000*%
%ADD15O,1.600000X1.600000*%
%ADD16RoundRect,0.102000X0.565000X-0.565000X0.565000X0.565000X-0.565000X0.565000X-0.565000X-0.565000X0*%
%ADD17C,1.334000*%
%ADD18C,3.200000*%
%ADD19RoundRect,0.102000X-0.975000X0.975000X-0.975000X-0.975000X0.975000X-0.975000X0.975000X0.975000X0*%
%ADD20R,1.500000X0.900000*%
%ADD21O,1.500000X1.050000*%
%ADD22O,1.500000X0.900000*%
%ADD23C,2.000000*%
%ADD24RoundRect,0.102000X-0.997500X-0.997500X0.997500X-0.997500X0.997500X0.997500X-0.997500X0.997500X0*%
%ADD25C,2.199000*%
G04 APERTURE END LIST*
D10*
%TO.C,R5*%
X212080000Y-142000000D03*
X201920000Y-142000000D03*
%TD*%
D11*
%TO.C,J1*%
X152472500Y-134300000D03*
X152472500Y-139700000D03*
%TD*%
D10*
%TO.C,R7*%
X218920000Y-146500000D03*
X229080000Y-146500000D03*
%TD*%
D12*
%TO.C,J6*%
X167000000Y-118225000D03*
D13*
X167000000Y-113145000D03*
%TD*%
D14*
%TO.C,A1*%
X258500000Y-102380000D03*
D15*
X258500000Y-104920000D03*
X258500000Y-107460000D03*
X258500000Y-110000000D03*
X258500000Y-112540000D03*
X258500000Y-115080000D03*
X258500000Y-117620000D03*
X258500000Y-120160000D03*
X258500000Y-122700000D03*
X258500000Y-125240000D03*
X258500000Y-127780000D03*
X258500000Y-130320000D03*
X258500000Y-132860000D03*
X258500000Y-135400000D03*
X258500000Y-137940000D03*
X273740000Y-137940000D03*
X273740000Y-135400000D03*
X273740000Y-132860000D03*
X273740000Y-130320000D03*
X273740000Y-127780000D03*
X273740000Y-125240000D03*
X273740000Y-122700000D03*
X273740000Y-120160000D03*
X273740000Y-117620000D03*
X273740000Y-115080000D03*
X273740000Y-112540000D03*
X273740000Y-110000000D03*
X273740000Y-107460000D03*
X273740000Y-104920000D03*
X273740000Y-102380000D03*
%TD*%
D12*
%TO.C,J8*%
X244500000Y-133080000D03*
D13*
X244500000Y-128000000D03*
%TD*%
D16*
%TO.C,U3*%
X220000000Y-126500000D03*
D17*
X222540000Y-126500000D03*
X225080000Y-126500000D03*
X227620000Y-126500000D03*
X227620000Y-118560000D03*
X225080000Y-118560000D03*
X222540000Y-118560000D03*
X220000000Y-118560000D03*
%TD*%
D18*
%TO.C,REF\u002A\u002A*%
X277500000Y-149500000D03*
%TD*%
%TO.C,REF\u002A\u002A*%
X154500000Y-149500000D03*
%TD*%
D10*
%TO.C,R6*%
X239420000Y-146500000D03*
X249580000Y-146500000D03*
%TD*%
%TO.C,R3*%
X212080000Y-123500000D03*
X201920000Y-123500000D03*
%TD*%
D18*
%TO.C,REF\u002A\u002A*%
X154500000Y-104000000D03*
%TD*%
D19*
%TO.C,J7*%
X167000000Y-136847500D03*
D13*
X167000000Y-141927500D03*
%TD*%
D11*
%TO.C,J3*%
X152472500Y-113300000D03*
X152472500Y-118700000D03*
%TD*%
D12*
%TO.C,J2*%
X244000000Y-116580000D03*
D13*
X244000000Y-111500000D03*
X244000000Y-106420000D03*
X244000000Y-101340000D03*
%TD*%
D20*
%TO.C,U1*%
X186000000Y-143270000D03*
D21*
X186000000Y-142000000D03*
D22*
X186000000Y-140730000D03*
%TD*%
D18*
%TO.C,REF\u002A\u002A*%
X277500000Y-94500000D03*
%TD*%
%TO.C,REF\u002A\u002A*%
X234500000Y-94500000D03*
%TD*%
D10*
%TO.C,R2*%
X201920000Y-135500000D03*
X212080000Y-135500000D03*
%TD*%
%TO.C,R1*%
X182420000Y-135500000D03*
X192580000Y-135500000D03*
%TD*%
D23*
%TO.C,D1*%
X227500000Y-135500000D03*
X220000000Y-135500000D03*
%TD*%
D24*
%TO.C,Q2*%
X184920000Y-125000000D03*
D25*
X187460000Y-125000000D03*
X190000000Y-125000000D03*
%TD*%
D10*
%TO.C,R4*%
X249580000Y-140000000D03*
X239420000Y-140000000D03*
%TD*%
M02*
