%TF.GenerationSoftware,KiCad,Pcbnew,9.0.7*%
%TF.CreationDate,2026-04-06T12:16:52+07:00*%
%TF.ProjectId,PCB,5043422e-6b69-4636-9164-5f7063625858,rev?*%
%TF.SameCoordinates,Original*%
%TF.FileFunction,Copper,L2,Bot*%
%TF.FilePolarity,Positive*%
%FSLAX46Y46*%
G04 Gerber Fmt 4.6, Leading zero omitted, Abs format (unit mm)*
G04 Created by KiCad (PCBNEW 9.0.7) date 2026-04-06 12:16:52*
%MOMM*%
%LPD*%
G01*
G04 APERTURE LIST*
%TA.AperFunction,ComponentPad*%
%ADD10C,1.600000*%
%TD*%
%TA.AperFunction,SMDPad,CuDef*%
%ADD11R,3.500000X1.500000*%
%TD*%
%TA.AperFunction,ComponentPad*%
%ADD12R,1.950000X1.950000*%
%TD*%
%TA.AperFunction,ComponentPad*%
%ADD13C,1.950000*%
%TD*%
%TA.AperFunction,ComponentPad*%
%ADD14R,1.600000X1.600000*%
%TD*%
%TA.AperFunction,ComponentPad*%
%ADD15O,1.600000X1.600000*%
%TD*%
%TA.AperFunction,ComponentPad*%
%ADD16R,1.130000X1.130000*%
%TD*%
%TA.AperFunction,ComponentPad*%
%ADD17C,1.130000*%
%TD*%
%TA.AperFunction,ComponentPad*%
%ADD18R,1.500000X0.900000*%
%TD*%
%TA.AperFunction,ComponentPad*%
%ADD19O,1.500000X1.050000*%
%TD*%
%TA.AperFunction,ComponentPad*%
%ADD20O,1.500000X0.900000*%
%TD*%
%TA.AperFunction,ComponentPad*%
%ADD21C,2.000000*%
%TD*%
%TA.AperFunction,ComponentPad*%
%ADD22R,1.995000X1.995000*%
%TD*%
%TA.AperFunction,ComponentPad*%
%ADD23C,1.995000*%
%TD*%
%TA.AperFunction,ViaPad*%
%ADD24C,0.600000*%
%TD*%
%TA.AperFunction,Conductor*%
%ADD25C,0.200000*%
%TD*%
%TA.AperFunction,Conductor*%
%ADD26C,1.500000*%
%TD*%
%TA.AperFunction,Conductor*%
%ADD27C,0.500000*%
%TD*%
G04 APERTURE END LIST*
D10*
%TO.P,R5,1*%
%TO.N,/INN*%
X212080000Y-142000000D03*
%TO.P,R5,2*%
%TO.N,Net-(R5-Pad2)*%
X201920000Y-142000000D03*
%TD*%
D11*
%TO.P,J1,G3*%
%TO.N,Net-(J1-PadG1)*%
X152472500Y-134300000D03*
%TO.P,J1,G4*%
X152472500Y-139700000D03*
%TD*%
D10*
%TO.P,R7,1*%
%TO.N,Net-(R5-Pad2)*%
X218920000Y-146500000D03*
%TO.P,R7,2*%
%TO.N,GND*%
X229080000Y-146500000D03*
%TD*%
D12*
%TO.P,J6,1,1*%
%TO.N,Net-(J3-Pad1)*%
X167000000Y-118225000D03*
D13*
%TO.P,J6,2,2*%
%TO.N,Net-(J3-PadG1)*%
X167000000Y-113145000D03*
%TD*%
D14*
%TO.P,A1,1,TX1*%
%TO.N,unconnected-(A1-TX1-Pad1)*%
X258500000Y-102380000D03*
D15*
%TO.P,A1,2,RX1*%
%TO.N,unconnected-(A1-RX1-Pad2)*%
X258500000Y-104920000D03*
%TO.P,A1,3,~{RESET}*%
%TO.N,unconnected-(A1-~{RESET}-Pad3)*%
X258500000Y-107460000D03*
%TO.P,A1,4,GND*%
%TO.N,GND*%
X258500000Y-110000000D03*
%TO.P,A1,5,D2*%
%TO.N,unconnected-(A1-D2-Pad5)*%
X258500000Y-112540000D03*
%TO.P,A1,6,D3*%
%TO.N,unconnected-(A1-D3-Pad6)*%
X258500000Y-115080000D03*
%TO.P,A1,7,D4*%
%TO.N,unconnected-(A1-D4-Pad7)*%
X258500000Y-117620000D03*
%TO.P,A1,8,D5*%
%TO.N,unconnected-(A1-D5-Pad8)*%
X258500000Y-120160000D03*
%TO.P,A1,9,D6*%
%TO.N,/6*%
X258500000Y-122700000D03*
%TO.P,A1,10,D7*%
%TO.N,/7*%
X258500000Y-125240000D03*
%TO.P,A1,11,D8*%
%TO.N,/8*%
X258500000Y-127780000D03*
%TO.P,A1,12,D9*%
%TO.N,/9*%
X258500000Y-130320000D03*
%TO.P,A1,13,D10*%
%TO.N,/10*%
X258500000Y-132860000D03*
%TO.P,A1,14,MOSI*%
%TO.N,unconnected-(A1-MOSI-Pad14)*%
X258500000Y-135400000D03*
%TO.P,A1,15,MISO*%
%TO.N,unconnected-(A1-MISO-Pad15)*%
X258500000Y-137940000D03*
%TO.P,A1,16,SCK*%
%TO.N,unconnected-(A1-SCK-Pad16)*%
X273740000Y-137940000D03*
%TO.P,A1,17,3V3*%
%TO.N,unconnected-(A1-3V3-Pad17)*%
X273740000Y-135400000D03*
%TO.P,A1,18,AREF*%
%TO.N,unconnected-(A1-AREF-Pad18)*%
X273740000Y-132860000D03*
%TO.P,A1,19,A0*%
%TO.N,unconnected-(A1-A0-Pad19)*%
X273740000Y-130320000D03*
%TO.P,A1,20,A1*%
%TO.N,unconnected-(A1-A1-Pad20)*%
X273740000Y-127780000D03*
%TO.P,A1,21,A2*%
%TO.N,unconnected-(A1-A2-Pad21)*%
X273740000Y-125240000D03*
%TO.P,A1,22,A3*%
%TO.N,unconnected-(A1-A3-Pad22)*%
X273740000Y-122700000D03*
%TO.P,A1,23,SDA/A4*%
%TO.N,unconnected-(A1-SDA{slash}A4-Pad23)*%
X273740000Y-120160000D03*
%TO.P,A1,24,SCL/A5*%
%TO.N,unconnected-(A1-SCL{slash}A5-Pad24)*%
X273740000Y-117620000D03*
%TO.P,A1,25,A6*%
%TO.N,unconnected-(A1-A6-Pad25)*%
X273740000Y-115080000D03*
%TO.P,A1,26,A7*%
%TO.N,unconnected-(A1-A7-Pad26)*%
X273740000Y-112540000D03*
%TO.P,A1,27,+5V*%
%TO.N,unconnected-(A1-+5V-Pad27)*%
X273740000Y-110000000D03*
%TO.P,A1,28,~{RESET}*%
%TO.N,unconnected-(A1-~{RESET}-Pad28)*%
X273740000Y-107460000D03*
%TO.P,A1,29,GND*%
%TO.N,GND*%
X273740000Y-104920000D03*
%TO.P,A1,30,VIN*%
%TO.N,/5V*%
X273740000Y-102380000D03*
%TD*%
D12*
%TO.P,J8,1,1*%
%TO.N,Net-(J8-Pad1)*%
X244500000Y-133080000D03*
D13*
%TO.P,J8,2,2*%
%TO.N,/INN*%
X244500000Y-128000000D03*
%TD*%
D16*
%TO.P,U3,1,OFFSET_N1*%
%TO.N,unconnected-(U3-OFFSET_N1-Pad1)*%
X220000000Y-126500000D03*
D17*
%TO.P,U3,2,1IN-*%
%TO.N,/INN*%
X222540000Y-126500000D03*
%TO.P,U3,3,1IN_+*%
%TO.N,Net-(D1-A)*%
X225080000Y-126500000D03*
%TO.P,U3,4,VCC-*%
%TO.N,GND*%
X227620000Y-126500000D03*
%TO.P,U3,5*%
%TO.N,N/C*%
X227620000Y-118560000D03*
%TO.P,U3,6,OUT*%
%TO.N,Net-(U3-OUT)*%
X225080000Y-118560000D03*
%TO.P,U3,7,VCC+*%
%TO.N,/5V*%
X222540000Y-118560000D03*
%TO.P,U3,8,OFFSET_N2*%
%TO.N,unconnected-(U3-OFFSET_N2-Pad8)*%
X220000000Y-118560000D03*
%TD*%
D10*
%TO.P,R6,1*%
%TO.N,Net-(R4-Pad2)*%
X239420000Y-146500000D03*
%TO.P,R6,2*%
%TO.N,GND*%
X249580000Y-146500000D03*
%TD*%
%TO.P,R3,1*%
%TO.N,Net-(U3-OUT)*%
X212080000Y-123500000D03*
%TO.P,R3,2*%
%TO.N,Net-(Q2-Pad1)*%
X201920000Y-123500000D03*
%TD*%
D12*
%TO.P,J7,1,1*%
%TO.N,/5V*%
X167000000Y-136847500D03*
D13*
%TO.P,J7,2,2*%
%TO.N,GND*%
X167000000Y-141927500D03*
%TD*%
D11*
%TO.P,J3,G3*%
%TO.N,Net-(J3-PadG1)*%
X152472500Y-113300000D03*
%TO.P,J3,G4*%
X152472500Y-118700000D03*
%TD*%
D12*
%TO.P,J2,1,1*%
%TO.N,/9*%
X244000000Y-116580000D03*
D13*
%TO.P,J2,2,2*%
%TO.N,/8*%
X244000000Y-111500000D03*
%TO.P,J2,3,3*%
%TO.N,/7*%
X244000000Y-106420000D03*
%TO.P,J2,4,4*%
%TO.N,/6*%
X244000000Y-101340000D03*
%TD*%
D18*
%TO.P,U1,1,REF*%
%TO.N,Net-(U1-K)*%
X186000000Y-143270000D03*
D19*
%TO.P,U1,2,A*%
%TO.N,GND*%
X186000000Y-142000000D03*
D20*
%TO.P,U1,3,K*%
%TO.N,Net-(U1-K)*%
X186000000Y-140730000D03*
%TD*%
D10*
%TO.P,R2,1*%
%TO.N,Net-(U1-K)*%
X201920000Y-135500000D03*
%TO.P,R2,2*%
%TO.N,Net-(D1-A)*%
X212080000Y-135500000D03*
%TD*%
%TO.P,R1,1*%
%TO.N,/5V*%
X182420000Y-135500000D03*
%TO.P,R1,2*%
%TO.N,Net-(U1-K)*%
X192580000Y-135500000D03*
%TD*%
D21*
%TO.P,D1,1,K*%
%TO.N,GND*%
X227500000Y-135500000D03*
%TO.P,D1,2,A*%
%TO.N,Net-(D1-A)*%
X220000000Y-135500000D03*
%TD*%
D22*
%TO.P,Q2,1*%
%TO.N,Net-(Q2-Pad1)*%
X184920000Y-125000000D03*
D23*
%TO.P,Q2,2*%
%TO.N,Net-(J1-PadG1)*%
X187460000Y-125000000D03*
%TO.P,Q2,3*%
%TO.N,/INN*%
X190000000Y-125000000D03*
%TD*%
D10*
%TO.P,R4,1*%
%TO.N,Net-(J8-Pad1)*%
X249580000Y-140000000D03*
%TO.P,R4,2*%
%TO.N,Net-(R4-Pad2)*%
X239420000Y-140000000D03*
%TD*%
D24*
%TO.N,Net-(J1-PadG1)*%
X152500000Y-139700000D03*
X152500000Y-134300000D03*
%TO.N,Net-(J3-PadG1)*%
X152500000Y-113300000D03*
X152500000Y-118700000D03*
%TD*%
D25*
%TO.N,Net-(J1-PadG1)*%
X187460000Y-125000000D02*
X187460000Y-126540000D01*
D26*
X161999999Y-132000000D02*
X163406206Y-130593792D01*
X154946117Y-139053881D02*
X161999999Y-132000000D01*
X167253963Y-129000000D02*
X183260517Y-129000000D01*
X152500000Y-139700000D02*
X152472500Y-139700000D01*
X161293792Y-132706207D02*
X161999999Y-132000000D01*
X186230000Y-127770000D02*
X187460000Y-126540000D01*
X152472500Y-134300000D02*
X152500000Y-134300000D01*
X153386249Y-139700000D02*
X152500000Y-139700000D01*
X152500000Y-134300000D02*
X157446036Y-134300000D01*
X157446036Y-134300000D02*
G75*
G03*
X161293785Y-132706200I-36J5441600D01*
G01*
X154946117Y-139053881D02*
G75*
G02*
X153386249Y-139700030I-1559917J1559881D01*
G01*
X163406206Y-130593792D02*
G75*
G02*
X167253963Y-128999988I3847794J-3847808D01*
G01*
X183260517Y-129000000D02*
G75*
G03*
X186229995Y-127769995I-17J4199500D01*
G01*
D27*
%TO.N,/INN*%
X212080000Y-142000000D02*
X227500000Y-142000000D01*
X227500000Y-142000000D02*
X232000000Y-137500000D01*
X202500000Y-130000000D02*
X197500000Y-125000000D01*
X244500000Y-128000000D02*
X235000000Y-128000000D01*
X222540000Y-126500000D02*
X219040000Y-130000000D01*
X232000000Y-137500000D02*
X232000000Y-131000000D01*
X197500000Y-125000000D02*
X190000000Y-125000000D01*
X225540000Y-123500000D02*
X222540000Y-126500000D01*
X235000000Y-128000000D02*
X232000000Y-131000000D01*
X219040000Y-130000000D02*
X202500000Y-130000000D01*
X232000000Y-124500000D02*
X231000000Y-123500000D01*
X232000000Y-131000000D02*
X232000000Y-124500000D01*
X231000000Y-123500000D02*
X225540000Y-123500000D01*
%TD*%
%TA.AperFunction,Conductor*%
%TO.N,/INN*%
G36*
X222079978Y-126192661D02*
G01*
X222080927Y-126193230D01*
X222538753Y-126497992D01*
X222542008Y-126501247D01*
X222846768Y-126959071D01*
X222848500Y-126967856D01*
X222843512Y-126975293D01*
X222842562Y-126975863D01*
X221933082Y-127464020D01*
X221924172Y-127464913D01*
X221919276Y-127461984D01*
X221578015Y-127120723D01*
X221574588Y-127112450D01*
X221575977Y-127106922D01*
X222064137Y-126197436D01*
X222071068Y-126191768D01*
X222079978Y-126192661D01*
G37*
%TD.AperFunction*%
%TD*%
%TA.AperFunction,Conductor*%
%TO.N,/INN*%
G36*
X190207723Y-124027031D02*
G01*
X191968561Y-124747026D01*
X191974922Y-124753329D01*
X191975833Y-124757856D01*
X191975833Y-125242143D01*
X191972406Y-125250416D01*
X191968561Y-125252973D01*
X190207724Y-125972967D01*
X190198769Y-125972926D01*
X190192466Y-125966565D01*
X190191824Y-125964435D01*
X189999458Y-125002290D01*
X189999458Y-124997709D01*
X190191824Y-124035566D01*
X190196805Y-124028127D01*
X190205590Y-124026389D01*
X190207723Y-124027031D01*
G37*
%TD.AperFunction*%
%TD*%
%TA.AperFunction,Conductor*%
%TO.N,/INN*%
G36*
X223160723Y-125538015D02*
G01*
X223501984Y-125879276D01*
X223505411Y-125887549D01*
X223504020Y-125893082D01*
X223015863Y-126802562D01*
X223008931Y-126808231D01*
X223000021Y-126807338D01*
X222999071Y-126806768D01*
X222541247Y-126502008D01*
X222537992Y-126498753D01*
X222233230Y-126040927D01*
X222231499Y-126032143D01*
X222236487Y-126024706D01*
X222237428Y-126024141D01*
X223146920Y-125535978D01*
X223155827Y-125535086D01*
X223160723Y-125538015D01*
G37*
%TD.AperFunction*%
%TD*%
%TA.AperFunction,Conductor*%
%TO.N,/INN*%
G36*
X244305641Y-127049113D02*
G01*
X244311927Y-127055491D01*
X244312558Y-127057595D01*
X244500541Y-127997706D01*
X244500541Y-128002294D01*
X244312558Y-128942404D01*
X244307575Y-128949845D01*
X244298791Y-128951583D01*
X244296687Y-128950952D01*
X242576036Y-128252962D01*
X242569658Y-128246676D01*
X242568734Y-128242120D01*
X242568734Y-127757879D01*
X242572161Y-127749606D01*
X242576032Y-127747039D01*
X244296689Y-127049047D01*
X244305641Y-127049113D01*
G37*
%TD.AperFunction*%
%TD*%
%TA.AperFunction,Conductor*%
%TO.N,GND*%
G36*
X275592539Y-94519685D02*
G01*
X275638294Y-94572489D01*
X275648045Y-94617314D01*
X275649234Y-94617237D01*
X275649499Y-94621282D01*
X275681161Y-94861785D01*
X275743947Y-95096104D01*
X275836773Y-95320205D01*
X275836776Y-95320212D01*
X275958064Y-95530289D01*
X275958066Y-95530292D01*
X275958067Y-95530293D01*
X276105733Y-95722736D01*
X276105739Y-95722743D01*
X276277256Y-95894260D01*
X276277262Y-95894265D01*
X276469711Y-96041936D01*
X276679788Y-96163224D01*
X276903900Y-96256054D01*
X277138211Y-96318838D01*
X277378712Y-96350500D01*
X277378717Y-96350500D01*
X277382763Y-96350766D01*
X277382652Y-96352453D01*
X277443039Y-96370185D01*
X277488794Y-96422989D01*
X277500000Y-96474500D01*
X277500000Y-147525500D01*
X277480315Y-147592539D01*
X277427511Y-147638294D01*
X277382685Y-147648045D01*
X277382763Y-147649234D01*
X277378717Y-147649499D01*
X277138214Y-147681161D01*
X276903895Y-147743947D01*
X276679794Y-147836773D01*
X276679785Y-147836777D01*
X276469706Y-147958067D01*
X276277263Y-148105733D01*
X276277256Y-148105739D01*
X276105739Y-148277256D01*
X276105733Y-148277263D01*
X275958067Y-148469706D01*
X275836777Y-148679785D01*
X275836773Y-148679794D01*
X275743947Y-148903895D01*
X275681161Y-149138214D01*
X275649499Y-149378717D01*
X275649234Y-149382763D01*
X275647546Y-149382652D01*
X275629815Y-149443039D01*
X275577011Y-149488794D01*
X275525500Y-149500000D01*
X156474500Y-149500000D01*
X156407461Y-149480315D01*
X156361706Y-149427511D01*
X156351954Y-149382685D01*
X156350766Y-149382763D01*
X156350500Y-149378717D01*
X156350500Y-149378712D01*
X156318838Y-149138211D01*
X156256054Y-148903900D01*
X156163224Y-148679788D01*
X156041936Y-148469711D01*
X155894265Y-148277262D01*
X155894260Y-148277256D01*
X155722743Y-148105739D01*
X155722736Y-148105733D01*
X155530293Y-147958067D01*
X155530292Y-147958066D01*
X155530289Y-147958064D01*
X155320212Y-147836776D01*
X155320205Y-147836773D01*
X155096104Y-147743947D01*
X154861785Y-147681161D01*
X154621282Y-147649499D01*
X154617237Y-147649234D01*
X154617347Y-147647546D01*
X154556961Y-147629815D01*
X154511206Y-147577011D01*
X154500000Y-147525500D01*
X154500000Y-146397648D01*
X217619500Y-146397648D01*
X217619500Y-146602351D01*
X217651522Y-146804534D01*
X217714781Y-146999223D01*
X217778691Y-147124653D01*
X217807585Y-147181359D01*
X217807715Y-147181613D01*
X217928028Y-147347213D01*
X218072786Y-147491971D01*
X218189836Y-147577011D01*
X218238390Y-147612287D01*
X218311423Y-147649499D01*
X218420776Y-147705218D01*
X218420778Y-147705218D01*
X218420781Y-147705220D01*
X218525137Y-147739127D01*
X218615465Y-147768477D01*
X218716557Y-147784488D01*
X218817648Y-147800500D01*
X218817649Y-147800500D01*
X219022351Y-147800500D01*
X219022352Y-147800500D01*
X219224534Y-147768477D01*
X219419219Y-147705220D01*
X219601610Y-147612287D01*
X219721063Y-147525500D01*
X219767213Y-147491971D01*
X219767215Y-147491968D01*
X219767219Y-147491966D01*
X219911966Y-147347219D01*
X219911968Y-147347215D01*
X219911971Y-147347213D01*
X219964732Y-147274590D01*
X220032287Y-147181610D01*
X220125220Y-146999219D01*
X220188477Y-146804534D01*
X220220500Y-146602352D01*
X220220500Y-146397682D01*
X227780000Y-146397682D01*
X227780000Y-146602317D01*
X227812009Y-146804417D01*
X227875244Y-146999031D01*
X227968141Y-147181350D01*
X227968147Y-147181359D01*
X228000523Y-147225921D01*
X228000524Y-147225922D01*
X228680000Y-146546446D01*
X228680000Y-146552661D01*
X228707259Y-146654394D01*
X228759920Y-146745606D01*
X228834394Y-146820080D01*
X228925606Y-146872741D01*
X229027339Y-146900000D01*
X229033553Y-146900000D01*
X228354076Y-147579474D01*
X228398650Y-147611859D01*
X228580968Y-147704755D01*
X228775582Y-147767990D01*
X228977683Y-147800000D01*
X229182317Y-147800000D01*
X229384417Y-147767990D01*
X229579031Y-147704755D01*
X229761349Y-147611859D01*
X229805921Y-147579474D01*
X229126447Y-146900000D01*
X229132661Y-146900000D01*
X229234394Y-146872741D01*
X229325606Y-146820080D01*
X229400080Y-146745606D01*
X229452741Y-146654394D01*
X229480000Y-146552661D01*
X229480000Y-146546447D01*
X230159474Y-147225921D01*
X230191859Y-147181349D01*
X230284755Y-146999031D01*
X230347990Y-146804417D01*
X230380000Y-146602317D01*
X230380000Y-146397682D01*
X230379995Y-146397648D01*
X238119500Y-146397648D01*
X238119500Y-146602351D01*
X238151522Y-146804534D01*
X238214781Y-146999223D01*
X238278691Y-147124653D01*
X238307585Y-147181359D01*
X238307715Y-147181613D01*
X238428028Y-147347213D01*
X238572786Y-147491971D01*
X238689836Y-147577011D01*
X238738390Y-147612287D01*
X238811423Y-147649499D01*
X238920776Y-147705218D01*
X238920778Y-147705218D01*
X238920781Y-147705220D01*
X239025137Y-147739127D01*
X239115465Y-147768477D01*
X239216557Y-147784488D01*
X239317648Y-147800500D01*
X239317649Y-147800500D01*
X239522351Y-147800500D01*
X239522352Y-147800500D01*
X239724534Y-147768477D01*
X239919219Y-147705220D01*
X240101610Y-147612287D01*
X240221063Y-147525500D01*
X240267213Y-147491971D01*
X240267215Y-147491968D01*
X240267219Y-147491966D01*
X240411966Y-147347219D01*
X240411968Y-147347215D01*
X240411971Y-147347213D01*
X240464732Y-147274590D01*
X240532287Y-147181610D01*
X240625220Y-146999219D01*
X240688477Y-146804534D01*
X240720500Y-146602352D01*
X240720500Y-146397682D01*
X248280000Y-146397682D01*
X248280000Y-146602317D01*
X248312009Y-146804417D01*
X248375244Y-146999031D01*
X248468141Y-147181350D01*
X248468147Y-147181359D01*
X248500523Y-147225921D01*
X248500524Y-147225922D01*
X249180000Y-146546446D01*
X249180000Y-146552661D01*
X249207259Y-146654394D01*
X249259920Y-146745606D01*
X249334394Y-146820080D01*
X249425606Y-146872741D01*
X249527339Y-146900000D01*
X249533553Y-146900000D01*
X248854076Y-147579474D01*
X248898650Y-147611859D01*
X249080968Y-147704755D01*
X249275582Y-147767990D01*
X249477683Y-147800000D01*
X249682317Y-147800000D01*
X249884417Y-147767990D01*
X250079031Y-147704755D01*
X250261349Y-147611859D01*
X250305921Y-147579474D01*
X249626447Y-146900000D01*
X249632661Y-146900000D01*
X249734394Y-146872741D01*
X249825606Y-146820080D01*
X249900080Y-146745606D01*
X249952741Y-146654394D01*
X249980000Y-146552661D01*
X249980000Y-146546447D01*
X250659474Y-147225921D01*
X250691859Y-147181349D01*
X250784755Y-146999031D01*
X250847990Y-146804417D01*
X250880000Y-146602317D01*
X250880000Y-146397682D01*
X250847990Y-146195582D01*
X250784755Y-146000968D01*
X250691859Y-145818650D01*
X250659474Y-145774077D01*
X250659474Y-145774076D01*
X249980000Y-146453551D01*
X249980000Y-146447339D01*
X249952741Y-146345606D01*
X249900080Y-146254394D01*
X249825606Y-146179920D01*
X249734394Y-146127259D01*
X249632661Y-146100000D01*
X249626446Y-146100000D01*
X250305922Y-145420524D01*
X250305921Y-145420523D01*
X250261359Y-145388147D01*
X250261350Y-145388141D01*
X250079031Y-145295244D01*
X249884417Y-145232009D01*
X249682317Y-145200000D01*
X249477683Y-145200000D01*
X249275582Y-145232009D01*
X249080968Y-145295244D01*
X248898644Y-145388143D01*
X248854077Y-145420523D01*
X248854077Y-145420524D01*
X249533554Y-146100000D01*
X249527339Y-146100000D01*
X249425606Y-146127259D01*
X249334394Y-146179920D01*
X249259920Y-146254394D01*
X249207259Y-146345606D01*
X249180000Y-146447339D01*
X249180000Y-146453553D01*
X248500524Y-145774077D01*
X248500523Y-145774077D01*
X248468143Y-145818644D01*
X248375244Y-146000968D01*
X248312009Y-146195582D01*
X248280000Y-146397682D01*
X240720500Y-146397682D01*
X240720500Y-146397648D01*
X240712257Y-146345606D01*
X240688477Y-146195465D01*
X240657458Y-146100000D01*
X240625220Y-146000781D01*
X240625218Y-146000778D01*
X240625218Y-146000776D01*
X240532419Y-145818650D01*
X240532287Y-145818390D01*
X240500092Y-145774077D01*
X240411971Y-145652786D01*
X240267213Y-145508028D01*
X240101613Y-145387715D01*
X240101612Y-145387714D01*
X240101610Y-145387713D01*
X240044653Y-145358691D01*
X239919223Y-145294781D01*
X239724534Y-145231522D01*
X239549995Y-145203878D01*
X239522352Y-145199500D01*
X239317648Y-145199500D01*
X239293329Y-145203351D01*
X239115465Y-145231522D01*
X238920776Y-145294781D01*
X238738386Y-145387715D01*
X238572786Y-145508028D01*
X238428028Y-145652786D01*
X238307715Y-145818386D01*
X238214781Y-146000776D01*
X238151522Y-146195465D01*
X238119500Y-146397648D01*
X230379995Y-146397648D01*
X230347990Y-146195582D01*
X230284755Y-146000968D01*
X230191859Y-145818650D01*
X230159474Y-145774077D01*
X230159474Y-145774076D01*
X229480000Y-146453551D01*
X229480000Y-146447339D01*
X229452741Y-146345606D01*
X229400080Y-146254394D01*
X229325606Y-146179920D01*
X229234394Y-146127259D01*
X229132661Y-146100000D01*
X229126446Y-146100000D01*
X229805922Y-145420524D01*
X229805921Y-145420523D01*
X229761359Y-145388147D01*
X229761350Y-145388141D01*
X229579031Y-145295244D01*
X229384417Y-145232009D01*
X229182317Y-145200000D01*
X228977683Y-145200000D01*
X228775582Y-145232009D01*
X228580968Y-145295244D01*
X228398644Y-145388143D01*
X228354077Y-145420523D01*
X228354077Y-145420524D01*
X229033554Y-146100000D01*
X229027339Y-146100000D01*
X228925606Y-146127259D01*
X228834394Y-146179920D01*
X228759920Y-146254394D01*
X228707259Y-146345606D01*
X228680000Y-146447339D01*
X228680000Y-146453553D01*
X228000524Y-145774077D01*
X228000523Y-145774077D01*
X227968143Y-145818644D01*
X227875244Y-146000968D01*
X227812009Y-146195582D01*
X227780000Y-146397682D01*
X220220500Y-146397682D01*
X220220500Y-146397648D01*
X220212257Y-146345606D01*
X220188477Y-146195465D01*
X220157458Y-146100000D01*
X220125220Y-146000781D01*
X220125218Y-146000778D01*
X220125218Y-146000776D01*
X220032419Y-145818650D01*
X220032287Y-145818390D01*
X220000092Y-145774077D01*
X219911971Y-145652786D01*
X219767213Y-145508028D01*
X219601613Y-145387715D01*
X219601612Y-145387714D01*
X219601610Y-145387713D01*
X219544653Y-145358691D01*
X219419223Y-145294781D01*
X219224534Y-145231522D01*
X219049995Y-145203878D01*
X219022352Y-145199500D01*
X218817648Y-145199500D01*
X218793329Y-145203351D01*
X218615465Y-145231522D01*
X218420776Y-145294781D01*
X218238386Y-145387715D01*
X218072786Y-145508028D01*
X217928028Y-145652786D01*
X217807715Y-145818386D01*
X217714781Y-146000776D01*
X217651522Y-146195465D01*
X217619500Y-146397648D01*
X154500000Y-146397648D01*
X154500000Y-141811409D01*
X165525000Y-141811409D01*
X165525000Y-142043590D01*
X165561318Y-142272893D01*
X165633065Y-142493705D01*
X165738465Y-142700564D01*
X165795238Y-142778707D01*
X166398958Y-142174987D01*
X166423978Y-142235390D01*
X166495112Y-142341851D01*
X166585649Y-142432388D01*
X166692110Y-142503522D01*
X166752510Y-142528541D01*
X166148791Y-143132259D01*
X166148791Y-143132260D01*
X166226935Y-143189034D01*
X166433794Y-143294434D01*
X166654606Y-143366181D01*
X166883910Y-143402500D01*
X167116090Y-143402500D01*
X167345393Y-143366181D01*
X167566205Y-143294434D01*
X167773071Y-143189030D01*
X167851207Y-143132262D01*
X167851208Y-143132260D01*
X167247488Y-142528541D01*
X167307890Y-142503522D01*
X167414351Y-142432388D01*
X167504888Y-142341851D01*
X167576022Y-142235390D01*
X167601041Y-142174989D01*
X168204760Y-142778708D01*
X168204762Y-142778707D01*
X168261527Y-142700576D01*
X168261533Y-142700567D01*
X168366934Y-142493705D01*
X168438681Y-142272893D01*
X168475000Y-142043590D01*
X168475000Y-141811409D01*
X168438681Y-141582106D01*
X168366934Y-141361294D01*
X168261534Y-141154435D01*
X168204760Y-141076291D01*
X168204759Y-141076291D01*
X167601041Y-141680010D01*
X167576022Y-141619610D01*
X167504888Y-141513149D01*
X167414351Y-141422612D01*
X167307890Y-141351478D01*
X167247487Y-141326457D01*
X167851207Y-140722738D01*
X167773064Y-140665965D01*
X167714998Y-140636379D01*
X184749500Y-140636379D01*
X184749500Y-140823620D01*
X184786025Y-141007243D01*
X184786027Y-141007251D01*
X184857676Y-141180228D01*
X184857681Y-141180237D01*
X184927804Y-141285183D01*
X184948682Y-141351861D01*
X184930197Y-141419241D01*
X184927804Y-141422964D01*
X184866662Y-141514469D01*
X184866652Y-141514487D01*
X184789390Y-141701016D01*
X184789387Y-141701025D01*
X184779647Y-141750000D01*
X185719670Y-141750000D01*
X185699925Y-141769745D01*
X185650556Y-141855255D01*
X185625000Y-141950630D01*
X185625000Y-142049370D01*
X185650556Y-142144745D01*
X185699925Y-142230255D01*
X185719670Y-142250000D01*
X184779647Y-142250000D01*
X184789387Y-142298974D01*
X184789390Y-142298983D01*
X184842673Y-142427619D01*
X184850142Y-142497088D01*
X184827380Y-142549381D01*
X184806203Y-142577669D01*
X184806202Y-142577671D01*
X184755908Y-142712517D01*
X184749501Y-142772116D01*
X184749501Y-142772123D01*
X184749500Y-142772135D01*
X184749500Y-143767870D01*
X184749501Y-143767876D01*
X184755908Y-143827483D01*
X184806202Y-143962328D01*
X184806206Y-143962335D01*
X184892452Y-144077544D01*
X184892455Y-144077547D01*
X185007664Y-144163793D01*
X185007671Y-144163797D01*
X185142517Y-144214091D01*
X185142516Y-144214091D01*
X185149444Y-144214835D01*
X185202127Y-144220500D01*
X186797872Y-144220499D01*
X186857483Y-144214091D01*
X186992331Y-144163796D01*
X187107546Y-144077546D01*
X187193796Y-143962331D01*
X187244091Y-143827483D01*
X187250500Y-143767873D01*
X187250499Y-142772128D01*
X187244091Y-142712517D01*
X187239637Y-142700576D01*
X187193797Y-142577672D01*
X187193796Y-142577669D01*
X187172619Y-142549380D01*
X187148203Y-142483922D01*
X187157326Y-142427620D01*
X187210610Y-142298979D01*
X187210612Y-142298974D01*
X187220353Y-142250000D01*
X186280330Y-142250000D01*
X186300075Y-142230255D01*
X186349444Y-142144745D01*
X186375000Y-142049370D01*
X186375000Y-141950630D01*
X186360803Y-141897648D01*
X200619500Y-141897648D01*
X200619500Y-142102351D01*
X200651522Y-142304534D01*
X200714781Y-142499223D01*
X200807715Y-142681613D01*
X200928028Y-142847213D01*
X201072786Y-142991971D01*
X201227749Y-143104556D01*
X201238390Y-143112287D01*
X201354607Y-143171503D01*
X201420776Y-143205218D01*
X201420778Y-143205218D01*
X201420781Y-143205220D01*
X201525137Y-143239127D01*
X201615465Y-143268477D01*
X201716557Y-143284488D01*
X201817648Y-143300500D01*
X201817649Y-143300500D01*
X202022351Y-143300500D01*
X202022352Y-143300500D01*
X202224534Y-143268477D01*
X202419219Y-143205220D01*
X202601610Y-143112287D01*
X202694590Y-143044732D01*
X202767213Y-142991971D01*
X202767215Y-142991968D01*
X202767219Y-142991966D01*
X202911966Y-142847219D01*
X202911968Y-142847215D01*
X202911971Y-142847213D01*
X202982236Y-142750500D01*
X203032287Y-142681610D01*
X203125220Y-142499219D01*
X203188477Y-142304534D01*
X203220500Y-142102352D01*
X203220500Y-141897648D01*
X203200242Y-141769745D01*
X203188477Y-141695465D01*
X203129673Y-141514486D01*
X203125220Y-141500781D01*
X203125218Y-141500778D01*
X203125218Y-141500776D01*
X203083673Y-141419241D01*
X203032287Y-141318390D01*
X203008161Y-141285183D01*
X202911971Y-141152786D01*
X202767213Y-141008028D01*
X202601613Y-140887715D01*
X202601612Y-140887714D01*
X202601610Y-140887713D01*
X202544653Y-140858691D01*
X202419223Y-140794781D01*
X202224534Y-140731522D01*
X202049995Y-140703878D01*
X202022352Y-140699500D01*
X201817648Y-140699500D01*
X201793329Y-140703351D01*
X201615465Y-140731522D01*
X201420776Y-140794781D01*
X201238386Y-140887715D01*
X201072786Y-141008028D01*
X200928028Y-141152786D01*
X200807715Y-141318386D01*
X200714781Y-141500776D01*
X200651522Y-141695465D01*
X200619500Y-141897648D01*
X186360803Y-141897648D01*
X186349444Y-141855255D01*
X186300075Y-141769745D01*
X186280330Y-141750000D01*
X187220353Y-141750000D01*
X187210612Y-141701025D01*
X187210609Y-141701016D01*
X187133347Y-141514486D01*
X187133340Y-141514473D01*
X187072195Y-141422964D01*
X187051317Y-141356287D01*
X187069801Y-141288907D01*
X187072152Y-141285246D01*
X187142322Y-141180231D01*
X187213973Y-141007251D01*
X187250500Y-140823616D01*
X187250500Y-140636384D01*
X187213973Y-140452749D01*
X187142322Y-140279769D01*
X187142321Y-140279768D01*
X187142318Y-140279762D01*
X187038302Y-140124092D01*
X187038299Y-140124088D01*
X186905911Y-139991700D01*
X186905907Y-139991697D01*
X186750237Y-139887681D01*
X186750228Y-139887676D01*
X186577251Y-139816027D01*
X186577243Y-139816025D01*
X186393620Y-139779500D01*
X186393616Y-139779500D01*
X185606384Y-139779500D01*
X185606379Y-139779500D01*
X185422756Y-139816025D01*
X185422748Y-139816027D01*
X185249771Y-139887676D01*
X185249762Y-139887681D01*
X185094092Y-139991697D01*
X185094088Y-139991700D01*
X184961700Y-140124088D01*
X184961697Y-140124092D01*
X184857681Y-140279762D01*
X184857676Y-140279771D01*
X184786027Y-140452748D01*
X184786025Y-140452756D01*
X184749500Y-140636379D01*
X167714998Y-140636379D01*
X167566205Y-140560565D01*
X167345393Y-140488818D01*
X167116090Y-140452500D01*
X166883910Y-140452500D01*
X166654606Y-140488818D01*
X166433794Y-140560565D01*
X166226925Y-140665970D01*
X166148791Y-140722737D01*
X166148791Y-140722738D01*
X166752511Y-141326458D01*
X166692110Y-141351478D01*
X166585649Y-141422612D01*
X166495112Y-141513149D01*
X166423978Y-141619610D01*
X166398958Y-141680011D01*
X165795238Y-141076291D01*
X165795237Y-141076291D01*
X165738470Y-141154425D01*
X165633065Y-141361294D01*
X165561318Y-141582106D01*
X165525000Y-141811409D01*
X154500000Y-141811409D01*
X154500000Y-140929537D01*
X154519685Y-140862498D01*
X154532564Y-140845778D01*
X154540396Y-140837227D01*
X154580046Y-140807546D01*
X154635753Y-140733130D01*
X154639897Y-140728607D01*
X154659400Y-140716821D01*
X154683877Y-140697806D01*
X154865890Y-140622411D01*
X155165399Y-140462314D01*
X155447774Y-140273632D01*
X155710295Y-140058180D01*
X155830364Y-139938108D01*
X155861914Y-139906558D01*
X159943838Y-135824635D01*
X165524500Y-135824635D01*
X165524500Y-137870370D01*
X165524501Y-137870376D01*
X165530908Y-137929983D01*
X165581202Y-138064828D01*
X165581206Y-138064835D01*
X165667452Y-138180044D01*
X165667455Y-138180047D01*
X165782664Y-138266293D01*
X165782671Y-138266297D01*
X165917517Y-138316591D01*
X165917516Y-138316591D01*
X165924444Y-138317335D01*
X165977127Y-138323000D01*
X168022872Y-138322999D01*
X168082483Y-138316591D01*
X168217331Y-138266296D01*
X168332546Y-138180046D01*
X168418796Y-138064831D01*
X168469091Y-137929983D01*
X168475500Y-137870373D01*
X168475499Y-135824628D01*
X168469091Y-135765017D01*
X168468033Y-135762181D01*
X168418797Y-135630171D01*
X168418793Y-135630164D01*
X168332547Y-135514956D01*
X168332548Y-135514956D01*
X168332546Y-135514954D01*
X168301939Y-135492041D01*
X168301938Y-135492040D01*
X168217335Y-135428706D01*
X168217328Y-135428702D01*
X168134067Y-135397648D01*
X181119500Y-135397648D01*
X181119500Y-135602351D01*
X181151522Y-135804534D01*
X181214781Y-135999223D01*
X181307715Y-136181613D01*
X181428028Y-136347213D01*
X181572786Y-136491971D01*
X181704573Y-136587718D01*
X181738390Y-136612287D01*
X181841237Y-136664690D01*
X181920776Y-136705218D01*
X181920778Y-136705218D01*
X181920781Y-136705220D01*
X181974450Y-136722658D01*
X182115465Y-136768477D01*
X182191280Y-136780485D01*
X182317648Y-136800500D01*
X182317649Y-136800500D01*
X182522351Y-136800500D01*
X182522352Y-136800500D01*
X182724534Y-136768477D01*
X182919219Y-136705220D01*
X183101610Y-136612287D01*
X183194590Y-136544732D01*
X183267213Y-136491971D01*
X183267215Y-136491968D01*
X183267219Y-136491966D01*
X183411966Y-136347219D01*
X183411968Y-136347215D01*
X183411971Y-136347213D01*
X183464732Y-136274590D01*
X183532287Y-136181610D01*
X183625220Y-135999219D01*
X183688477Y-135804534D01*
X183720500Y-135602352D01*
X183720500Y-135397648D01*
X191279500Y-135397648D01*
X191279500Y-135602351D01*
X191311522Y-135804534D01*
X191374781Y-135999223D01*
X191467715Y-136181613D01*
X191588028Y-136347213D01*
X191732786Y-136491971D01*
X191864573Y-136587718D01*
X191898390Y-136612287D01*
X192001237Y-136664690D01*
X192080776Y-136705218D01*
X192080778Y-136705218D01*
X192080781Y-136705220D01*
X192134450Y-136722658D01*
X192275465Y-136768477D01*
X192351280Y-136780485D01*
X192477648Y-136800500D01*
X192477649Y-136800500D01*
X192682351Y-136800500D01*
X192682352Y-136800500D01*
X192884534Y-136768477D01*
X193079219Y-136705220D01*
X193261610Y-136612287D01*
X193354590Y-136544732D01*
X193427213Y-136491971D01*
X193427215Y-136491968D01*
X193427219Y-136491966D01*
X193571966Y-136347219D01*
X193571968Y-136347215D01*
X193571971Y-136347213D01*
X193624732Y-136274590D01*
X193692287Y-136181610D01*
X193785220Y-135999219D01*
X193848477Y-135804534D01*
X193880500Y-135602352D01*
X193880500Y-135397648D01*
X200619500Y-135397648D01*
X200619500Y-135602351D01*
X200651522Y-135804534D01*
X200714781Y-135999223D01*
X200807715Y-136181613D01*
X200928028Y-136347213D01*
X201072786Y-136491971D01*
X201204573Y-136587718D01*
X201238390Y-136612287D01*
X201341237Y-136664690D01*
X201420776Y-136705218D01*
X201420778Y-136705218D01*
X201420781Y-136705220D01*
X201474450Y-136722658D01*
X201615465Y-136768477D01*
X201691280Y-136780485D01*
X201817648Y-136800500D01*
X201817649Y-136800500D01*
X202022351Y-136800500D01*
X202022352Y-136800500D01*
X202224534Y-136768477D01*
X202419219Y-136705220D01*
X202601610Y-136612287D01*
X202694590Y-136544732D01*
X202767213Y-136491971D01*
X202767215Y-136491968D01*
X202767219Y-136491966D01*
X202911966Y-136347219D01*
X202911968Y-136347215D01*
X202911971Y-136347213D01*
X202964732Y-136274590D01*
X203032287Y-136181610D01*
X203125220Y-135999219D01*
X203188477Y-135804534D01*
X203220500Y-135602352D01*
X203220500Y-135397648D01*
X210779500Y-135397648D01*
X210779500Y-135602351D01*
X210811522Y-135804534D01*
X210874781Y-135999223D01*
X210967715Y-136181613D01*
X211088028Y-136347213D01*
X211232786Y-136491971D01*
X211364573Y-136587718D01*
X211398390Y-136612287D01*
X211501237Y-136664690D01*
X211580776Y-136705218D01*
X211580778Y-136705218D01*
X211580781Y-136705220D01*
X211634450Y-136722658D01*
X211775465Y-136768477D01*
X211851280Y-136780485D01*
X211977648Y-136800500D01*
X211977649Y-136800500D01*
X212182351Y-136800500D01*
X212182352Y-136800500D01*
X212384534Y-136768477D01*
X212579219Y-136705220D01*
X212761610Y-136612287D01*
X212854590Y-136544732D01*
X212927213Y-136491971D01*
X212927215Y-136491968D01*
X212927219Y-136491966D01*
X213071966Y-136347219D01*
X213071968Y-136347215D01*
X213071971Y-136347213D01*
X213124732Y-136274590D01*
X213192287Y-136181610D01*
X213285220Y-135999219D01*
X213348477Y-135804534D01*
X213380500Y-135602352D01*
X213380500Y-135397648D01*
X213378006Y-135381902D01*
X218499500Y-135381902D01*
X218499500Y-135618097D01*
X218536446Y-135851368D01*
X218609433Y-136075996D01*
X218696673Y-136247213D01*
X218716657Y-136286433D01*
X218855483Y-136477510D01*
X219022490Y-136644517D01*
X219213567Y-136783343D01*
X219247240Y-136800500D01*
X219424003Y-136890566D01*
X219424005Y-136890566D01*
X219424008Y-136890568D01*
X219544412Y-136929689D01*
X219648631Y-136963553D01*
X219881903Y-137000500D01*
X219881908Y-137000500D01*
X220118097Y-137000500D01*
X220351368Y-136963553D01*
X220399130Y-136948034D01*
X220575992Y-136890568D01*
X220786433Y-136783343D01*
X220977510Y-136644517D01*
X221144517Y-136477510D01*
X221283343Y-136286433D01*
X221390568Y-136075992D01*
X221463553Y-135851368D01*
X221482202Y-135733625D01*
X221500500Y-135618097D01*
X221500500Y-135381947D01*
X226000000Y-135381947D01*
X226000000Y-135618052D01*
X226036934Y-135851247D01*
X226109897Y-136075802D01*
X226217087Y-136286174D01*
X226277338Y-136369104D01*
X226277340Y-136369105D01*
X227017037Y-135629408D01*
X227034075Y-135692993D01*
X227099901Y-135807007D01*
X227192993Y-135900099D01*
X227307007Y-135965925D01*
X227370590Y-135982962D01*
X226630893Y-136722658D01*
X226713828Y-136782914D01*
X226924197Y-136890102D01*
X227148752Y-136963065D01*
X227148751Y-136963065D01*
X227381948Y-137000000D01*
X227618052Y-137000000D01*
X227851247Y-136963065D01*
X228075802Y-136890102D01*
X228286163Y-136782918D01*
X228286169Y-136782914D01*
X228369104Y-136722658D01*
X228369105Y-136722658D01*
X227629408Y-135982962D01*
X227692993Y-135965925D01*
X227807007Y-135900099D01*
X227900099Y-135807007D01*
X227965925Y-135692993D01*
X227982962Y-135629408D01*
X228722658Y-136369105D01*
X228722658Y-136369104D01*
X228782914Y-136286169D01*
X228782918Y-136286163D01*
X228890102Y-136075802D01*
X228963065Y-135851247D01*
X229000000Y-135618052D01*
X229000000Y-135381947D01*
X228963065Y-135148752D01*
X228890102Y-134924197D01*
X228782914Y-134713828D01*
X228722658Y-134630894D01*
X228722658Y-134630893D01*
X227982962Y-135370590D01*
X227965925Y-135307007D01*
X227900099Y-135192993D01*
X227807007Y-135099901D01*
X227692993Y-135034075D01*
X227629409Y-135017037D01*
X228369105Y-134277340D01*
X228369104Y-134277338D01*
X228286174Y-134217087D01*
X228075802Y-134109897D01*
X227851247Y-134036934D01*
X227851248Y-134036934D01*
X227618052Y-134000000D01*
X227381948Y-134000000D01*
X227148752Y-134036934D01*
X226924197Y-134109897D01*
X226713830Y-134217084D01*
X226630894Y-134277340D01*
X227370591Y-135017037D01*
X227307007Y-135034075D01*
X227192993Y-135099901D01*
X227099901Y-135192993D01*
X227034075Y-135307007D01*
X227017037Y-135370591D01*
X226277340Y-134630894D01*
X226217084Y-134713830D01*
X226109897Y-134924197D01*
X226036934Y-135148752D01*
X226000000Y-135381947D01*
X221500500Y-135381947D01*
X221500500Y-135381902D01*
X221463553Y-135148631D01*
X221415513Y-135000781D01*
X221390568Y-134924008D01*
X221390566Y-134924005D01*
X221390566Y-134924003D01*
X221283477Y-134713830D01*
X221283343Y-134713567D01*
X221144517Y-134522490D01*
X220977510Y-134355483D01*
X220786433Y-134216657D01*
X220756580Y-134201446D01*
X220575996Y-134109433D01*
X220351368Y-134036446D01*
X220118097Y-133999500D01*
X220118092Y-133999500D01*
X219881908Y-133999500D01*
X219881903Y-133999500D01*
X219648631Y-134036446D01*
X219424003Y-134109433D01*
X219213566Y-134216657D01*
X219130047Y-134277338D01*
X219022490Y-134355483D01*
X219022488Y-134355485D01*
X219022487Y-134355485D01*
X218855485Y-134522487D01*
X218855485Y-134522488D01*
X218855483Y-134522490D01*
X218831500Y-134555500D01*
X218716657Y-134713566D01*
X218609433Y-134924003D01*
X218536446Y-135148631D01*
X218499500Y-135381902D01*
X213378006Y-135381902D01*
X213348477Y-135195466D01*
X213347673Y-135192993D01*
X213285218Y-135000776D01*
X213234265Y-134900776D01*
X213192287Y-134818390D01*
X213184556Y-134807749D01*
X213071971Y-134652786D01*
X212927213Y-134508028D01*
X212761613Y-134387715D01*
X212761612Y-134387714D01*
X212761610Y-134387713D01*
X212698355Y-134355483D01*
X212579223Y-134294781D01*
X212384534Y-134231522D01*
X212194638Y-134201446D01*
X212182352Y-134199500D01*
X211977648Y-134199500D01*
X211965362Y-134201446D01*
X211775465Y-134231522D01*
X211580776Y-134294781D01*
X211398386Y-134387715D01*
X211232786Y-134508028D01*
X211088028Y-134652786D01*
X210967715Y-134818386D01*
X210874781Y-135000776D01*
X210811522Y-135195465D01*
X210779500Y-135397648D01*
X203220500Y-135397648D01*
X203188477Y-135195466D01*
X203187673Y-135192993D01*
X203125218Y-135000776D01*
X203074265Y-134900776D01*
X203032287Y-134818390D01*
X203024556Y-134807749D01*
X202911971Y-134652786D01*
X202767213Y-134508028D01*
X202601613Y-134387715D01*
X202601612Y-134387714D01*
X202601610Y-134387713D01*
X202538355Y-134355483D01*
X202419223Y-134294781D01*
X202224534Y-134231522D01*
X202034638Y-134201446D01*
X202022352Y-134199500D01*
X201817648Y-134199500D01*
X201805362Y-134201446D01*
X201615465Y-134231522D01*
X201420776Y-134294781D01*
X201238386Y-134387715D01*
X201072786Y-134508028D01*
X200928028Y-134652786D01*
X200807715Y-134818386D01*
X200714781Y-135000776D01*
X200651522Y-135195465D01*
X200619500Y-135397648D01*
X193880500Y-135397648D01*
X193848477Y-135195466D01*
X193847673Y-135192993D01*
X193785218Y-135000776D01*
X193734265Y-134900776D01*
X193692287Y-134818390D01*
X193684556Y-134807749D01*
X193571971Y-134652786D01*
X193427213Y-134508028D01*
X193261613Y-134387715D01*
X193261612Y-134387714D01*
X193261610Y-134387713D01*
X193198355Y-134355483D01*
X193079223Y-134294781D01*
X192884534Y-134231522D01*
X192694638Y-134201446D01*
X192682352Y-134199500D01*
X192477648Y-134199500D01*
X192465362Y-134201446D01*
X192275465Y-134231522D01*
X192080776Y-134294781D01*
X191898386Y-134387715D01*
X191732786Y-134508028D01*
X191588028Y-134652786D01*
X191467715Y-134818386D01*
X191374781Y-135000776D01*
X191311522Y-135195465D01*
X191279500Y-135397648D01*
X183720500Y-135397648D01*
X183688477Y-135195466D01*
X183687673Y-135192993D01*
X183625218Y-135000776D01*
X183574265Y-134900776D01*
X183532287Y-134818390D01*
X183524556Y-134807749D01*
X183411971Y-134652786D01*
X183267213Y-134508028D01*
X183101613Y-134387715D01*
X183101612Y-134387714D01*
X183101610Y-134387713D01*
X183038355Y-134355483D01*
X182919223Y-134294781D01*
X182724534Y-134231522D01*
X182534638Y-134201446D01*
X182522352Y-134199500D01*
X182317648Y-134199500D01*
X182305362Y-134201446D01*
X182115465Y-134231522D01*
X181920776Y-134294781D01*
X181738386Y-134387715D01*
X181572786Y-134508028D01*
X181428028Y-134652786D01*
X181307715Y-134818386D01*
X181214781Y-135000776D01*
X181151522Y-135195465D01*
X181119500Y-135397648D01*
X168134067Y-135397648D01*
X168082482Y-135378408D01*
X168082483Y-135378408D01*
X168022883Y-135372001D01*
X168022881Y-135372000D01*
X168022873Y-135372000D01*
X168022864Y-135372000D01*
X165977129Y-135372000D01*
X165977123Y-135372001D01*
X165917516Y-135378408D01*
X165782671Y-135428702D01*
X165782664Y-135428706D01*
X165667455Y-135514952D01*
X165667452Y-135514955D01*
X165581206Y-135630164D01*
X165581202Y-135630171D01*
X165530908Y-135765017D01*
X165526660Y-135804534D01*
X165524501Y-135824623D01*
X165524500Y-135824635D01*
X159943838Y-135824635D01*
X162178027Y-133590446D01*
X162251298Y-133517176D01*
X162251300Y-133517172D01*
X162953827Y-132814646D01*
X162953827Y-132814645D01*
X164288529Y-131479942D01*
X164292414Y-131476224D01*
X164471665Y-131311971D01*
X164556024Y-131234670D01*
X164564289Y-131227734D01*
X164845789Y-131011732D01*
X164854628Y-131005542D01*
X165153890Y-130814891D01*
X165163236Y-130809496D01*
X165477953Y-130645664D01*
X165487744Y-130641097D01*
X165815554Y-130505313D01*
X165825690Y-130501624D01*
X166164096Y-130394924D01*
X166174510Y-130392133D01*
X166520937Y-130315330D01*
X166531556Y-130313458D01*
X166883348Y-130267143D01*
X166894082Y-130266203D01*
X167231291Y-130251478D01*
X167250996Y-130250618D01*
X167256405Y-130250500D01*
X167357591Y-130250500D01*
X183156897Y-130250500D01*
X183156903Y-130250501D01*
X183209154Y-130250500D01*
X183209176Y-130250506D01*
X183260522Y-130250506D01*
X183260522Y-130250507D01*
X183474652Y-130250506D01*
X183901593Y-130216904D01*
X184324580Y-130149908D01*
X184741008Y-130049931D01*
X185148307Y-129917590D01*
X185543968Y-129753701D01*
X185925551Y-129559274D01*
X186290702Y-129335508D01*
X186637172Y-129083783D01*
X186962824Y-128805650D01*
X187114237Y-128654237D01*
X187187507Y-128580967D01*
X188413829Y-127354645D01*
X188529524Y-127195405D01*
X188618884Y-127020026D01*
X188679709Y-126832826D01*
X188683199Y-126810789D01*
X188710500Y-126638421D01*
X188710500Y-126441577D01*
X188679709Y-126247176D01*
X188679709Y-126247175D01*
X188679709Y-126247173D01*
X188658249Y-126181127D01*
X188657608Y-126158699D01*
X188652321Y-126136892D01*
X188656383Y-126115827D01*
X188656254Y-126111286D01*
X188658999Y-126102253D01*
X188677724Y-126048176D01*
X188718260Y-125991270D01*
X188783128Y-125965311D01*
X188851733Y-125978543D01*
X188882579Y-126001070D01*
X189024119Y-126142610D01*
X189214877Y-126281204D01*
X189354379Y-126352284D01*
X189424970Y-126388252D01*
X189649214Y-126461113D01*
X189649215Y-126461113D01*
X189649218Y-126461114D01*
X189882105Y-126498000D01*
X189882106Y-126498000D01*
X190117893Y-126498000D01*
X190117895Y-126498000D01*
X190257324Y-126475916D01*
X190259472Y-126475811D01*
X190262023Y-126475172D01*
X190350782Y-126461114D01*
X190575032Y-126388251D01*
X190762717Y-126292620D01*
X190772043Y-126288345D01*
X192064857Y-125759724D01*
X192111788Y-125750500D01*
X197137770Y-125750500D01*
X197204809Y-125770185D01*
X197225451Y-125786819D01*
X202021578Y-130582947D01*
X202021581Y-130582950D01*
X202021584Y-130582952D01*
X202083817Y-130624534D01*
X202144505Y-130665084D01*
X202281087Y-130721658D01*
X202281091Y-130721658D01*
X202281092Y-130721659D01*
X202426079Y-130750500D01*
X202426082Y-130750500D01*
X219113920Y-130750500D01*
X219211462Y-130731096D01*
X219258913Y-130721658D01*
X219395495Y-130665084D01*
X219456183Y-130624534D01*
X219518416Y-130582952D01*
X222201968Y-127899398D01*
X222230999Y-127877827D01*
X223018954Y-127454898D01*
X223044703Y-127444233D01*
X223068706Y-127428194D01*
X223081626Y-127421260D01*
X223102640Y-127409326D01*
X223103590Y-127408756D01*
X223166997Y-127363736D01*
X223166999Y-127363733D01*
X223168731Y-127362504D01*
X223179615Y-127354087D01*
X223219216Y-127327628D01*
X223367628Y-127179216D01*
X223443180Y-127066142D01*
X223461260Y-127041626D01*
X223468194Y-127028706D01*
X223484233Y-127004703D01*
X223492526Y-126984680D01*
X223497823Y-126973502D01*
X223781243Y-126445466D01*
X223830292Y-126395708D01*
X223898457Y-126380366D01*
X223964095Y-126404311D01*
X224006367Y-126459942D01*
X224014500Y-126504110D01*
X224014500Y-126604943D01*
X224014500Y-126604945D01*
X224014499Y-126604945D01*
X224055445Y-126810789D01*
X224055447Y-126810795D01*
X224135765Y-127004701D01*
X224252373Y-127179218D01*
X224400781Y-127327626D01*
X224575298Y-127444234D01*
X224650697Y-127475465D01*
X224769205Y-127524553D01*
X224769209Y-127524553D01*
X224769210Y-127524554D01*
X224975054Y-127565500D01*
X224975057Y-127565500D01*
X225184945Y-127565500D01*
X225323433Y-127537952D01*
X225390795Y-127524553D01*
X225584703Y-127444233D01*
X225759216Y-127327628D01*
X225782877Y-127303967D01*
X225811303Y-127275542D01*
X225907625Y-127179219D01*
X225907626Y-127179218D01*
X225907628Y-127179216D01*
X226024233Y-127004703D01*
X226104553Y-126810795D01*
X226125955Y-126703202D01*
X226145500Y-126604945D01*
X226145500Y-126395102D01*
X226555000Y-126395102D01*
X226555000Y-126604897D01*
X226595925Y-126810641D01*
X226595927Y-126810649D01*
X226676207Y-127004464D01*
X226710563Y-127055882D01*
X227230000Y-126536445D01*
X227230000Y-126551344D01*
X227256578Y-126650534D01*
X227307923Y-126739465D01*
X227380535Y-126812077D01*
X227469466Y-126863422D01*
X227568656Y-126890000D01*
X227583553Y-126890000D01*
X227064116Y-127409434D01*
X227064117Y-127409435D01*
X227115528Y-127443788D01*
X227115534Y-127443791D01*
X227309350Y-127524072D01*
X227309358Y-127524074D01*
X227515102Y-127564999D01*
X227515106Y-127565000D01*
X227724894Y-127565000D01*
X227724897Y-127564999D01*
X227930641Y-127524074D01*
X227930649Y-127524072D01*
X228124465Y-127443791D01*
X228124473Y-127443787D01*
X228175881Y-127409435D01*
X228175882Y-127409434D01*
X227656448Y-126890000D01*
X227671344Y-126890000D01*
X227770534Y-126863422D01*
X227859465Y-126812077D01*
X227932077Y-126739465D01*
X227983422Y-126650534D01*
X228010000Y-126551344D01*
X228010000Y-126536447D01*
X228529434Y-127055882D01*
X228529435Y-127055881D01*
X228563787Y-127004473D01*
X228563791Y-127004465D01*
X228644072Y-126810649D01*
X228644074Y-126810641D01*
X228684999Y-126604897D01*
X228685000Y-126604894D01*
X228685000Y-126395106D01*
X228684999Y-126395102D01*
X228644074Y-126189358D01*
X228644072Y-126189350D01*
X228563791Y-125995534D01*
X228563788Y-125995528D01*
X228529435Y-125944117D01*
X228529434Y-125944116D01*
X228010000Y-126463551D01*
X228010000Y-126448656D01*
X227983422Y-126349466D01*
X227932077Y-126260535D01*
X227859465Y-126187923D01*
X227770534Y-126136578D01*
X227671344Y-126110000D01*
X227656447Y-126110000D01*
X228175882Y-125590563D01*
X228124464Y-125556207D01*
X227930649Y-125475927D01*
X227930641Y-125475925D01*
X227724897Y-125435000D01*
X227515102Y-125435000D01*
X227309358Y-125475925D01*
X227309350Y-125475927D01*
X227115535Y-125556207D01*
X227115532Y-125556209D01*
X227064117Y-125590564D01*
X227583554Y-126110000D01*
X227568656Y-126110000D01*
X227469466Y-126136578D01*
X227380535Y-126187923D01*
X227307923Y-126260535D01*
X227256578Y-126349466D01*
X227230000Y-126448656D01*
X227230000Y-126463553D01*
X226710564Y-125944117D01*
X226676209Y-125995532D01*
X226676207Y-125995535D01*
X226595927Y-126189350D01*
X226595925Y-126189358D01*
X226555000Y-126395102D01*
X226145500Y-126395102D01*
X226145500Y-126395054D01*
X226104554Y-126189210D01*
X226104553Y-126189209D01*
X226104553Y-126189205D01*
X226034895Y-126021036D01*
X226024234Y-125995298D01*
X225907626Y-125820781D01*
X225759218Y-125672373D01*
X225584701Y-125555765D01*
X225390795Y-125475447D01*
X225390789Y-125475445D01*
X225184945Y-125434500D01*
X225184943Y-125434500D01*
X224975057Y-125434500D01*
X224968965Y-125434500D01*
X224968965Y-125432480D01*
X224909400Y-125421163D01*
X224858706Y-125373082D01*
X224842054Y-125305225D01*
X224864732Y-125239138D01*
X224878241Y-125223125D01*
X225814548Y-124286819D01*
X225875871Y-124253334D01*
X225902229Y-124250500D01*
X230637770Y-124250500D01*
X230704809Y-124270185D01*
X230725451Y-124286819D01*
X231213181Y-124774548D01*
X231246666Y-124835871D01*
X231249500Y-124862229D01*
X231249500Y-137137770D01*
X231229815Y-137204809D01*
X231213181Y-137225451D01*
X227225451Y-141213181D01*
X227164128Y-141246666D01*
X227137770Y-141249500D01*
X213205418Y-141249500D01*
X213138379Y-141229815D01*
X213105100Y-141198385D01*
X213071971Y-141152787D01*
X213071967Y-141152782D01*
X212927213Y-141008028D01*
X212761613Y-140887715D01*
X212761612Y-140887714D01*
X212761610Y-140887713D01*
X212704653Y-140858691D01*
X212579223Y-140794781D01*
X212384534Y-140731522D01*
X212209995Y-140703878D01*
X212182352Y-140699500D01*
X211977648Y-140699500D01*
X211953329Y-140703351D01*
X211775465Y-140731522D01*
X211580776Y-140794781D01*
X211398386Y-140887715D01*
X211232786Y-141008028D01*
X211088028Y-141152786D01*
X210967715Y-141318386D01*
X210874781Y-141500776D01*
X210811522Y-141695465D01*
X210779500Y-141897648D01*
X210779500Y-142102351D01*
X210811522Y-142304534D01*
X210874781Y-142499223D01*
X210967715Y-142681613D01*
X211088028Y-142847213D01*
X211232786Y-142991971D01*
X211387749Y-143104556D01*
X211398390Y-143112287D01*
X211514607Y-143171503D01*
X211580776Y-143205218D01*
X211580778Y-143205218D01*
X211580781Y-143205220D01*
X211685137Y-143239127D01*
X211775465Y-143268477D01*
X211876557Y-143284488D01*
X211977648Y-143300500D01*
X211977649Y-143300500D01*
X212182351Y-143300500D01*
X212182352Y-143300500D01*
X212384534Y-143268477D01*
X212579219Y-143205220D01*
X212761610Y-143112287D01*
X212854590Y-143044732D01*
X212927213Y-142991971D01*
X212927215Y-142991968D01*
X212927219Y-142991966D01*
X213071966Y-142847219D01*
X213074650Y-142843524D01*
X213105100Y-142801615D01*
X213160429Y-142758949D01*
X213205418Y-142750500D01*
X227573920Y-142750500D01*
X227671462Y-142731096D01*
X227718913Y-142721658D01*
X227855495Y-142665084D01*
X227904729Y-142632186D01*
X227978416Y-142582952D01*
X230003885Y-140557483D01*
X230663721Y-139897648D01*
X238119500Y-139897648D01*
X238119500Y-140102351D01*
X238151522Y-140304534D01*
X238214781Y-140499223D01*
X238246037Y-140560565D01*
X238299741Y-140665965D01*
X238307715Y-140681613D01*
X238428028Y-140847213D01*
X238572786Y-140991971D01*
X238688845Y-141076291D01*
X238738390Y-141112287D01*
X238854607Y-141171503D01*
X238920776Y-141205218D01*
X238920778Y-141205218D01*
X238920781Y-141205220D01*
X238996477Y-141229815D01*
X239115465Y-141268477D01*
X239172434Y-141277500D01*
X239317648Y-141300500D01*
X239317649Y-141300500D01*
X239522351Y-141300500D01*
X239522352Y-141300500D01*
X239724534Y-141268477D01*
X239919219Y-141205220D01*
X240101610Y-141112287D01*
X240194590Y-141044732D01*
X240267213Y-140991971D01*
X240267215Y-140991968D01*
X240267219Y-140991966D01*
X240411966Y-140847219D01*
X240411968Y-140847215D01*
X240411971Y-140847213D01*
X240502406Y-140722738D01*
X240532287Y-140681610D01*
X240625220Y-140499219D01*
X240688477Y-140304534D01*
X240720500Y-140102352D01*
X240720500Y-139897648D01*
X248279500Y-139897648D01*
X248279500Y-140102351D01*
X248311522Y-140304534D01*
X248374781Y-140499223D01*
X248406037Y-140560565D01*
X248459741Y-140665965D01*
X248467715Y-140681613D01*
X248588028Y-140847213D01*
X248732786Y-140991971D01*
X248848845Y-141076291D01*
X248898390Y-141112287D01*
X249014607Y-141171503D01*
X249080776Y-141205218D01*
X249080778Y-141205218D01*
X249080781Y-141205220D01*
X249156477Y-141229815D01*
X249275465Y-141268477D01*
X249332434Y-141277500D01*
X249477648Y-141300500D01*
X249477649Y-141300500D01*
X249682351Y-141300500D01*
X249682352Y-141300500D01*
X249884534Y-141268477D01*
X250079219Y-141205220D01*
X250261610Y-141112287D01*
X250354590Y-141044732D01*
X250427213Y-140991971D01*
X250427215Y-140991968D01*
X250427219Y-140991966D01*
X250571966Y-140847219D01*
X250571968Y-140847215D01*
X250571971Y-140847213D01*
X250662406Y-140722738D01*
X250692287Y-140681610D01*
X250785220Y-140499219D01*
X250848477Y-140304534D01*
X250880500Y-140102352D01*
X250880500Y-139897648D01*
X250848477Y-139695466D01*
X250785220Y-139500781D01*
X250785218Y-139500778D01*
X250785218Y-139500776D01*
X250751503Y-139434607D01*
X250692287Y-139318390D01*
X250684556Y-139307749D01*
X250571971Y-139152786D01*
X250427213Y-139008028D01*
X250261613Y-138887715D01*
X250261612Y-138887714D01*
X250261610Y-138887713D01*
X250204653Y-138858691D01*
X250079223Y-138794781D01*
X249884534Y-138731522D01*
X249709995Y-138703878D01*
X249682352Y-138699500D01*
X249477648Y-138699500D01*
X249453329Y-138703351D01*
X249275465Y-138731522D01*
X249080776Y-138794781D01*
X248898386Y-138887715D01*
X248732786Y-139008028D01*
X248588028Y-139152786D01*
X248467715Y-139318386D01*
X248374781Y-139500776D01*
X248311522Y-139695465D01*
X248279500Y-139897648D01*
X240720500Y-139897648D01*
X240688477Y-139695466D01*
X240625220Y-139500781D01*
X240625218Y-139500778D01*
X240625218Y-139500776D01*
X240591503Y-139434607D01*
X240532287Y-139318390D01*
X240524556Y-139307749D01*
X240411971Y-139152786D01*
X240267213Y-139008028D01*
X240101613Y-138887715D01*
X240101612Y-138887714D01*
X240101610Y-138887713D01*
X240044653Y-138858691D01*
X239919223Y-138794781D01*
X239724534Y-138731522D01*
X239549995Y-138703878D01*
X239522352Y-138699500D01*
X239317648Y-138699500D01*
X239293329Y-138703351D01*
X239115465Y-138731522D01*
X238920776Y-138794781D01*
X238738386Y-138887715D01*
X238572786Y-139008028D01*
X238428028Y-139152786D01*
X238307715Y-139318386D01*
X238214781Y-139500776D01*
X238151522Y-139695465D01*
X238119500Y-139897648D01*
X230663721Y-139897648D01*
X230756274Y-139805095D01*
X232582947Y-137978421D01*
X232582948Y-137978420D01*
X232582952Y-137978416D01*
X232645410Y-137884939D01*
X232665084Y-137855495D01*
X232721658Y-137718913D01*
X232750500Y-137573918D01*
X232750500Y-132057135D01*
X243024500Y-132057135D01*
X243024500Y-134102870D01*
X243024501Y-134102876D01*
X243030908Y-134162483D01*
X243081202Y-134297328D01*
X243081206Y-134297335D01*
X243167452Y-134412544D01*
X243167455Y-134412547D01*
X243282664Y-134498793D01*
X243282671Y-134498797D01*
X243417517Y-134549091D01*
X243417516Y-134549091D01*
X243424444Y-134549835D01*
X243477127Y-134555500D01*
X245522872Y-134555499D01*
X245582483Y-134549091D01*
X245717331Y-134498796D01*
X245832546Y-134412546D01*
X245918796Y-134297331D01*
X245969091Y-134162483D01*
X245975500Y-134102873D01*
X245975499Y-132057128D01*
X245969091Y-131997517D01*
X245918796Y-131862669D01*
X245918795Y-131862668D01*
X245918793Y-131862664D01*
X245832547Y-131747455D01*
X245832544Y-131747452D01*
X245717335Y-131661206D01*
X245717328Y-131661202D01*
X245582482Y-131610908D01*
X245582483Y-131610908D01*
X245522883Y-131604501D01*
X245522881Y-131604500D01*
X245522873Y-131604500D01*
X245522864Y-131604500D01*
X243477129Y-131604500D01*
X243477123Y-131604501D01*
X243417516Y-131610908D01*
X243282671Y-131661202D01*
X243282664Y-131661206D01*
X243167455Y-131747452D01*
X243167452Y-131747455D01*
X243081206Y-131862664D01*
X243081202Y-131862671D01*
X243030908Y-131997517D01*
X243029267Y-132012786D01*
X243024501Y-132057123D01*
X243024500Y-132057135D01*
X232750500Y-132057135D01*
X232750500Y-131362229D01*
X232770185Y-131295190D01*
X232786819Y-131274548D01*
X235274548Y-128786819D01*
X235335871Y-128753334D01*
X235362229Y-128750500D01*
X242433588Y-128750500D01*
X242480200Y-128759594D01*
X242593735Y-128805650D01*
X243753204Y-129275993D01*
X243762877Y-129280410D01*
X243933604Y-129367400D01*
X244107838Y-129424012D01*
X244154479Y-129439167D01*
X244154480Y-129439167D01*
X244154486Y-129439169D01*
X244246968Y-129453816D01*
X244253225Y-129455025D01*
X244254256Y-129454970D01*
X244383876Y-129475500D01*
X244383878Y-129475500D01*
X244616129Y-129475500D01*
X244717502Y-129459443D01*
X244845514Y-129439169D01*
X245066396Y-129367400D01*
X245273331Y-129261961D01*
X245461224Y-129125449D01*
X245625449Y-128961224D01*
X245761961Y-128773331D01*
X245867400Y-128566396D01*
X245939169Y-128345514D01*
X245959443Y-128217502D01*
X245975500Y-128116129D01*
X245975500Y-127883870D01*
X245954216Y-127749489D01*
X245939169Y-127654486D01*
X245867400Y-127433604D01*
X245867398Y-127433601D01*
X245867398Y-127433599D01*
X245811776Y-127324436D01*
X245761961Y-127226669D01*
X245625449Y-127038776D01*
X245461224Y-126874551D01*
X245273331Y-126738039D01*
X245241859Y-126722003D01*
X245066400Y-126632601D01*
X244845514Y-126560831D01*
X244616129Y-126524500D01*
X244616124Y-126524500D01*
X244383876Y-126524500D01*
X244383870Y-126524500D01*
X244255109Y-126544893D01*
X244255108Y-126544893D01*
X244248320Y-126545969D01*
X244246338Y-126546061D01*
X244243840Y-126546678D01*
X244238620Y-126547504D01*
X244238619Y-126547504D01*
X244154489Y-126560830D01*
X243933603Y-126632599D01*
X243762889Y-126719582D01*
X243753207Y-126724003D01*
X242480199Y-127240406D01*
X242433587Y-127249500D01*
X234926076Y-127249500D01*
X234897242Y-127255234D01*
X234897243Y-127255235D01*
X234781093Y-127278339D01*
X234781089Y-127278340D01*
X234719220Y-127303967D01*
X234719209Y-127303972D01*
X234714539Y-127305907D01*
X234644505Y-127334916D01*
X234602500Y-127362983D01*
X234596586Y-127366933D01*
X234596579Y-127366938D01*
X234521582Y-127417049D01*
X234521579Y-127417052D01*
X232962181Y-128976451D01*
X232900858Y-129009936D01*
X232831166Y-129004952D01*
X232775233Y-128963080D01*
X232750816Y-128897616D01*
X232750500Y-128888770D01*
X232750500Y-124426081D01*
X232750499Y-124426080D01*
X232732366Y-124334916D01*
X232721659Y-124281088D01*
X232665996Y-124146709D01*
X232665394Y-124144968D01*
X232582954Y-124021588D01*
X232582953Y-124021587D01*
X232582951Y-124021584D01*
X232478416Y-123917049D01*
X232253333Y-123691966D01*
X231478421Y-122917052D01*
X231478414Y-122917046D01*
X231404729Y-122867812D01*
X231404729Y-122867813D01*
X231355491Y-122834913D01*
X231218917Y-122778343D01*
X231218907Y-122778340D01*
X231073920Y-122749500D01*
X231073918Y-122749500D01*
X225466082Y-122749500D01*
X225466076Y-122749500D01*
X225437242Y-122755234D01*
X225437243Y-122755235D01*
X225321093Y-122778339D01*
X225321083Y-122778342D01*
X225241081Y-122811479D01*
X225241082Y-122811480D01*
X225184505Y-122834915D01*
X225102372Y-122889795D01*
X225061585Y-122917047D01*
X225061581Y-122917050D01*
X222878035Y-125100596D01*
X222848997Y-125122172D01*
X222066489Y-125542177D01*
X222061025Y-125545109D01*
X222035297Y-125555767D01*
X222011305Y-125571796D01*
X222006028Y-125574629D01*
X222006026Y-125574629D01*
X221998371Y-125578739D01*
X221977191Y-125590773D01*
X221976284Y-125591317D01*
X221976275Y-125591323D01*
X221911287Y-125637481D01*
X221900382Y-125645911D01*
X221860785Y-125672371D01*
X221860777Y-125672378D01*
X221712374Y-125820780D01*
X221638429Y-125931446D01*
X221638428Y-125931445D01*
X221636808Y-125933868D01*
X221618740Y-125958372D01*
X221611801Y-125971297D01*
X221608477Y-125976274D01*
X221595766Y-125995297D01*
X221587478Y-126015306D01*
X221582176Y-126026492D01*
X221298756Y-126554528D01*
X221249707Y-126604287D01*
X221181542Y-126619629D01*
X221115904Y-126595684D01*
X221073632Y-126540053D01*
X221065499Y-126495885D01*
X221065499Y-125887129D01*
X221065498Y-125887123D01*
X221065497Y-125887116D01*
X221059091Y-125827517D01*
X221056578Y-125820780D01*
X221008797Y-125692671D01*
X221008793Y-125692664D01*
X220922547Y-125577455D01*
X220922544Y-125577452D01*
X220807335Y-125491206D01*
X220807328Y-125491202D01*
X220672482Y-125440908D01*
X220672483Y-125440908D01*
X220612883Y-125434501D01*
X220612881Y-125434500D01*
X220612873Y-125434500D01*
X220612864Y-125434500D01*
X219387129Y-125434500D01*
X219387123Y-125434501D01*
X219327516Y-125440908D01*
X219192671Y-125491202D01*
X219192664Y-125491206D01*
X219077455Y-125577452D01*
X219077452Y-125577455D01*
X218991206Y-125692664D01*
X218991202Y-125692671D01*
X218940908Y-125827517D01*
X218934501Y-125887116D01*
X218934501Y-125887123D01*
X218934500Y-125887135D01*
X218934500Y-127112870D01*
X218934501Y-127112876D01*
X218940908Y-127172483D01*
X218991202Y-127307328D01*
X218991206Y-127307335D01*
X219077452Y-127422544D01*
X219077455Y-127422547D01*
X219192664Y-127508793D01*
X219192671Y-127508797D01*
X219327517Y-127559091D01*
X219327516Y-127559091D01*
X219334444Y-127559835D01*
X219387127Y-127565500D01*
X220113770Y-127565499D01*
X220180809Y-127585183D01*
X220226564Y-127637987D01*
X220236508Y-127707146D01*
X220207483Y-127770702D01*
X220201451Y-127777180D01*
X218765451Y-129213181D01*
X218704128Y-129246666D01*
X218677770Y-129249500D01*
X202862230Y-129249500D01*
X202795191Y-129229815D01*
X202774549Y-129213181D01*
X197978421Y-124417052D01*
X197978414Y-124417046D01*
X197881039Y-124351983D01*
X197881038Y-124351983D01*
X197855495Y-124334916D01*
X197855493Y-124334915D01*
X197855488Y-124334912D01*
X197718917Y-124278343D01*
X197718907Y-124278340D01*
X197573920Y-124249500D01*
X197573918Y-124249500D01*
X192111790Y-124249500D01*
X192064859Y-124240276D01*
X191229137Y-123898555D01*
X190772048Y-123711654D01*
X190762692Y-123707367D01*
X190696617Y-123673699D01*
X190575029Y-123611747D01*
X190350784Y-123538886D01*
X190257814Y-123524161D01*
X190257806Y-123524160D01*
X190255706Y-123523827D01*
X190251167Y-123522948D01*
X190250406Y-123522987D01*
X190244010Y-123521974D01*
X190244009Y-123521973D01*
X190201551Y-123515249D01*
X190117899Y-123502000D01*
X190117895Y-123502000D01*
X189882105Y-123502000D01*
X189841647Y-123508408D01*
X189649216Y-123538886D01*
X189649213Y-123538886D01*
X189424970Y-123611747D01*
X189214876Y-123718796D01*
X189157932Y-123760169D01*
X189024119Y-123857390D01*
X189024117Y-123857392D01*
X189024116Y-123857392D01*
X188857392Y-124024116D01*
X188857392Y-124024117D01*
X188857390Y-124024119D01*
X188830318Y-124061381D01*
X188774988Y-124104046D01*
X188705374Y-124110025D01*
X188643579Y-124077419D01*
X188629682Y-124061381D01*
X188602610Y-124024119D01*
X188435881Y-123857390D01*
X188245123Y-123718796D01*
X188227281Y-123709705D01*
X188035029Y-123611747D01*
X187810785Y-123538886D01*
X187618353Y-123508408D01*
X187577895Y-123502000D01*
X187342105Y-123502000D01*
X187301647Y-123508408D01*
X187109216Y-123538886D01*
X187109213Y-123538886D01*
X186884970Y-123611747D01*
X186674877Y-123718795D01*
X186548046Y-123810943D01*
X186482239Y-123834422D01*
X186414185Y-123818596D01*
X186365491Y-123768490D01*
X186363898Y-123764935D01*
X186361293Y-123760164D01*
X186275047Y-123644955D01*
X186275044Y-123644952D01*
X186159835Y-123558706D01*
X186159828Y-123558702D01*
X186024982Y-123508408D01*
X186024983Y-123508408D01*
X185965383Y-123502001D01*
X185965381Y-123502000D01*
X185965373Y-123502000D01*
X185965364Y-123502000D01*
X183874629Y-123502000D01*
X183874623Y-123502001D01*
X183815016Y-123508408D01*
X183680171Y-123558702D01*
X183680164Y-123558706D01*
X183564955Y-123644952D01*
X183564952Y-123644955D01*
X183478706Y-123760164D01*
X183478702Y-123760171D01*
X183428408Y-123895017D01*
X183422001Y-123954616D01*
X183422000Y-123954635D01*
X183422000Y-126045370D01*
X183422001Y-126045376D01*
X183428408Y-126104983D01*
X183478702Y-126239828D01*
X183478706Y-126239835D01*
X183564952Y-126355044D01*
X183564955Y-126355047D01*
X183680164Y-126441293D01*
X183680171Y-126441297D01*
X183815017Y-126491591D01*
X183815016Y-126491591D01*
X183821944Y-126492335D01*
X183874627Y-126498000D01*
X185434164Y-126497999D01*
X185455409Y-126504237D01*
X185477497Y-126505817D01*
X185488280Y-126513889D01*
X185501203Y-126517684D01*
X185515702Y-126534416D01*
X185533431Y-126547688D01*
X185538138Y-126560308D01*
X185546958Y-126570487D01*
X185550109Y-126592403D01*
X185557848Y-126613152D01*
X185554984Y-126626313D01*
X185556902Y-126639646D01*
X185547702Y-126659790D01*
X185542996Y-126681425D01*
X185529726Y-126699152D01*
X185527877Y-126703202D01*
X185521850Y-126709675D01*
X185419033Y-126812493D01*
X185377973Y-126853553D01*
X185347918Y-126883608D01*
X185343510Y-126887804D01*
X185135848Y-127076017D01*
X185126442Y-127083737D01*
X184903771Y-127248882D01*
X184893653Y-127255642D01*
X184655885Y-127398155D01*
X184645153Y-127403891D01*
X184394543Y-127522422D01*
X184383301Y-127527079D01*
X184122299Y-127620468D01*
X184110653Y-127624001D01*
X183841739Y-127691360D01*
X183829805Y-127693734D01*
X183555592Y-127734411D01*
X183543482Y-127735604D01*
X183263687Y-127749351D01*
X183257602Y-127749500D01*
X167362706Y-127749500D01*
X167357579Y-127749499D01*
X167357574Y-127749499D01*
X167323946Y-127749499D01*
X167305325Y-127749499D01*
X167305287Y-127749488D01*
X167014947Y-127749488D01*
X166538151Y-127783593D01*
X166064999Y-127851624D01*
X165597918Y-127953233D01*
X165150759Y-128084534D01*
X165139265Y-128087909D01*
X165063605Y-128116129D01*
X164691383Y-128254962D01*
X164256578Y-128453532D01*
X163837035Y-128682620D01*
X163837022Y-128682628D01*
X163434922Y-128941041D01*
X163434898Y-128941058D01*
X163052234Y-129227516D01*
X162690977Y-129540547D01*
X162690966Y-129540557D01*
X162641264Y-129590259D01*
X162591562Y-129639962D01*
X162591560Y-129639964D01*
X162521971Y-129709553D01*
X162448700Y-129782823D01*
X162448697Y-129782826D01*
X161185354Y-131046171D01*
X160482829Y-131748695D01*
X160482828Y-131748697D01*
X160482827Y-131748698D01*
X160411481Y-131820044D01*
X160407573Y-131823785D01*
X160143977Y-132065324D01*
X160135690Y-132072277D01*
X159854212Y-132288263D01*
X159845351Y-132294467D01*
X159546127Y-132485095D01*
X159536759Y-132490504D01*
X159222052Y-132654330D01*
X159212248Y-132658902D01*
X158884458Y-132794678D01*
X158874293Y-132798378D01*
X158535919Y-132905068D01*
X158525470Y-132907868D01*
X158179078Y-132984663D01*
X158168425Y-132986541D01*
X157816672Y-133032852D01*
X157805896Y-133033795D01*
X157448959Y-133049382D01*
X157443549Y-133049500D01*
X154624000Y-133049500D01*
X154556961Y-133029815D01*
X154511206Y-132977011D01*
X154500000Y-132925500D01*
X154500000Y-123397648D01*
X200619500Y-123397648D01*
X200619500Y-123602351D01*
X200651522Y-123804534D01*
X200714781Y-123999223D01*
X200807715Y-124181613D01*
X200928028Y-124347213D01*
X201072786Y-124491971D01*
X201227749Y-124604556D01*
X201238390Y-124612287D01*
X201354607Y-124671503D01*
X201420776Y-124705218D01*
X201420778Y-124705218D01*
X201420781Y-124705220D01*
X201525137Y-124739127D01*
X201615465Y-124768477D01*
X201653796Y-124774548D01*
X201817648Y-124800500D01*
X201817649Y-124800500D01*
X202022351Y-124800500D01*
X202022352Y-124800500D01*
X202224534Y-124768477D01*
X202419219Y-124705220D01*
X202601610Y-124612287D01*
X202694590Y-124544732D01*
X202767213Y-124491971D01*
X202767215Y-124491968D01*
X202767219Y-124491966D01*
X202911966Y-124347219D01*
X202911968Y-124347215D01*
X202911971Y-124347213D01*
X202982962Y-124249500D01*
X203032287Y-124181610D01*
X203125220Y-123999219D01*
X203188477Y-123804534D01*
X203220500Y-123602352D01*
X203220500Y-123397648D01*
X210779500Y-123397648D01*
X210779500Y-123602351D01*
X210811522Y-123804534D01*
X210874781Y-123999223D01*
X210967715Y-124181613D01*
X211088028Y-124347213D01*
X211232786Y-124491971D01*
X211387749Y-124604556D01*
X211398390Y-124612287D01*
X211514607Y-124671503D01*
X211580776Y-124705218D01*
X211580778Y-124705218D01*
X211580781Y-124705220D01*
X211685137Y-124739127D01*
X211775465Y-124768477D01*
X211813796Y-124774548D01*
X211977648Y-124800500D01*
X211977649Y-124800500D01*
X212182351Y-124800500D01*
X212182352Y-124800500D01*
X212384534Y-124768477D01*
X212579219Y-124705220D01*
X212761610Y-124612287D01*
X212854590Y-124544732D01*
X212927213Y-124491971D01*
X212927215Y-124491968D01*
X212927219Y-124491966D01*
X213071966Y-124347219D01*
X213071968Y-124347215D01*
X213071971Y-124347213D01*
X213142962Y-124249500D01*
X213192287Y-124181610D01*
X213285220Y-123999219D01*
X213348477Y-123804534D01*
X213380500Y-123602352D01*
X213380500Y-123397648D01*
X213349072Y-123199223D01*
X213348477Y-123195465D01*
X213285218Y-123000776D01*
X213242555Y-122917046D01*
X213192287Y-122818390D01*
X213180634Y-122802351D01*
X213071971Y-122652786D01*
X212927213Y-122508028D01*
X212761613Y-122387715D01*
X212761612Y-122387714D01*
X212761610Y-122387713D01*
X212704653Y-122358691D01*
X212579223Y-122294781D01*
X212384534Y-122231522D01*
X212209995Y-122203878D01*
X212182352Y-122199500D01*
X211977648Y-122199500D01*
X211953329Y-122203351D01*
X211775465Y-122231522D01*
X211580776Y-122294781D01*
X211398386Y-122387715D01*
X211232786Y-122508028D01*
X211088028Y-122652786D01*
X210967715Y-122818386D01*
X210874781Y-123000776D01*
X210811522Y-123195465D01*
X210779500Y-123397648D01*
X203220500Y-123397648D01*
X203189072Y-123199223D01*
X203188477Y-123195465D01*
X203125218Y-123000776D01*
X203082555Y-122917046D01*
X203032287Y-122818390D01*
X203020634Y-122802351D01*
X202911971Y-122652786D01*
X202767213Y-122508028D01*
X202601613Y-122387715D01*
X202601612Y-122387714D01*
X202601610Y-122387713D01*
X202544653Y-122358691D01*
X202419223Y-122294781D01*
X202224534Y-122231522D01*
X202049995Y-122203878D01*
X202022352Y-122199500D01*
X201817648Y-122199500D01*
X201793329Y-122203351D01*
X201615465Y-122231522D01*
X201420776Y-122294781D01*
X201238386Y-122387715D01*
X201072786Y-122508028D01*
X200928028Y-122652786D01*
X200807715Y-122818386D01*
X200714781Y-123000776D01*
X200651522Y-123195465D01*
X200619500Y-123397648D01*
X154500000Y-123397648D01*
X154500000Y-119929537D01*
X154519685Y-119862498D01*
X154549688Y-119830271D01*
X154580046Y-119807546D01*
X154666296Y-119692331D01*
X154716591Y-119557483D01*
X154723000Y-119497873D01*
X154722999Y-117902128D01*
X154716591Y-117842517D01*
X154699739Y-117797335D01*
X154666297Y-117707671D01*
X154666293Y-117707664D01*
X154580048Y-117592457D01*
X154580046Y-117592454D01*
X154580044Y-117592452D01*
X154580042Y-117592450D01*
X154549688Y-117569727D01*
X154507817Y-117513792D01*
X154500000Y-117470461D01*
X154500000Y-117202135D01*
X165524500Y-117202135D01*
X165524500Y-119247870D01*
X165524501Y-119247876D01*
X165530908Y-119307483D01*
X165581202Y-119442328D01*
X165581206Y-119442335D01*
X165667452Y-119557544D01*
X165667455Y-119557547D01*
X165782664Y-119643793D01*
X165782671Y-119643797D01*
X165917517Y-119694091D01*
X165917516Y-119694091D01*
X165924444Y-119694835D01*
X165977127Y-119700500D01*
X168022872Y-119700499D01*
X168082483Y-119694091D01*
X168217331Y-119643796D01*
X168332546Y-119557546D01*
X168418796Y-119442331D01*
X168469091Y-119307483D01*
X168475500Y-119247873D01*
X168475499Y-118664945D01*
X218934499Y-118664945D01*
X218975445Y-118870789D01*
X218975447Y-118870795D01*
X219055765Y-119064701D01*
X219172373Y-119239218D01*
X219320781Y-119387626D01*
X219495298Y-119504234D01*
X219592251Y-119544393D01*
X219689205Y-119584553D01*
X219689209Y-119584553D01*
X219689210Y-119584554D01*
X219895054Y-119625500D01*
X219895057Y-119625500D01*
X220104945Y-119625500D01*
X220243433Y-119597952D01*
X220310795Y-119584553D01*
X220504703Y-119504233D01*
X220679216Y-119387628D01*
X220827628Y-119239216D01*
X220944233Y-119064703D01*
X221024553Y-118870795D01*
X221065500Y-118664945D01*
X221474499Y-118664945D01*
X221515445Y-118870789D01*
X221515447Y-118870795D01*
X221595765Y-119064701D01*
X221712373Y-119239218D01*
X221860781Y-119387626D01*
X222035298Y-119504234D01*
X222132251Y-119544393D01*
X222229205Y-119584553D01*
X222229209Y-119584553D01*
X222229210Y-119584554D01*
X222435054Y-119625500D01*
X222435057Y-119625500D01*
X222644945Y-119625500D01*
X222783433Y-119597952D01*
X222850795Y-119584553D01*
X223044703Y-119504233D01*
X223219216Y-119387628D01*
X223367628Y-119239216D01*
X223484233Y-119064703D01*
X223564553Y-118870795D01*
X223605500Y-118664945D01*
X224014499Y-118664945D01*
X224055445Y-118870789D01*
X224055447Y-118870795D01*
X224135765Y-119064701D01*
X224252373Y-119239218D01*
X224400781Y-119387626D01*
X224575298Y-119504234D01*
X224672251Y-119544393D01*
X224769205Y-119584553D01*
X224769209Y-119584553D01*
X224769210Y-119584554D01*
X224975054Y-119625500D01*
X224975057Y-119625500D01*
X225184945Y-119625500D01*
X225323433Y-119597952D01*
X225390795Y-119584553D01*
X225584703Y-119504233D01*
X225759216Y-119387628D01*
X225907628Y-119239216D01*
X226024233Y-119064703D01*
X226104553Y-118870795D01*
X226145500Y-118664945D01*
X226554499Y-118664945D01*
X226595445Y-118870789D01*
X226595447Y-118870795D01*
X226675765Y-119064701D01*
X226792373Y-119239218D01*
X226940781Y-119387626D01*
X227115298Y-119504234D01*
X227212251Y-119544393D01*
X227309205Y-119584553D01*
X227309209Y-119584553D01*
X227309210Y-119584554D01*
X227515054Y-119625500D01*
X227515057Y-119625500D01*
X227724945Y-119625500D01*
X227863433Y-119597952D01*
X227930795Y-119584553D01*
X228124703Y-119504233D01*
X228299216Y-119387628D01*
X228447628Y-119239216D01*
X228564233Y-119064703D01*
X228644553Y-118870795D01*
X228685500Y-118664943D01*
X228685500Y-118455057D01*
X228685500Y-118455054D01*
X228644554Y-118249210D01*
X228644553Y-118249209D01*
X228644553Y-118249205D01*
X228590711Y-118119219D01*
X228564234Y-118055298D01*
X228447626Y-117880781D01*
X228299218Y-117732373D01*
X228124701Y-117615765D01*
X227930795Y-117535447D01*
X227930789Y-117535445D01*
X227724945Y-117494500D01*
X227724943Y-117494500D01*
X227515057Y-117494500D01*
X227515055Y-117494500D01*
X227309210Y-117535445D01*
X227309204Y-117535447D01*
X227115298Y-117615765D01*
X226940781Y-117732373D01*
X226792373Y-117880781D01*
X226675765Y-118055298D01*
X226595447Y-118249204D01*
X226595445Y-118249210D01*
X226554500Y-118455054D01*
X226554500Y-118455057D01*
X226554500Y-118664943D01*
X226554500Y-118664945D01*
X226554499Y-118664945D01*
X226145500Y-118664945D01*
X226145500Y-118664943D01*
X226145500Y-118455057D01*
X226145500Y-118455054D01*
X226104554Y-118249210D01*
X226104553Y-118249209D01*
X226104553Y-118249205D01*
X226050711Y-118119219D01*
X226024234Y-118055298D01*
X225907626Y-117880781D01*
X225759218Y-117732373D01*
X225584701Y-117615765D01*
X225390795Y-117535447D01*
X225390789Y-117535445D01*
X225184945Y-117494500D01*
X225184943Y-117494500D01*
X224975057Y-117494500D01*
X224975055Y-117494500D01*
X224769210Y-117535445D01*
X224769204Y-117535447D01*
X224575298Y-117615765D01*
X224400781Y-117732373D01*
X224252373Y-117880781D01*
X224135765Y-118055298D01*
X224055447Y-118249204D01*
X224055445Y-118249210D01*
X224014500Y-118455054D01*
X224014500Y-118455057D01*
X224014500Y-118664943D01*
X224014500Y-118664945D01*
X224014499Y-118664945D01*
X223605500Y-118664945D01*
X223605500Y-118664943D01*
X223605500Y-118455057D01*
X223605500Y-118455054D01*
X223564554Y-118249210D01*
X223564553Y-118249209D01*
X223564553Y-118249205D01*
X223510711Y-118119219D01*
X223484234Y-118055298D01*
X223367626Y-117880781D01*
X223219218Y-117732373D01*
X223044701Y-117615765D01*
X222850795Y-117535447D01*
X222850789Y-117535445D01*
X222644945Y-117494500D01*
X222644943Y-117494500D01*
X222435057Y-117494500D01*
X222435055Y-117494500D01*
X222229210Y-117535445D01*
X222229204Y-117535447D01*
X222035298Y-117615765D01*
X221860781Y-117732373D01*
X221712373Y-117880781D01*
X221595765Y-118055298D01*
X221515447Y-118249204D01*
X221515445Y-118249210D01*
X221474500Y-118455054D01*
X221474500Y-118455057D01*
X221474500Y-118664943D01*
X221474500Y-118664945D01*
X221474499Y-118664945D01*
X221065500Y-118664945D01*
X221065500Y-118664943D01*
X221065500Y-118455057D01*
X221065500Y-118455054D01*
X221024554Y-118249210D01*
X221024553Y-118249209D01*
X221024553Y-118249205D01*
X220970711Y-118119219D01*
X220944234Y-118055298D01*
X220827626Y-117880781D01*
X220679218Y-117732373D01*
X220504701Y-117615765D01*
X220310795Y-117535447D01*
X220310789Y-117535445D01*
X220104945Y-117494500D01*
X220104943Y-117494500D01*
X219895057Y-117494500D01*
X219895055Y-117494500D01*
X219689210Y-117535445D01*
X219689204Y-117535447D01*
X219495298Y-117615765D01*
X219320781Y-117732373D01*
X219172373Y-117880781D01*
X219055765Y-118055298D01*
X218975447Y-118249204D01*
X218975445Y-118249210D01*
X218934500Y-118455054D01*
X218934500Y-118455057D01*
X218934500Y-118664943D01*
X218934500Y-118664945D01*
X218934499Y-118664945D01*
X168475499Y-118664945D01*
X168475499Y-118119223D01*
X168475499Y-117202129D01*
X168475498Y-117202123D01*
X168475497Y-117202116D01*
X168469091Y-117142517D01*
X168418796Y-117007669D01*
X168418795Y-117007668D01*
X168418793Y-117007664D01*
X168332547Y-116892455D01*
X168332544Y-116892452D01*
X168217335Y-116806206D01*
X168217328Y-116806202D01*
X168082482Y-116755908D01*
X168082483Y-116755908D01*
X168022883Y-116749501D01*
X168022881Y-116749500D01*
X168022873Y-116749500D01*
X168022864Y-116749500D01*
X165977129Y-116749500D01*
X165977123Y-116749501D01*
X165917516Y-116755908D01*
X165782671Y-116806202D01*
X165782664Y-116806206D01*
X165667455Y-116892452D01*
X165667452Y-116892455D01*
X165581206Y-117007664D01*
X165581202Y-117007671D01*
X165530908Y-117142517D01*
X165524501Y-117202116D01*
X165524501Y-117202123D01*
X165524500Y-117202135D01*
X154500000Y-117202135D01*
X154500000Y-115557135D01*
X242524500Y-115557135D01*
X242524500Y-117602870D01*
X242524501Y-117602876D01*
X242530908Y-117662483D01*
X242581202Y-117797328D01*
X242581206Y-117797335D01*
X242667452Y-117912544D01*
X242667455Y-117912547D01*
X242782664Y-117998793D01*
X242782671Y-117998797D01*
X242917517Y-118049091D01*
X242917516Y-118049091D01*
X242924444Y-118049835D01*
X242977127Y-118055500D01*
X245022872Y-118055499D01*
X245082483Y-118049091D01*
X245217331Y-117998796D01*
X245332546Y-117912546D01*
X245418796Y-117797331D01*
X245469091Y-117662483D01*
X245475500Y-117602873D01*
X245475499Y-115557128D01*
X245469091Y-115497517D01*
X245418796Y-115362669D01*
X245418795Y-115362668D01*
X245418793Y-115362664D01*
X245332547Y-115247455D01*
X245332544Y-115247452D01*
X245217335Y-115161206D01*
X245217328Y-115161202D01*
X245082482Y-115110908D01*
X245082483Y-115110908D01*
X245022883Y-115104501D01*
X245022881Y-115104500D01*
X245022873Y-115104500D01*
X245022864Y-115104500D01*
X242977129Y-115104500D01*
X242977123Y-115104501D01*
X242917516Y-115110908D01*
X242782671Y-115161202D01*
X242782664Y-115161206D01*
X242667455Y-115247452D01*
X242667452Y-115247455D01*
X242581206Y-115362664D01*
X242581202Y-115362671D01*
X242530908Y-115497517D01*
X242524501Y-115557116D01*
X242524501Y-115557123D01*
X242524500Y-115557135D01*
X154500000Y-115557135D01*
X154500000Y-114529537D01*
X154519685Y-114462498D01*
X154549688Y-114430271D01*
X154580046Y-114407546D01*
X154666296Y-114292331D01*
X154716591Y-114157483D01*
X154723000Y-114097873D01*
X154722999Y-113028870D01*
X165524500Y-113028870D01*
X165524500Y-113261129D01*
X165560831Y-113490514D01*
X165632601Y-113711400D01*
X165719245Y-113881446D01*
X165738039Y-113918331D01*
X165874551Y-114106224D01*
X166038776Y-114270449D01*
X166226669Y-114406961D01*
X166324436Y-114456776D01*
X166433599Y-114512398D01*
X166433601Y-114512398D01*
X166433604Y-114512400D01*
X166654486Y-114584169D01*
X166772668Y-114602886D01*
X166883871Y-114620500D01*
X166883876Y-114620500D01*
X167116129Y-114620500D01*
X167217502Y-114604443D01*
X167345514Y-114584169D01*
X167566396Y-114512400D01*
X167773331Y-114406961D01*
X167961224Y-114270449D01*
X168125449Y-114106224D01*
X168261961Y-113918331D01*
X168367400Y-113711396D01*
X168439169Y-113490514D01*
X168459443Y-113362502D01*
X168475500Y-113261129D01*
X168475500Y-113028870D01*
X168449925Y-112867398D01*
X168439169Y-112799486D01*
X168367400Y-112578604D01*
X168367398Y-112578601D01*
X168367398Y-112578599D01*
X168261960Y-112371668D01*
X168253403Y-112359890D01*
X168125449Y-112183776D01*
X167961224Y-112019551D01*
X167773331Y-111883039D01*
X167724947Y-111858386D01*
X167566400Y-111777601D01*
X167345514Y-111705831D01*
X167116129Y-111669500D01*
X167116124Y-111669500D01*
X166883876Y-111669500D01*
X166883871Y-111669500D01*
X166654485Y-111705831D01*
X166433599Y-111777601D01*
X166226668Y-111883039D01*
X166038773Y-112019553D01*
X165874553Y-112183773D01*
X165738039Y-112371668D01*
X165632601Y-112578599D01*
X165560831Y-112799485D01*
X165524500Y-113028870D01*
X154722999Y-113028870D01*
X154722999Y-112502128D01*
X154716591Y-112442517D01*
X154690166Y-112371669D01*
X154666297Y-112307671D01*
X154666293Y-112307664D01*
X154580048Y-112192457D01*
X154580046Y-112192454D01*
X154580044Y-112192452D01*
X154580042Y-112192450D01*
X154549688Y-112169727D01*
X154507817Y-112113792D01*
X154500000Y-112070461D01*
X154500000Y-111383870D01*
X242524500Y-111383870D01*
X242524500Y-111616129D01*
X242560831Y-111845514D01*
X242632601Y-112066400D01*
X242718745Y-112235465D01*
X242738039Y-112273331D01*
X242874551Y-112461224D01*
X243038776Y-112625449D01*
X243226669Y-112761961D01*
X243300314Y-112799485D01*
X243433599Y-112867398D01*
X243433601Y-112867398D01*
X243433604Y-112867400D01*
X243654486Y-112939169D01*
X243772668Y-112957886D01*
X243883871Y-112975500D01*
X243883876Y-112975500D01*
X244116129Y-112975500D01*
X244217502Y-112959443D01*
X244345514Y-112939169D01*
X244566396Y-112867400D01*
X244773331Y-112761961D01*
X244961224Y-112625449D01*
X245125449Y-112461224D01*
X245261961Y-112273331D01*
X245367400Y-112066396D01*
X245439169Y-111845514D01*
X245463359Y-111692781D01*
X245475500Y-111616129D01*
X245475500Y-111383870D01*
X245456232Y-111262222D01*
X245439169Y-111154486D01*
X245367400Y-110933604D01*
X245367398Y-110933601D01*
X245367398Y-110933599D01*
X245261960Y-110726668D01*
X245229226Y-110681613D01*
X245125449Y-110538776D01*
X244961224Y-110374551D01*
X244773331Y-110238039D01*
X244684924Y-110192993D01*
X244566400Y-110132601D01*
X244345514Y-110060831D01*
X244116129Y-110024500D01*
X244116124Y-110024500D01*
X243883876Y-110024500D01*
X243883871Y-110024500D01*
X243654485Y-110060831D01*
X243433599Y-110132601D01*
X243226668Y-110238039D01*
X243038773Y-110374553D01*
X242874553Y-110538773D01*
X242738039Y-110726668D01*
X242632601Y-110933599D01*
X242560831Y-111154485D01*
X242524500Y-111383870D01*
X154500000Y-111383870D01*
X154500000Y-106303870D01*
X242524500Y-106303870D01*
X242524500Y-106536129D01*
X242560831Y-106765514D01*
X242632601Y-106986400D01*
X242718745Y-107155465D01*
X242738039Y-107193331D01*
X242874551Y-107381224D01*
X243038776Y-107545449D01*
X243226669Y-107681961D01*
X243324436Y-107731776D01*
X243433599Y-107787398D01*
X243433601Y-107787398D01*
X243433604Y-107787400D01*
X243654486Y-107859169D01*
X243772668Y-107877886D01*
X243883871Y-107895500D01*
X243883876Y-107895500D01*
X244116129Y-107895500D01*
X244217502Y-107879443D01*
X244345514Y-107859169D01*
X244566396Y-107787400D01*
X244773331Y-107681961D01*
X244961224Y-107545449D01*
X245125449Y-107381224D01*
X245261961Y-107193331D01*
X245367400Y-106986396D01*
X245439169Y-106765514D01*
X245463359Y-106612781D01*
X245475500Y-106536129D01*
X245475500Y-106303870D01*
X245456232Y-106182222D01*
X245439169Y-106074486D01*
X245367400Y-105853604D01*
X245367398Y-105853601D01*
X245367398Y-105853599D01*
X245261960Y-105646668D01*
X245229226Y-105601613D01*
X245125449Y-105458776D01*
X244961224Y-105294551D01*
X244773331Y-105158039D01*
X244684924Y-105112993D01*
X244566400Y-105052601D01*
X244345514Y-104980831D01*
X244116129Y-104944500D01*
X244116124Y-104944500D01*
X243883876Y-104944500D01*
X243883871Y-104944500D01*
X243654485Y-104980831D01*
X243433599Y-105052601D01*
X243226668Y-105158039D01*
X243038773Y-105294553D01*
X242874553Y-105458773D01*
X242738039Y-105646668D01*
X242632601Y-105853599D01*
X242560831Y-106074485D01*
X242524500Y-106303870D01*
X154500000Y-106303870D01*
X154500000Y-105974500D01*
X154519685Y-105907461D01*
X154572489Y-105861706D01*
X154617314Y-105851954D01*
X154617237Y-105850766D01*
X154621282Y-105850500D01*
X154621288Y-105850500D01*
X154861789Y-105818838D01*
X155096100Y-105756054D01*
X155320212Y-105663224D01*
X155530289Y-105541936D01*
X155722738Y-105394265D01*
X155894265Y-105222738D01*
X156041936Y-105030289D01*
X156163224Y-104820212D01*
X156256054Y-104596100D01*
X156318838Y-104361789D01*
X156350500Y-104121288D01*
X156350500Y-104121282D01*
X156350766Y-104117237D01*
X156352453Y-104117347D01*
X156370185Y-104056961D01*
X156422989Y-104011206D01*
X156474500Y-104000000D01*
X234500000Y-104000000D01*
X234500000Y-101223870D01*
X242524500Y-101223870D01*
X242524500Y-101456129D01*
X242560831Y-101685514D01*
X242632601Y-101906400D01*
X242718745Y-102075465D01*
X242738039Y-102113331D01*
X242874551Y-102301224D01*
X243038776Y-102465449D01*
X243226669Y-102601961D01*
X243324436Y-102651776D01*
X243433599Y-102707398D01*
X243433601Y-102707398D01*
X243433604Y-102707400D01*
X243654486Y-102779169D01*
X243772668Y-102797886D01*
X243883871Y-102815500D01*
X243883876Y-102815500D01*
X244116129Y-102815500D01*
X244217502Y-102799443D01*
X244345514Y-102779169D01*
X244566396Y-102707400D01*
X244773331Y-102601961D01*
X244961224Y-102465449D01*
X245125449Y-102301224D01*
X245261961Y-102113331D01*
X245367400Y-101906396D01*
X245439169Y-101685514D01*
X245463462Y-101532135D01*
X257199500Y-101532135D01*
X257199500Y-103227870D01*
X257199501Y-103227876D01*
X257205908Y-103287483D01*
X257256202Y-103422328D01*
X257256206Y-103422335D01*
X257342452Y-103537544D01*
X257342455Y-103537547D01*
X257457664Y-103623793D01*
X257457671Y-103623797D01*
X257496318Y-103638211D01*
X257592517Y-103674091D01*
X257629441Y-103678060D01*
X257693989Y-103704796D01*
X257733838Y-103762188D01*
X257736333Y-103832013D01*
X257700681Y-103892102D01*
X257689071Y-103901666D01*
X257652784Y-103928030D01*
X257508028Y-104072786D01*
X257387715Y-104238386D01*
X257294781Y-104420776D01*
X257231522Y-104615465D01*
X257199500Y-104817648D01*
X257199500Y-105022351D01*
X257231522Y-105224534D01*
X257294781Y-105419223D01*
X257387715Y-105601613D01*
X257508028Y-105767213D01*
X257652786Y-105911971D01*
X257738852Y-105974500D01*
X257818390Y-106032287D01*
X257901208Y-106074485D01*
X257911080Y-106079515D01*
X257961876Y-106127490D01*
X257978671Y-106195311D01*
X257956134Y-106261446D01*
X257911080Y-106300485D01*
X257818386Y-106347715D01*
X257652786Y-106468028D01*
X257508028Y-106612786D01*
X257387715Y-106778386D01*
X257294781Y-106960776D01*
X257231522Y-107155465D01*
X257199500Y-107357648D01*
X257199500Y-107562351D01*
X257231522Y-107764534D01*
X257294781Y-107959223D01*
X257387715Y-108141613D01*
X257508028Y-108307213D01*
X257652786Y-108451971D01*
X257807749Y-108564556D01*
X257818390Y-108572287D01*
X257890424Y-108608990D01*
X257911629Y-108619795D01*
X257962425Y-108667770D01*
X257979220Y-108735591D01*
X257956682Y-108801726D01*
X257911629Y-108840765D01*
X257818650Y-108888140D01*
X257653105Y-109008417D01*
X257653104Y-109008417D01*
X257508417Y-109153104D01*
X257508417Y-109153105D01*
X257388140Y-109318650D01*
X257295244Y-109500970D01*
X257232009Y-109695586D01*
X257223391Y-109750000D01*
X258066988Y-109750000D01*
X258034075Y-109807007D01*
X258000000Y-109934174D01*
X258000000Y-110065826D01*
X258034075Y-110192993D01*
X258066988Y-110250000D01*
X257223391Y-110250000D01*
X257232009Y-110304413D01*
X257295244Y-110499029D01*
X257388140Y-110681349D01*
X257508417Y-110846894D01*
X257508417Y-110846895D01*
X257653104Y-110991582D01*
X257818652Y-111111861D01*
X257911628Y-111159234D01*
X257962425Y-111207208D01*
X257979220Y-111275029D01*
X257956683Y-111341164D01*
X257911630Y-111380203D01*
X257818388Y-111427713D01*
X257652786Y-111548028D01*
X257508028Y-111692786D01*
X257387715Y-111858386D01*
X257294781Y-112040776D01*
X257231522Y-112235465D01*
X257199500Y-112437648D01*
X257199500Y-112642351D01*
X257231522Y-112844534D01*
X257294781Y-113039223D01*
X257387715Y-113221613D01*
X257508028Y-113387213D01*
X257652786Y-113531971D01*
X257807749Y-113644556D01*
X257818390Y-113652287D01*
X257909840Y-113698883D01*
X257911080Y-113699515D01*
X257961876Y-113747490D01*
X257978671Y-113815311D01*
X257956134Y-113881446D01*
X257911080Y-113920485D01*
X257818386Y-113967715D01*
X257652786Y-114088028D01*
X257508028Y-114232786D01*
X257387715Y-114398386D01*
X257294781Y-114580776D01*
X257231522Y-114775465D01*
X257199500Y-114977648D01*
X257199500Y-115182351D01*
X257231522Y-115384534D01*
X257294781Y-115579223D01*
X257387715Y-115761613D01*
X257508028Y-115927213D01*
X257652786Y-116071971D01*
X257807749Y-116184556D01*
X257818390Y-116192287D01*
X257909840Y-116238883D01*
X257911080Y-116239515D01*
X257961876Y-116287490D01*
X257978671Y-116355311D01*
X257956134Y-116421446D01*
X257911080Y-116460485D01*
X257818386Y-116507715D01*
X257652786Y-116628028D01*
X257508028Y-116772786D01*
X257387715Y-116938386D01*
X257294781Y-117120776D01*
X257231522Y-117315465D01*
X257199500Y-117517648D01*
X257199500Y-117722351D01*
X257231522Y-117924534D01*
X257294781Y-118119223D01*
X257387715Y-118301613D01*
X257508028Y-118467213D01*
X257652786Y-118611971D01*
X257807749Y-118724556D01*
X257818390Y-118732287D01*
X257909840Y-118778883D01*
X257911080Y-118779515D01*
X257961876Y-118827490D01*
X257978671Y-118895311D01*
X257956134Y-118961446D01*
X257911080Y-119000485D01*
X257818386Y-119047715D01*
X257652786Y-119168028D01*
X257508028Y-119312786D01*
X257387715Y-119478386D01*
X257294781Y-119660776D01*
X257231522Y-119855465D01*
X257199500Y-120057648D01*
X257199500Y-120262351D01*
X257231522Y-120464534D01*
X257294781Y-120659223D01*
X257387715Y-120841613D01*
X257508028Y-121007213D01*
X257652786Y-121151971D01*
X257807749Y-121264556D01*
X257818390Y-121272287D01*
X257909840Y-121318883D01*
X257911080Y-121319515D01*
X257961876Y-121367490D01*
X257978671Y-121435311D01*
X257956134Y-121501446D01*
X257911080Y-121540485D01*
X257818386Y-121587715D01*
X257652786Y-121708028D01*
X257508028Y-121852786D01*
X257387715Y-122018386D01*
X257294781Y-122200776D01*
X257231522Y-122395465D01*
X257199500Y-122597648D01*
X257199500Y-122802351D01*
X257231522Y-123004534D01*
X257294781Y-123199223D01*
X257387715Y-123381613D01*
X257508028Y-123547213D01*
X257652786Y-123691971D01*
X257758108Y-123768490D01*
X257818390Y-123812287D01*
X257906913Y-123857392D01*
X257911080Y-123859515D01*
X257961876Y-123907490D01*
X257978671Y-123975311D01*
X257956134Y-124041446D01*
X257911080Y-124080485D01*
X257818386Y-124127715D01*
X257652786Y-124248028D01*
X257508028Y-124392786D01*
X257387715Y-124558386D01*
X257294781Y-124740776D01*
X257231522Y-124935465D01*
X257199500Y-125137648D01*
X257199500Y-125342351D01*
X257231522Y-125544534D01*
X257294781Y-125739223D01*
X257339770Y-125827517D01*
X257370137Y-125887116D01*
X257387715Y-125921613D01*
X257508028Y-126087213D01*
X257652786Y-126231971D01*
X257736274Y-126292627D01*
X257818390Y-126352287D01*
X257909840Y-126398883D01*
X257911080Y-126399515D01*
X257961876Y-126447490D01*
X257978671Y-126515311D01*
X257956134Y-126581446D01*
X257911080Y-126620485D01*
X257818386Y-126667715D01*
X257652786Y-126788028D01*
X257508028Y-126932786D01*
X257387715Y-127098386D01*
X257294781Y-127280776D01*
X257231522Y-127475465D01*
X257199500Y-127677648D01*
X257199500Y-127882352D01*
X257202200Y-127899401D01*
X257231522Y-128084534D01*
X257294781Y-128279223D01*
X257387715Y-128461613D01*
X257508028Y-128627213D01*
X257652786Y-128771971D01*
X257807749Y-128884556D01*
X257818390Y-128892287D01*
X257909840Y-128938883D01*
X257911080Y-128939515D01*
X257961876Y-128987490D01*
X257978671Y-129055311D01*
X257956134Y-129121446D01*
X257911080Y-129160485D01*
X257818386Y-129207715D01*
X257652786Y-129328028D01*
X257508028Y-129472786D01*
X257387715Y-129638386D01*
X257294781Y-129820776D01*
X257231522Y-130015465D01*
X257199500Y-130217648D01*
X257199500Y-130422351D01*
X257231523Y-130624534D01*
X257231522Y-130624534D01*
X257294781Y-130819223D01*
X257387715Y-131001613D01*
X257508028Y-131167213D01*
X257652786Y-131311971D01*
X257807749Y-131424556D01*
X257818390Y-131432287D01*
X257904621Y-131476224D01*
X257911080Y-131479515D01*
X257961876Y-131527490D01*
X257978671Y-131595311D01*
X257956134Y-131661446D01*
X257911080Y-131700485D01*
X257818386Y-131747715D01*
X257652786Y-131868028D01*
X257508028Y-132012786D01*
X257387715Y-132178386D01*
X257294781Y-132360776D01*
X257231522Y-132555465D01*
X257199500Y-132757648D01*
X257199500Y-132962351D01*
X257231522Y-133164534D01*
X257294781Y-133359223D01*
X257358691Y-133484653D01*
X257375263Y-133517176D01*
X257387715Y-133541613D01*
X257508028Y-133707213D01*
X257652786Y-133851971D01*
X257807749Y-133964556D01*
X257818390Y-133972287D01*
X257909840Y-134018883D01*
X257911080Y-134019515D01*
X257961876Y-134067490D01*
X257978671Y-134135311D01*
X257956134Y-134201446D01*
X257911080Y-134240485D01*
X257818386Y-134287715D01*
X257652786Y-134408028D01*
X257508028Y-134552786D01*
X257387715Y-134718386D01*
X257294781Y-134900776D01*
X257231522Y-135095465D01*
X257199500Y-135297648D01*
X257199500Y-135502351D01*
X257231522Y-135704534D01*
X257294781Y-135899223D01*
X257358691Y-136024653D01*
X257384850Y-136075992D01*
X257387715Y-136081613D01*
X257508028Y-136247213D01*
X257652786Y-136391971D01*
X257790420Y-136491966D01*
X257818390Y-136512287D01*
X257909840Y-136558883D01*
X257911080Y-136559515D01*
X257961876Y-136607490D01*
X257978671Y-136675311D01*
X257956134Y-136741446D01*
X257911080Y-136780485D01*
X257818386Y-136827715D01*
X257652786Y-136948028D01*
X257508028Y-137092786D01*
X257387715Y-137258386D01*
X257294781Y-137440776D01*
X257231522Y-137635465D01*
X257199500Y-137837648D01*
X257199500Y-138042351D01*
X257231522Y-138244534D01*
X257294781Y-138439223D01*
X257387715Y-138621613D01*
X257508028Y-138787213D01*
X257652786Y-138931971D01*
X257757472Y-139008028D01*
X257818390Y-139052287D01*
X257934607Y-139111503D01*
X258000776Y-139145218D01*
X258000778Y-139145218D01*
X258000781Y-139145220D01*
X258105137Y-139179127D01*
X258195465Y-139208477D01*
X258296557Y-139224488D01*
X258397648Y-139240500D01*
X258397649Y-139240500D01*
X258602351Y-139240500D01*
X258602352Y-139240500D01*
X258804534Y-139208477D01*
X258999219Y-139145220D01*
X259181610Y-139052287D01*
X259274590Y-138984732D01*
X259347213Y-138931971D01*
X259347215Y-138931968D01*
X259347219Y-138931966D01*
X259491966Y-138787219D01*
X259491968Y-138787215D01*
X259491971Y-138787213D01*
X259555697Y-138699500D01*
X259612287Y-138621610D01*
X259705220Y-138439219D01*
X259768477Y-138244534D01*
X259800500Y-138042352D01*
X259800500Y-137837648D01*
X259768477Y-137635466D01*
X259748479Y-137573920D01*
X259705218Y-137440776D01*
X259671503Y-137374607D01*
X259612287Y-137258390D01*
X259588356Y-137225451D01*
X259491971Y-137092786D01*
X259347213Y-136948028D01*
X259181614Y-136827715D01*
X259175006Y-136824348D01*
X259088917Y-136780483D01*
X259038123Y-136732511D01*
X259021328Y-136664690D01*
X259043865Y-136598555D01*
X259088917Y-136559516D01*
X259181610Y-136512287D01*
X259229474Y-136477512D01*
X259347213Y-136391971D01*
X259347215Y-136391968D01*
X259347219Y-136391966D01*
X259491966Y-136247219D01*
X259491968Y-136247215D01*
X259491971Y-136247213D01*
X259544732Y-136174590D01*
X259612287Y-136081610D01*
X259705220Y-135899219D01*
X259768477Y-135704534D01*
X259800500Y-135502352D01*
X259800500Y-135297648D01*
X259776552Y-135146446D01*
X259768477Y-135095465D01*
X259705218Y-134900776D01*
X259671503Y-134834607D01*
X259612287Y-134718390D01*
X259604556Y-134707749D01*
X259491971Y-134552786D01*
X259347213Y-134408028D01*
X259181614Y-134287715D01*
X259161248Y-134277338D01*
X259088917Y-134240483D01*
X259038123Y-134192511D01*
X259021328Y-134124690D01*
X259043865Y-134058555D01*
X259088917Y-134019516D01*
X259181610Y-133972287D01*
X259202770Y-133956913D01*
X259347213Y-133851971D01*
X259347215Y-133851968D01*
X259347219Y-133851966D01*
X259491966Y-133707219D01*
X259491968Y-133707215D01*
X259491971Y-133707213D01*
X259544732Y-133634590D01*
X259612287Y-133541610D01*
X259705220Y-133359219D01*
X259768477Y-133164534D01*
X259800500Y-132962352D01*
X259800500Y-132757648D01*
X259768477Y-132555466D01*
X259705220Y-132360781D01*
X259705218Y-132360778D01*
X259705218Y-132360776D01*
X259668270Y-132288263D01*
X259612287Y-132178390D01*
X259604556Y-132167749D01*
X259491971Y-132012786D01*
X259347213Y-131868028D01*
X259181614Y-131747715D01*
X259175006Y-131744348D01*
X259088917Y-131700483D01*
X259038123Y-131652511D01*
X259021328Y-131584690D01*
X259043865Y-131518555D01*
X259088917Y-131479516D01*
X259181610Y-131432287D01*
X259202770Y-131416913D01*
X259347213Y-131311971D01*
X259347215Y-131311968D01*
X259347219Y-131311966D01*
X259491966Y-131167219D01*
X259491968Y-131167215D01*
X259491971Y-131167213D01*
X259579911Y-131046172D01*
X259612287Y-131001610D01*
X259705220Y-130819219D01*
X259768477Y-130624534D01*
X259800500Y-130422352D01*
X259800500Y-130217648D01*
X259773936Y-130049931D01*
X259768477Y-130015465D01*
X259705218Y-129820776D01*
X259648546Y-129709553D01*
X259612287Y-129638390D01*
X259604556Y-129627749D01*
X259491971Y-129472786D01*
X259347213Y-129328028D01*
X259181614Y-129207715D01*
X259143180Y-129188132D01*
X259088917Y-129160483D01*
X259038123Y-129112511D01*
X259021328Y-129044690D01*
X259043865Y-128978555D01*
X259088917Y-128939516D01*
X259181610Y-128892287D01*
X259300868Y-128805642D01*
X259347213Y-128771971D01*
X259347215Y-128771968D01*
X259347219Y-128771966D01*
X259491966Y-128627219D01*
X259491968Y-128627215D01*
X259491971Y-128627213D01*
X259544732Y-128554590D01*
X259612287Y-128461610D01*
X259705220Y-128279219D01*
X259768477Y-128084534D01*
X259800500Y-127882352D01*
X259800500Y-127677648D01*
X259768477Y-127475466D01*
X259762746Y-127457829D01*
X259731179Y-127360676D01*
X259705220Y-127280781D01*
X259705218Y-127280778D01*
X259705218Y-127280776D01*
X259650039Y-127172483D01*
X259612287Y-127098390D01*
X259588858Y-127066142D01*
X259491971Y-126932786D01*
X259347213Y-126788028D01*
X259181614Y-126667715D01*
X259124111Y-126638416D01*
X259088917Y-126620483D01*
X259038123Y-126572511D01*
X259021328Y-126504690D01*
X259043865Y-126438555D01*
X259088917Y-126399516D01*
X259181610Y-126352287D01*
X259263726Y-126292627D01*
X259347213Y-126231971D01*
X259347215Y-126231968D01*
X259347219Y-126231966D01*
X259491966Y-126087219D01*
X259491968Y-126087215D01*
X259491971Y-126087213D01*
X259558578Y-125995535D01*
X259612287Y-125921610D01*
X259705220Y-125739219D01*
X259768477Y-125544534D01*
X259800500Y-125342352D01*
X259800500Y-125137648D01*
X259768477Y-124935466D01*
X259705220Y-124740781D01*
X259705218Y-124740778D01*
X259705218Y-124740776D01*
X259671503Y-124674607D01*
X259612287Y-124558390D01*
X259604556Y-124547749D01*
X259491971Y-124392786D01*
X259347213Y-124248028D01*
X259181614Y-124127715D01*
X259135161Y-124104046D01*
X259088917Y-124080483D01*
X259038123Y-124032511D01*
X259021328Y-123964690D01*
X259043865Y-123898555D01*
X259088917Y-123859516D01*
X259181610Y-123812287D01*
X259253352Y-123760164D01*
X259347213Y-123691971D01*
X259347215Y-123691968D01*
X259347219Y-123691966D01*
X259491966Y-123547219D01*
X259491968Y-123547215D01*
X259491971Y-123547213D01*
X259544732Y-123474590D01*
X259612287Y-123381610D01*
X259705220Y-123199219D01*
X259768477Y-123004534D01*
X259800500Y-122802352D01*
X259800500Y-122597648D01*
X259768477Y-122395466D01*
X259705220Y-122200781D01*
X259705218Y-122200778D01*
X259705218Y-122200776D01*
X259671503Y-122134607D01*
X259612287Y-122018390D01*
X259604556Y-122007749D01*
X259491971Y-121852786D01*
X259347213Y-121708028D01*
X259181614Y-121587715D01*
X259175006Y-121584348D01*
X259088917Y-121540483D01*
X259038123Y-121492511D01*
X259021328Y-121424690D01*
X259043865Y-121358555D01*
X259088917Y-121319516D01*
X259181610Y-121272287D01*
X259202770Y-121256913D01*
X259347213Y-121151971D01*
X259347215Y-121151968D01*
X259347219Y-121151966D01*
X259491966Y-121007219D01*
X259491968Y-121007215D01*
X259491971Y-121007213D01*
X259544732Y-120934590D01*
X259612287Y-120841610D01*
X259705220Y-120659219D01*
X259768477Y-120464534D01*
X259800500Y-120262352D01*
X259800500Y-120057648D01*
X259768477Y-119855466D01*
X259760290Y-119830270D01*
X259705218Y-119660776D01*
X259666379Y-119584552D01*
X259612287Y-119478390D01*
X259586087Y-119442328D01*
X259491971Y-119312786D01*
X259347213Y-119168028D01*
X259181614Y-119047715D01*
X259175006Y-119044348D01*
X259088917Y-119000483D01*
X259038123Y-118952511D01*
X259021328Y-118884690D01*
X259043865Y-118818555D01*
X259088917Y-118779516D01*
X259181610Y-118732287D01*
X259202770Y-118716913D01*
X259347213Y-118611971D01*
X259347215Y-118611968D01*
X259347219Y-118611966D01*
X259491966Y-118467219D01*
X259491968Y-118467215D01*
X259491971Y-118467213D01*
X259544732Y-118394590D01*
X259612287Y-118301610D01*
X259705220Y-118119219D01*
X259768477Y-117924534D01*
X259800500Y-117722352D01*
X259800500Y-117517648D01*
X259768477Y-117315466D01*
X259705220Y-117120781D01*
X259705218Y-117120778D01*
X259705218Y-117120776D01*
X259647584Y-117007664D01*
X259612287Y-116938390D01*
X259578913Y-116892454D01*
X259491971Y-116772786D01*
X259347213Y-116628028D01*
X259181614Y-116507715D01*
X259175006Y-116504348D01*
X259088917Y-116460483D01*
X259038123Y-116412511D01*
X259021328Y-116344690D01*
X259043865Y-116278555D01*
X259088917Y-116239516D01*
X259181610Y-116192287D01*
X259202770Y-116176913D01*
X259347213Y-116071971D01*
X259347215Y-116071968D01*
X259347219Y-116071966D01*
X259491966Y-115927219D01*
X259491968Y-115927215D01*
X259491971Y-115927213D01*
X259544732Y-115854590D01*
X259612287Y-115761610D01*
X259705220Y-115579219D01*
X259768477Y-115384534D01*
X259800500Y-115182352D01*
X259800500Y-114977648D01*
X259768477Y-114775466D01*
X259705220Y-114580781D01*
X259705218Y-114580778D01*
X259705218Y-114580776D01*
X259660899Y-114493796D01*
X259612287Y-114398390D01*
X259604556Y-114387749D01*
X259491971Y-114232786D01*
X259347213Y-114088028D01*
X259181614Y-113967715D01*
X259175006Y-113964348D01*
X259088917Y-113920483D01*
X259038123Y-113872511D01*
X259021328Y-113804690D01*
X259043865Y-113738555D01*
X259088917Y-113699516D01*
X259181610Y-113652287D01*
X259202770Y-113636913D01*
X259347213Y-113531971D01*
X259347215Y-113531968D01*
X259347219Y-113531966D01*
X259491966Y-113387219D01*
X259491968Y-113387215D01*
X259491971Y-113387213D01*
X259583575Y-113261129D01*
X259612287Y-113221610D01*
X259705220Y-113039219D01*
X259768477Y-112844534D01*
X259800500Y-112642352D01*
X259800500Y-112437648D01*
X259768477Y-112235466D01*
X259705220Y-112040781D01*
X259705218Y-112040778D01*
X259705218Y-112040776D01*
X259624846Y-111883039D01*
X259612287Y-111858390D01*
X259553591Y-111777601D01*
X259491971Y-111692786D01*
X259347213Y-111548028D01*
X259181611Y-111427713D01*
X259088369Y-111380203D01*
X259037574Y-111332229D01*
X259020779Y-111264407D01*
X259043317Y-111198273D01*
X259088371Y-111159234D01*
X259181347Y-111111861D01*
X259346894Y-110991582D01*
X259346895Y-110991582D01*
X259491582Y-110846895D01*
X259491582Y-110846894D01*
X259611859Y-110681349D01*
X259704755Y-110499029D01*
X259767990Y-110304413D01*
X259776609Y-110250000D01*
X258933012Y-110250000D01*
X258965925Y-110192993D01*
X259000000Y-110065826D01*
X259000000Y-109934174D01*
X258965925Y-109807007D01*
X258933012Y-109750000D01*
X259776609Y-109750000D01*
X259767990Y-109695586D01*
X259704755Y-109500970D01*
X259611859Y-109318650D01*
X259491582Y-109153105D01*
X259491582Y-109153104D01*
X259346895Y-109008417D01*
X259181349Y-108888140D01*
X259088370Y-108840765D01*
X259037574Y-108792790D01*
X259020779Y-108724969D01*
X259043316Y-108658835D01*
X259088370Y-108619795D01*
X259088920Y-108619515D01*
X259181610Y-108572287D01*
X259202770Y-108556913D01*
X259347213Y-108451971D01*
X259347215Y-108451968D01*
X259347219Y-108451966D01*
X259491966Y-108307219D01*
X259491968Y-108307215D01*
X259491971Y-108307213D01*
X259544732Y-108234590D01*
X259612287Y-108141610D01*
X259705220Y-107959219D01*
X259768477Y-107764534D01*
X259800500Y-107562352D01*
X259800500Y-107357648D01*
X259768477Y-107155466D01*
X259705220Y-106960781D01*
X259705218Y-106960778D01*
X259705218Y-106960776D01*
X259671503Y-106894607D01*
X259612287Y-106778390D01*
X259602932Y-106765514D01*
X259491971Y-106612786D01*
X259347213Y-106468028D01*
X259181614Y-106347715D01*
X259175006Y-106344348D01*
X259088917Y-106300483D01*
X259038123Y-106252511D01*
X259021328Y-106184690D01*
X259043865Y-106118555D01*
X259088917Y-106079516D01*
X259181610Y-106032287D01*
X259261148Y-105974500D01*
X259347213Y-105911971D01*
X259347215Y-105911968D01*
X259347219Y-105911966D01*
X259491966Y-105767219D01*
X259491968Y-105767215D01*
X259491971Y-105767213D01*
X259544732Y-105694590D01*
X259612287Y-105601610D01*
X259705220Y-105419219D01*
X259768477Y-105224534D01*
X259800500Y-105022352D01*
X259800500Y-104817648D01*
X259786144Y-104727007D01*
X259768477Y-104615465D01*
X259705218Y-104420776D01*
X259612419Y-104238650D01*
X259612287Y-104238390D01*
X259604556Y-104227749D01*
X259491971Y-104072786D01*
X259347219Y-103928034D01*
X259310930Y-103901669D01*
X259268264Y-103846339D01*
X259262285Y-103776726D01*
X259294890Y-103714931D01*
X259355728Y-103680573D01*
X259370562Y-103678060D01*
X259407483Y-103674091D01*
X259542328Y-103623797D01*
X259542327Y-103623797D01*
X259542331Y-103623796D01*
X259657546Y-103537546D01*
X259743796Y-103422331D01*
X259794091Y-103287483D01*
X259800500Y-103227873D01*
X259800499Y-102277648D01*
X272439500Y-102277648D01*
X272439500Y-102482351D01*
X272471522Y-102684534D01*
X272534781Y-102879223D01*
X272627715Y-103061613D01*
X272748028Y-103227213D01*
X272892786Y-103371971D01*
X273047749Y-103484556D01*
X273058390Y-103492287D01*
X273130424Y-103528990D01*
X273151629Y-103539795D01*
X273202425Y-103587770D01*
X273219220Y-103655591D01*
X273196682Y-103721726D01*
X273151629Y-103760765D01*
X273058650Y-103808140D01*
X272893105Y-103928417D01*
X272893104Y-103928417D01*
X272748417Y-104073104D01*
X272748417Y-104073105D01*
X272628140Y-104238650D01*
X272535244Y-104420970D01*
X272472009Y-104615586D01*
X272463391Y-104670000D01*
X273306988Y-104670000D01*
X273274075Y-104727007D01*
X273240000Y-104854174D01*
X273240000Y-104985826D01*
X273274075Y-105112993D01*
X273306988Y-105170000D01*
X272463391Y-105170000D01*
X272472009Y-105224413D01*
X272535244Y-105419029D01*
X272628140Y-105601349D01*
X272748417Y-105766894D01*
X272748417Y-105766895D01*
X272893104Y-105911582D01*
X273058652Y-106031861D01*
X273151628Y-106079234D01*
X273202425Y-106127208D01*
X273219220Y-106195029D01*
X273196683Y-106261164D01*
X273151630Y-106300203D01*
X273058388Y-106347713D01*
X272892786Y-106468028D01*
X272748028Y-106612786D01*
X272627715Y-106778386D01*
X272534781Y-106960776D01*
X272471522Y-107155465D01*
X272439500Y-107357648D01*
X272439500Y-107562351D01*
X272471522Y-107764534D01*
X272534781Y-107959223D01*
X272627715Y-108141613D01*
X272748028Y-108307213D01*
X272892786Y-108451971D01*
X273047749Y-108564556D01*
X273058390Y-108572287D01*
X273149840Y-108618883D01*
X273151080Y-108619515D01*
X273201876Y-108667490D01*
X273218671Y-108735311D01*
X273196134Y-108801446D01*
X273151080Y-108840485D01*
X273058386Y-108887715D01*
X272892786Y-109008028D01*
X272748028Y-109152786D01*
X272627715Y-109318386D01*
X272534781Y-109500776D01*
X272471522Y-109695465D01*
X272439500Y-109897648D01*
X272439500Y-110102351D01*
X272471522Y-110304534D01*
X272534781Y-110499223D01*
X272627715Y-110681613D01*
X272748028Y-110847213D01*
X272892786Y-110991971D01*
X273047749Y-111104556D01*
X273058390Y-111112287D01*
X273141208Y-111154485D01*
X273151080Y-111159515D01*
X273201876Y-111207490D01*
X273218671Y-111275311D01*
X273196134Y-111341446D01*
X273151080Y-111380485D01*
X273058386Y-111427715D01*
X272892786Y-111548028D01*
X272748028Y-111692786D01*
X272627715Y-111858386D01*
X272534781Y-112040776D01*
X272471522Y-112235465D01*
X272439500Y-112437648D01*
X272439500Y-112642351D01*
X272471522Y-112844534D01*
X272534781Y-113039223D01*
X272627715Y-113221613D01*
X272748028Y-113387213D01*
X272892786Y-113531971D01*
X273047749Y-113644556D01*
X273058390Y-113652287D01*
X273149840Y-113698883D01*
X273151080Y-113699515D01*
X273201876Y-113747490D01*
X273218671Y-113815311D01*
X273196134Y-113881446D01*
X273151080Y-113920485D01*
X273058386Y-113967715D01*
X272892786Y-114088028D01*
X272748028Y-114232786D01*
X272627715Y-114398386D01*
X272534781Y-114580776D01*
X272471522Y-114775465D01*
X272439500Y-114977648D01*
X272439500Y-115182351D01*
X272471522Y-115384534D01*
X272534781Y-115579223D01*
X272627715Y-115761613D01*
X272748028Y-115927213D01*
X272892786Y-116071971D01*
X273047749Y-116184556D01*
X273058390Y-116192287D01*
X273149840Y-116238883D01*
X273151080Y-116239515D01*
X273201876Y-116287490D01*
X273218671Y-116355311D01*
X273196134Y-116421446D01*
X273151080Y-116460485D01*
X273058386Y-116507715D01*
X272892786Y-116628028D01*
X272748028Y-116772786D01*
X272627715Y-116938386D01*
X272534781Y-117120776D01*
X272471522Y-117315465D01*
X272439500Y-117517648D01*
X272439500Y-117722351D01*
X272471522Y-117924534D01*
X272534781Y-118119223D01*
X272627715Y-118301613D01*
X272748028Y-118467213D01*
X272892786Y-118611971D01*
X273047749Y-118724556D01*
X273058390Y-118732287D01*
X273149840Y-118778883D01*
X273151080Y-118779515D01*
X273201876Y-118827490D01*
X273218671Y-118895311D01*
X273196134Y-118961446D01*
X273151080Y-119000485D01*
X273058386Y-119047715D01*
X272892786Y-119168028D01*
X272748028Y-119312786D01*
X272627715Y-119478386D01*
X272534781Y-119660776D01*
X272471522Y-119855465D01*
X272439500Y-120057648D01*
X272439500Y-120262351D01*
X272471522Y-120464534D01*
X272534781Y-120659223D01*
X272627715Y-120841613D01*
X272748028Y-121007213D01*
X272892786Y-121151971D01*
X273047749Y-121264556D01*
X273058390Y-121272287D01*
X273149840Y-121318883D01*
X273151080Y-121319515D01*
X273201876Y-121367490D01*
X273218671Y-121435311D01*
X273196134Y-121501446D01*
X273151080Y-121540485D01*
X273058386Y-121587715D01*
X272892786Y-121708028D01*
X272748028Y-121852786D01*
X272627715Y-122018386D01*
X272534781Y-122200776D01*
X272471522Y-122395465D01*
X272439500Y-122597648D01*
X272439500Y-122802351D01*
X272471522Y-123004534D01*
X272534781Y-123199223D01*
X272627715Y-123381613D01*
X272748028Y-123547213D01*
X272892786Y-123691971D01*
X272998108Y-123768490D01*
X273058390Y-123812287D01*
X273146913Y-123857392D01*
X273151080Y-123859515D01*
X273201876Y-123907490D01*
X273218671Y-123975311D01*
X273196134Y-124041446D01*
X273151080Y-124080485D01*
X273058386Y-124127715D01*
X272892786Y-124248028D01*
X272748028Y-124392786D01*
X272627715Y-124558386D01*
X272534781Y-124740776D01*
X272471522Y-124935465D01*
X272439500Y-125137648D01*
X272439500Y-125342351D01*
X272471522Y-125544534D01*
X272534781Y-125739223D01*
X272579770Y-125827517D01*
X272610137Y-125887116D01*
X272627715Y-125921613D01*
X272748028Y-126087213D01*
X272892786Y-126231971D01*
X272976274Y-126292627D01*
X273058390Y-126352287D01*
X273149840Y-126398883D01*
X273151080Y-126399515D01*
X273201876Y-126447490D01*
X273218671Y-126515311D01*
X273196134Y-126581446D01*
X273151080Y-126620485D01*
X273058386Y-126667715D01*
X272892786Y-126788028D01*
X272748028Y-126932786D01*
X272627715Y-127098386D01*
X272534781Y-127280776D01*
X272471522Y-127475465D01*
X272439500Y-127677648D01*
X272439500Y-127882352D01*
X272442200Y-127899401D01*
X272471522Y-128084534D01*
X272534781Y-128279223D01*
X272627715Y-128461613D01*
X272748028Y-128627213D01*
X272892786Y-128771971D01*
X273047749Y-128884556D01*
X273058390Y-128892287D01*
X273149840Y-128938883D01*
X273151080Y-128939515D01*
X273201876Y-128987490D01*
X273218671Y-129055311D01*
X273196134Y-129121446D01*
X273151080Y-129160485D01*
X273058386Y-129207715D01*
X272892786Y-129328028D01*
X272748028Y-129472786D01*
X272627715Y-129638386D01*
X272534781Y-129820776D01*
X272471522Y-130015465D01*
X272439500Y-130217648D01*
X272439500Y-130422351D01*
X272471523Y-130624534D01*
X272471522Y-130624534D01*
X272534781Y-130819223D01*
X272627715Y-131001613D01*
X272748028Y-131167213D01*
X272892786Y-131311971D01*
X273047749Y-131424556D01*
X273058390Y-131432287D01*
X273144621Y-131476224D01*
X273151080Y-131479515D01*
X273201876Y-131527490D01*
X273218671Y-131595311D01*
X273196134Y-131661446D01*
X273151080Y-131700485D01*
X273058386Y-131747715D01*
X272892786Y-131868028D01*
X272748028Y-132012786D01*
X272627715Y-132178386D01*
X272534781Y-132360776D01*
X272471522Y-132555465D01*
X272439500Y-132757648D01*
X272439500Y-132962351D01*
X272471522Y-133164534D01*
X272534781Y-133359223D01*
X272598691Y-133484653D01*
X272615263Y-133517176D01*
X272627715Y-133541613D01*
X272748028Y-133707213D01*
X272892786Y-133851971D01*
X273047749Y-133964556D01*
X273058390Y-133972287D01*
X273149840Y-134018883D01*
X273151080Y-134019515D01*
X273201876Y-134067490D01*
X273218671Y-134135311D01*
X273196134Y-134201446D01*
X273151080Y-134240485D01*
X273058386Y-134287715D01*
X272892786Y-134408028D01*
X272748028Y-134552786D01*
X272627715Y-134718386D01*
X272534781Y-134900776D01*
X272471522Y-135095465D01*
X272439500Y-135297648D01*
X272439500Y-135502351D01*
X272471522Y-135704534D01*
X272534781Y-135899223D01*
X272598691Y-136024653D01*
X272624850Y-136075992D01*
X272627715Y-136081613D01*
X272748028Y-136247213D01*
X272892786Y-136391971D01*
X273030420Y-136491966D01*
X273058390Y-136512287D01*
X273149840Y-136558883D01*
X273151080Y-136559515D01*
X273201876Y-136607490D01*
X273218671Y-136675311D01*
X273196134Y-136741446D01*
X273151080Y-136780485D01*
X273058386Y-136827715D01*
X272892786Y-136948028D01*
X272748028Y-137092786D01*
X272627715Y-137258386D01*
X272534781Y-137440776D01*
X272471522Y-137635465D01*
X272439500Y-137837648D01*
X272439500Y-138042351D01*
X272471522Y-138244534D01*
X272534781Y-138439223D01*
X272627715Y-138621613D01*
X272748028Y-138787213D01*
X272892786Y-138931971D01*
X272997472Y-139008028D01*
X273058390Y-139052287D01*
X273174607Y-139111503D01*
X273240776Y-139145218D01*
X273240778Y-139145218D01*
X273240781Y-139145220D01*
X273345137Y-139179127D01*
X273435465Y-139208477D01*
X273536557Y-139224488D01*
X273637648Y-139240500D01*
X273637649Y-139240500D01*
X273842351Y-139240500D01*
X273842352Y-139240500D01*
X274044534Y-139208477D01*
X274239219Y-139145220D01*
X274421610Y-139052287D01*
X274514590Y-138984732D01*
X274587213Y-138931971D01*
X274587215Y-138931968D01*
X274587219Y-138931966D01*
X274731966Y-138787219D01*
X274731968Y-138787215D01*
X274731971Y-138787213D01*
X274795697Y-138699500D01*
X274852287Y-138621610D01*
X274945220Y-138439219D01*
X275008477Y-138244534D01*
X275040500Y-138042352D01*
X275040500Y-137837648D01*
X275008477Y-137635466D01*
X274988479Y-137573920D01*
X274945218Y-137440776D01*
X274911503Y-137374607D01*
X274852287Y-137258390D01*
X274828356Y-137225451D01*
X274731971Y-137092786D01*
X274587213Y-136948028D01*
X274421614Y-136827715D01*
X274415006Y-136824348D01*
X274328917Y-136780483D01*
X274278123Y-136732511D01*
X274261328Y-136664690D01*
X274283865Y-136598555D01*
X274328917Y-136559516D01*
X274421610Y-136512287D01*
X274469474Y-136477512D01*
X274587213Y-136391971D01*
X274587215Y-136391968D01*
X274587219Y-136391966D01*
X274731966Y-136247219D01*
X274731968Y-136247215D01*
X274731971Y-136247213D01*
X274784732Y-136174590D01*
X274852287Y-136081610D01*
X274945220Y-135899219D01*
X275008477Y-135704534D01*
X275040500Y-135502352D01*
X275040500Y-135297648D01*
X275016552Y-135146446D01*
X275008477Y-135095465D01*
X274945218Y-134900776D01*
X274911503Y-134834607D01*
X274852287Y-134718390D01*
X274844556Y-134707749D01*
X274731971Y-134552786D01*
X274587213Y-134408028D01*
X274421614Y-134287715D01*
X274401248Y-134277338D01*
X274328917Y-134240483D01*
X274278123Y-134192511D01*
X274261328Y-134124690D01*
X274283865Y-134058555D01*
X274328917Y-134019516D01*
X274421610Y-133972287D01*
X274442770Y-133956913D01*
X274587213Y-133851971D01*
X274587215Y-133851968D01*
X274587219Y-133851966D01*
X274731966Y-133707219D01*
X274731968Y-133707215D01*
X274731971Y-133707213D01*
X274784732Y-133634590D01*
X274852287Y-133541610D01*
X274945220Y-133359219D01*
X275008477Y-133164534D01*
X275040500Y-132962352D01*
X275040500Y-132757648D01*
X275008477Y-132555466D01*
X274945220Y-132360781D01*
X274945218Y-132360778D01*
X274945218Y-132360776D01*
X274908270Y-132288263D01*
X274852287Y-132178390D01*
X274844556Y-132167749D01*
X274731971Y-132012786D01*
X274587213Y-131868028D01*
X274421614Y-131747715D01*
X274415006Y-131744348D01*
X274328917Y-131700483D01*
X274278123Y-131652511D01*
X274261328Y-131584690D01*
X274283865Y-131518555D01*
X274328917Y-131479516D01*
X274421610Y-131432287D01*
X274442770Y-131416913D01*
X274587213Y-131311971D01*
X274587215Y-131311968D01*
X274587219Y-131311966D01*
X274731966Y-131167219D01*
X274731968Y-131167215D01*
X274731971Y-131167213D01*
X274819911Y-131046172D01*
X274852287Y-131001610D01*
X274945220Y-130819219D01*
X275008477Y-130624534D01*
X275040500Y-130422352D01*
X275040500Y-130217648D01*
X275013936Y-130049931D01*
X275008477Y-130015465D01*
X274945218Y-129820776D01*
X274888546Y-129709553D01*
X274852287Y-129638390D01*
X274844556Y-129627749D01*
X274731971Y-129472786D01*
X274587213Y-129328028D01*
X274421614Y-129207715D01*
X274383180Y-129188132D01*
X274328917Y-129160483D01*
X274278123Y-129112511D01*
X274261328Y-129044690D01*
X274283865Y-128978555D01*
X274328917Y-128939516D01*
X274421610Y-128892287D01*
X274540868Y-128805642D01*
X274587213Y-128771971D01*
X274587215Y-128771968D01*
X274587219Y-128771966D01*
X274731966Y-128627219D01*
X274731968Y-128627215D01*
X274731971Y-128627213D01*
X274784732Y-128554590D01*
X274852287Y-128461610D01*
X274945220Y-128279219D01*
X275008477Y-128084534D01*
X275040500Y-127882352D01*
X275040500Y-127677648D01*
X275008477Y-127475466D01*
X275002746Y-127457829D01*
X274971179Y-127360676D01*
X274945220Y-127280781D01*
X274945218Y-127280778D01*
X274945218Y-127280776D01*
X274890039Y-127172483D01*
X274852287Y-127098390D01*
X274828858Y-127066142D01*
X274731971Y-126932786D01*
X274587213Y-126788028D01*
X274421614Y-126667715D01*
X274364111Y-126638416D01*
X274328917Y-126620483D01*
X274278123Y-126572511D01*
X274261328Y-126504690D01*
X274283865Y-126438555D01*
X274328917Y-126399516D01*
X274421610Y-126352287D01*
X274503726Y-126292627D01*
X274587213Y-126231971D01*
X274587215Y-126231968D01*
X274587219Y-126231966D01*
X274731966Y-126087219D01*
X274731968Y-126087215D01*
X274731971Y-126087213D01*
X274798578Y-125995535D01*
X274852287Y-125921610D01*
X274945220Y-125739219D01*
X275008477Y-125544534D01*
X275040500Y-125342352D01*
X275040500Y-125137648D01*
X275008477Y-124935466D01*
X274945220Y-124740781D01*
X274945218Y-124740778D01*
X274945218Y-124740776D01*
X274911503Y-124674607D01*
X274852287Y-124558390D01*
X274844556Y-124547749D01*
X274731971Y-124392786D01*
X274587213Y-124248028D01*
X274421614Y-124127715D01*
X274375161Y-124104046D01*
X274328917Y-124080483D01*
X274278123Y-124032511D01*
X274261328Y-123964690D01*
X274283865Y-123898555D01*
X274328917Y-123859516D01*
X274421610Y-123812287D01*
X274493352Y-123760164D01*
X274587213Y-123691971D01*
X274587215Y-123691968D01*
X274587219Y-123691966D01*
X274731966Y-123547219D01*
X274731968Y-123547215D01*
X274731971Y-123547213D01*
X274784732Y-123474590D01*
X274852287Y-123381610D01*
X274945220Y-123199219D01*
X275008477Y-123004534D01*
X275040500Y-122802352D01*
X275040500Y-122597648D01*
X275008477Y-122395466D01*
X274945220Y-122200781D01*
X274945218Y-122200778D01*
X274945218Y-122200776D01*
X274911503Y-122134607D01*
X274852287Y-122018390D01*
X274844556Y-122007749D01*
X274731971Y-121852786D01*
X274587213Y-121708028D01*
X274421614Y-121587715D01*
X274415006Y-121584348D01*
X274328917Y-121540483D01*
X274278123Y-121492511D01*
X274261328Y-121424690D01*
X274283865Y-121358555D01*
X274328917Y-121319516D01*
X274421610Y-121272287D01*
X274442770Y-121256913D01*
X274587213Y-121151971D01*
X274587215Y-121151968D01*
X274587219Y-121151966D01*
X274731966Y-121007219D01*
X274731968Y-121007215D01*
X274731971Y-121007213D01*
X274784732Y-120934590D01*
X274852287Y-120841610D01*
X274945220Y-120659219D01*
X275008477Y-120464534D01*
X275040500Y-120262352D01*
X275040500Y-120057648D01*
X275008477Y-119855466D01*
X275000290Y-119830270D01*
X274945218Y-119660776D01*
X274906379Y-119584552D01*
X274852287Y-119478390D01*
X274826087Y-119442328D01*
X274731971Y-119312786D01*
X274587213Y-119168028D01*
X274421614Y-119047715D01*
X274415006Y-119044348D01*
X274328917Y-119000483D01*
X274278123Y-118952511D01*
X274261328Y-118884690D01*
X274283865Y-118818555D01*
X274328917Y-118779516D01*
X274421610Y-118732287D01*
X274442770Y-118716913D01*
X274587213Y-118611971D01*
X274587215Y-118611968D01*
X274587219Y-118611966D01*
X274731966Y-118467219D01*
X274731968Y-118467215D01*
X274731971Y-118467213D01*
X274784732Y-118394590D01*
X274852287Y-118301610D01*
X274945220Y-118119219D01*
X275008477Y-117924534D01*
X275040500Y-117722352D01*
X275040500Y-117517648D01*
X275008477Y-117315466D01*
X274945220Y-117120781D01*
X274945218Y-117120778D01*
X274945218Y-117120776D01*
X274887584Y-117007664D01*
X274852287Y-116938390D01*
X274818913Y-116892454D01*
X274731971Y-116772786D01*
X274587213Y-116628028D01*
X274421614Y-116507715D01*
X274415006Y-116504348D01*
X274328917Y-116460483D01*
X274278123Y-116412511D01*
X274261328Y-116344690D01*
X274283865Y-116278555D01*
X274328917Y-116239516D01*
X274421610Y-116192287D01*
X274442770Y-116176913D01*
X274587213Y-116071971D01*
X274587215Y-116071968D01*
X274587219Y-116071966D01*
X274731966Y-115927219D01*
X274731968Y-115927215D01*
X274731971Y-115927213D01*
X274784732Y-115854590D01*
X274852287Y-115761610D01*
X274945220Y-115579219D01*
X275008477Y-115384534D01*
X275040500Y-115182352D01*
X275040500Y-114977648D01*
X275008477Y-114775466D01*
X274945220Y-114580781D01*
X274945218Y-114580778D01*
X274945218Y-114580776D01*
X274900899Y-114493796D01*
X274852287Y-114398390D01*
X274844556Y-114387749D01*
X274731971Y-114232786D01*
X274587213Y-114088028D01*
X274421614Y-113967715D01*
X274415006Y-113964348D01*
X274328917Y-113920483D01*
X274278123Y-113872511D01*
X274261328Y-113804690D01*
X274283865Y-113738555D01*
X274328917Y-113699516D01*
X274421610Y-113652287D01*
X274442770Y-113636913D01*
X274587213Y-113531971D01*
X274587215Y-113531968D01*
X274587219Y-113531966D01*
X274731966Y-113387219D01*
X274731968Y-113387215D01*
X274731971Y-113387213D01*
X274823575Y-113261129D01*
X274852287Y-113221610D01*
X274945220Y-113039219D01*
X275008477Y-112844534D01*
X275040500Y-112642352D01*
X275040500Y-112437648D01*
X275008477Y-112235466D01*
X274945220Y-112040781D01*
X274945218Y-112040778D01*
X274945218Y-112040776D01*
X274864846Y-111883039D01*
X274852287Y-111858390D01*
X274793591Y-111777601D01*
X274731971Y-111692786D01*
X274587213Y-111548028D01*
X274421614Y-111427715D01*
X274415006Y-111424348D01*
X274328917Y-111380483D01*
X274278123Y-111332511D01*
X274261328Y-111264690D01*
X274283865Y-111198555D01*
X274328917Y-111159516D01*
X274421610Y-111112287D01*
X274442770Y-111096913D01*
X274587213Y-110991971D01*
X274587215Y-110991968D01*
X274587219Y-110991966D01*
X274731966Y-110847219D01*
X274731968Y-110847215D01*
X274731971Y-110847213D01*
X274819550Y-110726669D01*
X274852287Y-110681610D01*
X274945220Y-110499219D01*
X275008477Y-110304534D01*
X275040500Y-110102352D01*
X275040500Y-109897648D01*
X275026144Y-109807007D01*
X275008477Y-109695465D01*
X274945218Y-109500776D01*
X274852419Y-109318650D01*
X274852287Y-109318390D01*
X274844556Y-109307749D01*
X274731971Y-109152786D01*
X274587213Y-109008028D01*
X274421614Y-108887715D01*
X274415006Y-108884348D01*
X274328917Y-108840483D01*
X274278123Y-108792511D01*
X274261328Y-108724690D01*
X274283865Y-108658555D01*
X274328917Y-108619516D01*
X274421610Y-108572287D01*
X274442770Y-108556913D01*
X274587213Y-108451971D01*
X274587215Y-108451968D01*
X274587219Y-108451966D01*
X274731966Y-108307219D01*
X274731968Y-108307215D01*
X274731971Y-108307213D01*
X274784732Y-108234590D01*
X274852287Y-108141610D01*
X274945220Y-107959219D01*
X275008477Y-107764534D01*
X275040500Y-107562352D01*
X275040500Y-107357648D01*
X275008477Y-107155466D01*
X274945220Y-106960781D01*
X274945218Y-106960778D01*
X274945218Y-106960776D01*
X274911503Y-106894607D01*
X274852287Y-106778390D01*
X274842932Y-106765514D01*
X274731971Y-106612786D01*
X274587213Y-106468028D01*
X274421611Y-106347713D01*
X274328369Y-106300203D01*
X274277574Y-106252229D01*
X274260779Y-106184407D01*
X274283317Y-106118273D01*
X274328371Y-106079234D01*
X274421347Y-106031861D01*
X274586894Y-105911582D01*
X274586895Y-105911582D01*
X274731582Y-105766895D01*
X274731582Y-105766894D01*
X274851859Y-105601349D01*
X274944755Y-105419029D01*
X275007990Y-105224413D01*
X275016609Y-105170000D01*
X274173012Y-105170000D01*
X274205925Y-105112993D01*
X274240000Y-104985826D01*
X274240000Y-104854174D01*
X274205925Y-104727007D01*
X274173012Y-104670000D01*
X275016609Y-104670000D01*
X275007990Y-104615586D01*
X274944755Y-104420970D01*
X274851859Y-104238650D01*
X274731582Y-104073105D01*
X274731582Y-104073104D01*
X274586895Y-103928417D01*
X274421349Y-103808140D01*
X274328370Y-103760765D01*
X274277574Y-103712790D01*
X274260779Y-103644969D01*
X274283316Y-103578835D01*
X274328370Y-103539795D01*
X274332788Y-103537544D01*
X274421610Y-103492287D01*
X274442770Y-103476913D01*
X274587213Y-103371971D01*
X274587215Y-103371968D01*
X274587219Y-103371966D01*
X274731966Y-103227219D01*
X274731968Y-103227215D01*
X274731971Y-103227213D01*
X274784732Y-103154590D01*
X274852287Y-103061610D01*
X274945220Y-102879219D01*
X275008477Y-102684534D01*
X275040500Y-102482352D01*
X275040500Y-102277648D01*
X275008477Y-102075466D01*
X274945220Y-101880781D01*
X274945218Y-101880778D01*
X274945218Y-101880776D01*
X274911503Y-101814607D01*
X274852287Y-101698390D01*
X274842932Y-101685514D01*
X274731971Y-101532786D01*
X274587213Y-101388028D01*
X274421613Y-101267715D01*
X274421612Y-101267714D01*
X274421610Y-101267713D01*
X274364653Y-101238691D01*
X274239223Y-101174781D01*
X274044534Y-101111522D01*
X273869995Y-101083878D01*
X273842352Y-101079500D01*
X273637648Y-101079500D01*
X273613329Y-101083351D01*
X273435465Y-101111522D01*
X273240776Y-101174781D01*
X273058386Y-101267715D01*
X272892786Y-101388028D01*
X272748028Y-101532786D01*
X272627715Y-101698386D01*
X272534781Y-101880776D01*
X272471522Y-102075465D01*
X272439500Y-102277648D01*
X259800499Y-102277648D01*
X259800499Y-101532128D01*
X259794091Y-101472517D01*
X259743796Y-101337669D01*
X259743795Y-101337668D01*
X259743793Y-101337664D01*
X259657547Y-101222455D01*
X259657544Y-101222452D01*
X259542335Y-101136206D01*
X259542328Y-101136202D01*
X259407482Y-101085908D01*
X259407483Y-101085908D01*
X259347883Y-101079501D01*
X259347881Y-101079500D01*
X259347873Y-101079500D01*
X259347864Y-101079500D01*
X257652129Y-101079500D01*
X257652123Y-101079501D01*
X257592516Y-101085908D01*
X257457671Y-101136202D01*
X257457664Y-101136206D01*
X257342455Y-101222452D01*
X257342452Y-101222455D01*
X257256206Y-101337664D01*
X257256202Y-101337671D01*
X257205908Y-101472517D01*
X257199501Y-101532116D01*
X257199501Y-101532123D01*
X257199500Y-101532135D01*
X245463462Y-101532135D01*
X245467044Y-101509520D01*
X245467061Y-101509409D01*
X245475500Y-101456124D01*
X245475500Y-101223870D01*
X245453649Y-101085909D01*
X245439169Y-100994486D01*
X245367400Y-100773604D01*
X245367398Y-100773601D01*
X245367398Y-100773599D01*
X245261960Y-100566668D01*
X245125449Y-100378776D01*
X244961224Y-100214551D01*
X244773331Y-100078039D01*
X244566400Y-99972601D01*
X244345514Y-99900831D01*
X244116129Y-99864500D01*
X244116124Y-99864500D01*
X243883876Y-99864500D01*
X243883871Y-99864500D01*
X243654485Y-99900831D01*
X243433599Y-99972601D01*
X243226668Y-100078039D01*
X243038773Y-100214553D01*
X242874553Y-100378773D01*
X242738039Y-100566668D01*
X242632601Y-100773599D01*
X242560831Y-100994485D01*
X242524500Y-101223870D01*
X234500000Y-101223870D01*
X234500000Y-96474500D01*
X234519685Y-96407461D01*
X234572489Y-96361706D01*
X234617314Y-96351954D01*
X234617237Y-96350766D01*
X234621282Y-96350500D01*
X234621288Y-96350500D01*
X234861789Y-96318838D01*
X235096100Y-96256054D01*
X235320212Y-96163224D01*
X235530289Y-96041936D01*
X235722738Y-95894265D01*
X235894265Y-95722738D01*
X236041936Y-95530289D01*
X236163224Y-95320212D01*
X236256054Y-95096100D01*
X236318838Y-94861789D01*
X236350500Y-94621288D01*
X236350500Y-94621282D01*
X236350766Y-94617237D01*
X236352453Y-94617347D01*
X236370185Y-94556961D01*
X236422989Y-94511206D01*
X236474500Y-94500000D01*
X275525500Y-94500000D01*
X275592539Y-94519685D01*
G37*
%TD.AperFunction*%
%TD*%
%TA.AperFunction,Conductor*%
%TO.N,Net-(J1-PadG1)*%
G36*
X188425180Y-125191975D02*
G01*
X188432622Y-125196956D01*
X188434361Y-125205740D01*
X188433944Y-125207276D01*
X187688263Y-127360850D01*
X187682318Y-127367547D01*
X187673379Y-127368078D01*
X187668934Y-127365295D01*
X186624330Y-126320691D01*
X186620993Y-126313864D01*
X186483010Y-125205393D01*
X186485388Y-125196761D01*
X186492329Y-125192475D01*
X187458421Y-124999749D01*
X187462994Y-124999749D01*
X188425180Y-125191975D01*
G37*
%TD.AperFunction*%
%TD*%
M02*
