%TF.GenerationSoftware,KiCad,Pcbnew,9.0.7*%
%TF.CreationDate,2026-04-06T12:16:52+07:00*%
%TF.ProjectId,PCB,5043422e-6b69-4636-9164-5f7063625858,rev?*%
%TF.SameCoordinates,Original*%
%TF.FileFunction,Legend,Top*%
%TF.FilePolarity,Positive*%
%FSLAX46Y46*%
G04 Gerber Fmt 4.6, Leading zero omitted, Abs format (unit mm)*
G04 Created by KiCad (PCBNEW 9.0.7) date 2026-04-06 12:16:52*
%MOMM*%
%LPD*%
G01*
G04 APERTURE LIST*
%ADD10C,0.210000*%
%ADD11C,0.300000*%
%ADD12C,0.150000*%
%ADD13C,0.200000*%
%ADD14C,0.120000*%
%ADD15C,0.127000*%
G04 APERTURE END LIST*
D10*
X162233395Y-124829255D02*
X162566728Y-125829255D01*
X162566728Y-125829255D02*
X162900061Y-124829255D01*
X163376252Y-125829255D02*
X163281014Y-125781636D01*
X163281014Y-125781636D02*
X163233395Y-125734016D01*
X163233395Y-125734016D02*
X163185776Y-125638778D01*
X163185776Y-125638778D02*
X163185776Y-125353064D01*
X163185776Y-125353064D02*
X163233395Y-125257826D01*
X163233395Y-125257826D02*
X163281014Y-125210207D01*
X163281014Y-125210207D02*
X163376252Y-125162588D01*
X163376252Y-125162588D02*
X163519109Y-125162588D01*
X163519109Y-125162588D02*
X163614347Y-125210207D01*
X163614347Y-125210207D02*
X163661966Y-125257826D01*
X163661966Y-125257826D02*
X163709585Y-125353064D01*
X163709585Y-125353064D02*
X163709585Y-125638778D01*
X163709585Y-125638778D02*
X163661966Y-125734016D01*
X163661966Y-125734016D02*
X163614347Y-125781636D01*
X163614347Y-125781636D02*
X163519109Y-125829255D01*
X163519109Y-125829255D02*
X163376252Y-125829255D01*
X164281014Y-125829255D02*
X164185776Y-125781636D01*
X164185776Y-125781636D02*
X164138157Y-125686397D01*
X164138157Y-125686397D02*
X164138157Y-124829255D01*
X164519110Y-125162588D02*
X164900062Y-125162588D01*
X164661967Y-124829255D02*
X164661967Y-125686397D01*
X164661967Y-125686397D02*
X164709586Y-125781636D01*
X164709586Y-125781636D02*
X164804824Y-125829255D01*
X164804824Y-125829255D02*
X164900062Y-125829255D01*
X165233396Y-125829255D02*
X165233396Y-125162588D01*
X165233396Y-125257826D02*
X165281015Y-125210207D01*
X165281015Y-125210207D02*
X165376253Y-125162588D01*
X165376253Y-125162588D02*
X165519110Y-125162588D01*
X165519110Y-125162588D02*
X165614348Y-125210207D01*
X165614348Y-125210207D02*
X165661967Y-125305445D01*
X165661967Y-125305445D02*
X165661967Y-125829255D01*
X165661967Y-125305445D02*
X165709586Y-125210207D01*
X165709586Y-125210207D02*
X165804824Y-125162588D01*
X165804824Y-125162588D02*
X165947681Y-125162588D01*
X165947681Y-125162588D02*
X166042920Y-125210207D01*
X166042920Y-125210207D02*
X166090539Y-125305445D01*
X166090539Y-125305445D02*
X166090539Y-125829255D01*
X166947681Y-125781636D02*
X166852443Y-125829255D01*
X166852443Y-125829255D02*
X166661967Y-125829255D01*
X166661967Y-125829255D02*
X166566729Y-125781636D01*
X166566729Y-125781636D02*
X166519110Y-125686397D01*
X166519110Y-125686397D02*
X166519110Y-125305445D01*
X166519110Y-125305445D02*
X166566729Y-125210207D01*
X166566729Y-125210207D02*
X166661967Y-125162588D01*
X166661967Y-125162588D02*
X166852443Y-125162588D01*
X166852443Y-125162588D02*
X166947681Y-125210207D01*
X166947681Y-125210207D02*
X166995300Y-125305445D01*
X166995300Y-125305445D02*
X166995300Y-125400683D01*
X166995300Y-125400683D02*
X166519110Y-125495921D01*
X167281015Y-125162588D02*
X167661967Y-125162588D01*
X167423872Y-124829255D02*
X167423872Y-125686397D01*
X167423872Y-125686397D02*
X167471491Y-125781636D01*
X167471491Y-125781636D02*
X167566729Y-125829255D01*
X167566729Y-125829255D02*
X167661967Y-125829255D01*
X168376253Y-125781636D02*
X168281015Y-125829255D01*
X168281015Y-125829255D02*
X168090539Y-125829255D01*
X168090539Y-125829255D02*
X167995301Y-125781636D01*
X167995301Y-125781636D02*
X167947682Y-125686397D01*
X167947682Y-125686397D02*
X167947682Y-125305445D01*
X167947682Y-125305445D02*
X167995301Y-125210207D01*
X167995301Y-125210207D02*
X168090539Y-125162588D01*
X168090539Y-125162588D02*
X168281015Y-125162588D01*
X168281015Y-125162588D02*
X168376253Y-125210207D01*
X168376253Y-125210207D02*
X168423872Y-125305445D01*
X168423872Y-125305445D02*
X168423872Y-125400683D01*
X168423872Y-125400683D02*
X167947682Y-125495921D01*
X168852444Y-125829255D02*
X168852444Y-125162588D01*
X168852444Y-125353064D02*
X168900063Y-125257826D01*
X168900063Y-125257826D02*
X168947682Y-125210207D01*
X168947682Y-125210207D02*
X169042920Y-125162588D01*
X169042920Y-125162588D02*
X169138158Y-125162588D01*
X170185778Y-125543540D02*
X170661968Y-125543540D01*
X170090540Y-125829255D02*
X170423873Y-124829255D01*
X170423873Y-124829255D02*
X170757206Y-125829255D01*
X171090540Y-125829255D02*
X171090540Y-124829255D01*
X171090540Y-124829255D02*
X171328635Y-124829255D01*
X171328635Y-124829255D02*
X171471492Y-124876874D01*
X171471492Y-124876874D02*
X171566730Y-124972112D01*
X171566730Y-124972112D02*
X171614349Y-125067350D01*
X171614349Y-125067350D02*
X171661968Y-125257826D01*
X171661968Y-125257826D02*
X171661968Y-125400683D01*
X171661968Y-125400683D02*
X171614349Y-125591159D01*
X171614349Y-125591159D02*
X171566730Y-125686397D01*
X171566730Y-125686397D02*
X171471492Y-125781636D01*
X171471492Y-125781636D02*
X171328635Y-125829255D01*
X171328635Y-125829255D02*
X171090540Y-125829255D01*
X172042921Y-125781636D02*
X172185778Y-125829255D01*
X172185778Y-125829255D02*
X172423873Y-125829255D01*
X172423873Y-125829255D02*
X172519111Y-125781636D01*
X172519111Y-125781636D02*
X172566730Y-125734016D01*
X172566730Y-125734016D02*
X172614349Y-125638778D01*
X172614349Y-125638778D02*
X172614349Y-125543540D01*
X172614349Y-125543540D02*
X172566730Y-125448302D01*
X172566730Y-125448302D02*
X172519111Y-125400683D01*
X172519111Y-125400683D02*
X172423873Y-125353064D01*
X172423873Y-125353064D02*
X172233397Y-125305445D01*
X172233397Y-125305445D02*
X172138159Y-125257826D01*
X172138159Y-125257826D02*
X172090540Y-125210207D01*
X172090540Y-125210207D02*
X172042921Y-125114969D01*
X172042921Y-125114969D02*
X172042921Y-125019731D01*
X172042921Y-125019731D02*
X172090540Y-124924493D01*
X172090540Y-124924493D02*
X172138159Y-124876874D01*
X172138159Y-124876874D02*
X172233397Y-124829255D01*
X172233397Y-124829255D02*
X172471492Y-124829255D01*
X172471492Y-124829255D02*
X172614349Y-124876874D01*
X173566730Y-125829255D02*
X172995302Y-125829255D01*
X173281016Y-125829255D02*
X173281016Y-124829255D01*
X173281016Y-124829255D02*
X173185778Y-124972112D01*
X173185778Y-124972112D02*
X173090540Y-125067350D01*
X173090540Y-125067350D02*
X172995302Y-125114969D01*
X173947683Y-124924493D02*
X173995302Y-124876874D01*
X173995302Y-124876874D02*
X174090540Y-124829255D01*
X174090540Y-124829255D02*
X174328635Y-124829255D01*
X174328635Y-124829255D02*
X174423873Y-124876874D01*
X174423873Y-124876874D02*
X174471492Y-124924493D01*
X174471492Y-124924493D02*
X174519111Y-125019731D01*
X174519111Y-125019731D02*
X174519111Y-125114969D01*
X174519111Y-125114969D02*
X174471492Y-125257826D01*
X174471492Y-125257826D02*
X173900064Y-125829255D01*
X173900064Y-125829255D02*
X174519111Y-125829255D01*
X175423873Y-124829255D02*
X174947683Y-124829255D01*
X174947683Y-124829255D02*
X174900064Y-125305445D01*
X174900064Y-125305445D02*
X174947683Y-125257826D01*
X174947683Y-125257826D02*
X175042921Y-125210207D01*
X175042921Y-125210207D02*
X175281016Y-125210207D01*
X175281016Y-125210207D02*
X175376254Y-125257826D01*
X175376254Y-125257826D02*
X175423873Y-125305445D01*
X175423873Y-125305445D02*
X175471492Y-125400683D01*
X175471492Y-125400683D02*
X175471492Y-125638778D01*
X175471492Y-125638778D02*
X175423873Y-125734016D01*
X175423873Y-125734016D02*
X175376254Y-125781636D01*
X175376254Y-125781636D02*
X175281016Y-125829255D01*
X175281016Y-125829255D02*
X175042921Y-125829255D01*
X175042921Y-125829255D02*
X174947683Y-125781636D01*
X174947683Y-125781636D02*
X174900064Y-125734016D01*
X176328635Y-124829255D02*
X176138159Y-124829255D01*
X176138159Y-124829255D02*
X176042921Y-124876874D01*
X176042921Y-124876874D02*
X175995302Y-124924493D01*
X175995302Y-124924493D02*
X175900064Y-125067350D01*
X175900064Y-125067350D02*
X175852445Y-125257826D01*
X175852445Y-125257826D02*
X175852445Y-125638778D01*
X175852445Y-125638778D02*
X175900064Y-125734016D01*
X175900064Y-125734016D02*
X175947683Y-125781636D01*
X175947683Y-125781636D02*
X176042921Y-125829255D01*
X176042921Y-125829255D02*
X176233397Y-125829255D01*
X176233397Y-125829255D02*
X176328635Y-125781636D01*
X176328635Y-125781636D02*
X176376254Y-125734016D01*
X176376254Y-125734016D02*
X176423873Y-125638778D01*
X176423873Y-125638778D02*
X176423873Y-125400683D01*
X176423873Y-125400683D02*
X176376254Y-125305445D01*
X176376254Y-125305445D02*
X176328635Y-125257826D01*
X176328635Y-125257826D02*
X176233397Y-125210207D01*
X176233397Y-125210207D02*
X176042921Y-125210207D01*
X176042921Y-125210207D02*
X175947683Y-125257826D01*
X175947683Y-125257826D02*
X175900064Y-125305445D01*
X175900064Y-125305445D02*
X175852445Y-125400683D01*
X162376252Y-127439199D02*
X162376252Y-126439199D01*
X162852442Y-127439199D02*
X162852442Y-126439199D01*
X162852442Y-126439199D02*
X163423870Y-127439199D01*
X163423870Y-127439199D02*
X163423870Y-126439199D01*
X163900061Y-127439199D02*
X163900061Y-126439199D01*
X163900061Y-126439199D02*
X164281013Y-126439199D01*
X164281013Y-126439199D02*
X164376251Y-126486818D01*
X164376251Y-126486818D02*
X164423870Y-126534437D01*
X164423870Y-126534437D02*
X164471489Y-126629675D01*
X164471489Y-126629675D02*
X164471489Y-126772532D01*
X164471489Y-126772532D02*
X164423870Y-126867770D01*
X164423870Y-126867770D02*
X164376251Y-126915389D01*
X164376251Y-126915389D02*
X164281013Y-126963008D01*
X164281013Y-126963008D02*
X163900061Y-126963008D01*
X164900061Y-126439199D02*
X164900061Y-127248722D01*
X164900061Y-127248722D02*
X164947680Y-127343960D01*
X164947680Y-127343960D02*
X164995299Y-127391580D01*
X164995299Y-127391580D02*
X165090537Y-127439199D01*
X165090537Y-127439199D02*
X165281013Y-127439199D01*
X165281013Y-127439199D02*
X165376251Y-127391580D01*
X165376251Y-127391580D02*
X165423870Y-127343960D01*
X165423870Y-127343960D02*
X165471489Y-127248722D01*
X165471489Y-127248722D02*
X165471489Y-126439199D01*
X165804823Y-126439199D02*
X166376251Y-126439199D01*
X166090537Y-127439199D02*
X166090537Y-126439199D01*
X250197680Y-135486699D02*
X249864347Y-135010508D01*
X249626252Y-135486699D02*
X249626252Y-134486699D01*
X249626252Y-134486699D02*
X250007204Y-134486699D01*
X250007204Y-134486699D02*
X250102442Y-134534318D01*
X250102442Y-134534318D02*
X250150061Y-134581937D01*
X250150061Y-134581937D02*
X250197680Y-134677175D01*
X250197680Y-134677175D02*
X250197680Y-134820032D01*
X250197680Y-134820032D02*
X250150061Y-134915270D01*
X250150061Y-134915270D02*
X250102442Y-134962889D01*
X250102442Y-134962889D02*
X250007204Y-135010508D01*
X250007204Y-135010508D02*
X249626252Y-135010508D01*
X251007204Y-135439080D02*
X250911966Y-135486699D01*
X250911966Y-135486699D02*
X250721490Y-135486699D01*
X250721490Y-135486699D02*
X250626252Y-135439080D01*
X250626252Y-135439080D02*
X250578633Y-135343841D01*
X250578633Y-135343841D02*
X250578633Y-134962889D01*
X250578633Y-134962889D02*
X250626252Y-134867651D01*
X250626252Y-134867651D02*
X250721490Y-134820032D01*
X250721490Y-134820032D02*
X250911966Y-134820032D01*
X250911966Y-134820032D02*
X251007204Y-134867651D01*
X251007204Y-134867651D02*
X251054823Y-134962889D01*
X251054823Y-134962889D02*
X251054823Y-135058127D01*
X251054823Y-135058127D02*
X250578633Y-135153365D01*
X251626252Y-135486699D02*
X251531014Y-135439080D01*
X251531014Y-135439080D02*
X251483395Y-135343841D01*
X251483395Y-135343841D02*
X251483395Y-134486699D01*
X252435776Y-135486699D02*
X252435776Y-134962889D01*
X252435776Y-134962889D02*
X252388157Y-134867651D01*
X252388157Y-134867651D02*
X252292919Y-134820032D01*
X252292919Y-134820032D02*
X252102443Y-134820032D01*
X252102443Y-134820032D02*
X252007205Y-134867651D01*
X252435776Y-135439080D02*
X252340538Y-135486699D01*
X252340538Y-135486699D02*
X252102443Y-135486699D01*
X252102443Y-135486699D02*
X252007205Y-135439080D01*
X252007205Y-135439080D02*
X251959586Y-135343841D01*
X251959586Y-135343841D02*
X251959586Y-135248603D01*
X251959586Y-135248603D02*
X252007205Y-135153365D01*
X252007205Y-135153365D02*
X252102443Y-135105746D01*
X252102443Y-135105746D02*
X252340538Y-135105746D01*
X252340538Y-135105746D02*
X252435776Y-135058127D01*
X252816729Y-134820032D02*
X253054824Y-135486699D01*
X253292919Y-134820032D02*
X253054824Y-135486699D01*
X253054824Y-135486699D02*
X252959586Y-135724794D01*
X252959586Y-135724794D02*
X252911967Y-135772413D01*
X252911967Y-135772413D02*
X252816729Y-135820032D01*
D11*
X183173558Y-110739638D02*
X183173558Y-108739638D01*
X184125939Y-109406304D02*
X184125939Y-110739638D01*
X184125939Y-109596780D02*
X184221177Y-109501542D01*
X184221177Y-109501542D02*
X184411653Y-109406304D01*
X184411653Y-109406304D02*
X184697368Y-109406304D01*
X184697368Y-109406304D02*
X184887844Y-109501542D01*
X184887844Y-109501542D02*
X184983082Y-109692019D01*
X184983082Y-109692019D02*
X184983082Y-110739638D01*
X185840225Y-110644400D02*
X186030701Y-110739638D01*
X186030701Y-110739638D02*
X186411653Y-110739638D01*
X186411653Y-110739638D02*
X186602130Y-110644400D01*
X186602130Y-110644400D02*
X186697368Y-110453923D01*
X186697368Y-110453923D02*
X186697368Y-110358685D01*
X186697368Y-110358685D02*
X186602130Y-110168209D01*
X186602130Y-110168209D02*
X186411653Y-110072971D01*
X186411653Y-110072971D02*
X186125939Y-110072971D01*
X186125939Y-110072971D02*
X185935463Y-109977733D01*
X185935463Y-109977733D02*
X185840225Y-109787257D01*
X185840225Y-109787257D02*
X185840225Y-109692019D01*
X185840225Y-109692019D02*
X185935463Y-109501542D01*
X185935463Y-109501542D02*
X186125939Y-109406304D01*
X186125939Y-109406304D02*
X186411653Y-109406304D01*
X186411653Y-109406304D02*
X186602130Y-109501542D01*
X187268797Y-109406304D02*
X188030701Y-109406304D01*
X187554511Y-108739638D02*
X187554511Y-110453923D01*
X187554511Y-110453923D02*
X187649749Y-110644400D01*
X187649749Y-110644400D02*
X187840225Y-110739638D01*
X187840225Y-110739638D02*
X188030701Y-110739638D01*
X188697368Y-110739638D02*
X188697368Y-109406304D01*
X188697368Y-109787257D02*
X188792606Y-109596780D01*
X188792606Y-109596780D02*
X188887844Y-109501542D01*
X188887844Y-109501542D02*
X189078320Y-109406304D01*
X189078320Y-109406304D02*
X189268797Y-109406304D01*
X190792606Y-109406304D02*
X190792606Y-110739638D01*
X189935463Y-109406304D02*
X189935463Y-110453923D01*
X189935463Y-110453923D02*
X190030701Y-110644400D01*
X190030701Y-110644400D02*
X190221177Y-110739638D01*
X190221177Y-110739638D02*
X190506892Y-110739638D01*
X190506892Y-110739638D02*
X190697368Y-110644400D01*
X190697368Y-110644400D02*
X190792606Y-110549161D01*
X191744987Y-110739638D02*
X191744987Y-109406304D01*
X191744987Y-109596780D02*
X191840225Y-109501542D01*
X191840225Y-109501542D02*
X192030701Y-109406304D01*
X192030701Y-109406304D02*
X192316416Y-109406304D01*
X192316416Y-109406304D02*
X192506892Y-109501542D01*
X192506892Y-109501542D02*
X192602130Y-109692019D01*
X192602130Y-109692019D02*
X192602130Y-110739638D01*
X192602130Y-109692019D02*
X192697368Y-109501542D01*
X192697368Y-109501542D02*
X192887844Y-109406304D01*
X192887844Y-109406304D02*
X193173558Y-109406304D01*
X193173558Y-109406304D02*
X193364035Y-109501542D01*
X193364035Y-109501542D02*
X193459273Y-109692019D01*
X193459273Y-109692019D02*
X193459273Y-110739638D01*
X195173559Y-110644400D02*
X194983083Y-110739638D01*
X194983083Y-110739638D02*
X194602130Y-110739638D01*
X194602130Y-110739638D02*
X194411654Y-110644400D01*
X194411654Y-110644400D02*
X194316416Y-110453923D01*
X194316416Y-110453923D02*
X194316416Y-109692019D01*
X194316416Y-109692019D02*
X194411654Y-109501542D01*
X194411654Y-109501542D02*
X194602130Y-109406304D01*
X194602130Y-109406304D02*
X194983083Y-109406304D01*
X194983083Y-109406304D02*
X195173559Y-109501542D01*
X195173559Y-109501542D02*
X195268797Y-109692019D01*
X195268797Y-109692019D02*
X195268797Y-109882495D01*
X195268797Y-109882495D02*
X194316416Y-110072971D01*
X196125940Y-109406304D02*
X196125940Y-110739638D01*
X196125940Y-109596780D02*
X196221178Y-109501542D01*
X196221178Y-109501542D02*
X196411654Y-109406304D01*
X196411654Y-109406304D02*
X196697369Y-109406304D01*
X196697369Y-109406304D02*
X196887845Y-109501542D01*
X196887845Y-109501542D02*
X196983083Y-109692019D01*
X196983083Y-109692019D02*
X196983083Y-110739638D01*
X197649750Y-109406304D02*
X198411654Y-109406304D01*
X197935464Y-108739638D02*
X197935464Y-110453923D01*
X197935464Y-110453923D02*
X198030702Y-110644400D01*
X198030702Y-110644400D02*
X198221178Y-110739638D01*
X198221178Y-110739638D02*
X198411654Y-110739638D01*
X199935464Y-110739638D02*
X199935464Y-109692019D01*
X199935464Y-109692019D02*
X199840226Y-109501542D01*
X199840226Y-109501542D02*
X199649750Y-109406304D01*
X199649750Y-109406304D02*
X199268797Y-109406304D01*
X199268797Y-109406304D02*
X199078321Y-109501542D01*
X199935464Y-110644400D02*
X199744988Y-110739638D01*
X199744988Y-110739638D02*
X199268797Y-110739638D01*
X199268797Y-110739638D02*
X199078321Y-110644400D01*
X199078321Y-110644400D02*
X198983083Y-110453923D01*
X198983083Y-110453923D02*
X198983083Y-110263447D01*
X198983083Y-110263447D02*
X199078321Y-110072971D01*
X199078321Y-110072971D02*
X199268797Y-109977733D01*
X199268797Y-109977733D02*
X199744988Y-109977733D01*
X199744988Y-109977733D02*
X199935464Y-109882495D01*
X200602131Y-109406304D02*
X201364035Y-109406304D01*
X200887845Y-108739638D02*
X200887845Y-110453923D01*
X200887845Y-110453923D02*
X200983083Y-110644400D01*
X200983083Y-110644400D02*
X201173559Y-110739638D01*
X201173559Y-110739638D02*
X201364035Y-110739638D01*
X202030702Y-110739638D02*
X202030702Y-109406304D01*
X202030702Y-108739638D02*
X201935464Y-108834876D01*
X201935464Y-108834876D02*
X202030702Y-108930114D01*
X202030702Y-108930114D02*
X202125940Y-108834876D01*
X202125940Y-108834876D02*
X202030702Y-108739638D01*
X202030702Y-108739638D02*
X202030702Y-108930114D01*
X203268797Y-110739638D02*
X203078321Y-110644400D01*
X203078321Y-110644400D02*
X202983083Y-110549161D01*
X202983083Y-110549161D02*
X202887845Y-110358685D01*
X202887845Y-110358685D02*
X202887845Y-109787257D01*
X202887845Y-109787257D02*
X202983083Y-109596780D01*
X202983083Y-109596780D02*
X203078321Y-109501542D01*
X203078321Y-109501542D02*
X203268797Y-109406304D01*
X203268797Y-109406304D02*
X203554512Y-109406304D01*
X203554512Y-109406304D02*
X203744988Y-109501542D01*
X203744988Y-109501542D02*
X203840226Y-109596780D01*
X203840226Y-109596780D02*
X203935464Y-109787257D01*
X203935464Y-109787257D02*
X203935464Y-110358685D01*
X203935464Y-110358685D02*
X203840226Y-110549161D01*
X203840226Y-110549161D02*
X203744988Y-110644400D01*
X203744988Y-110644400D02*
X203554512Y-110739638D01*
X203554512Y-110739638D02*
X203268797Y-110739638D01*
X204792607Y-109406304D02*
X204792607Y-110739638D01*
X204792607Y-109596780D02*
X204887845Y-109501542D01*
X204887845Y-109501542D02*
X205078321Y-109406304D01*
X205078321Y-109406304D02*
X205364036Y-109406304D01*
X205364036Y-109406304D02*
X205554512Y-109501542D01*
X205554512Y-109501542D02*
X205649750Y-109692019D01*
X205649750Y-109692019D02*
X205649750Y-110739638D01*
X208030703Y-110644400D02*
X208316417Y-110739638D01*
X208316417Y-110739638D02*
X208792608Y-110739638D01*
X208792608Y-110739638D02*
X208983084Y-110644400D01*
X208983084Y-110644400D02*
X209078322Y-110549161D01*
X209078322Y-110549161D02*
X209173560Y-110358685D01*
X209173560Y-110358685D02*
X209173560Y-110168209D01*
X209173560Y-110168209D02*
X209078322Y-109977733D01*
X209078322Y-109977733D02*
X208983084Y-109882495D01*
X208983084Y-109882495D02*
X208792608Y-109787257D01*
X208792608Y-109787257D02*
X208411655Y-109692019D01*
X208411655Y-109692019D02*
X208221179Y-109596780D01*
X208221179Y-109596780D02*
X208125941Y-109501542D01*
X208125941Y-109501542D02*
X208030703Y-109311066D01*
X208030703Y-109311066D02*
X208030703Y-109120590D01*
X208030703Y-109120590D02*
X208125941Y-108930114D01*
X208125941Y-108930114D02*
X208221179Y-108834876D01*
X208221179Y-108834876D02*
X208411655Y-108739638D01*
X208411655Y-108739638D02*
X208887846Y-108739638D01*
X208887846Y-108739638D02*
X209173560Y-108834876D01*
X209840227Y-109406304D02*
X210316417Y-110739638D01*
X210792608Y-109406304D02*
X210316417Y-110739638D01*
X210316417Y-110739638D02*
X210125941Y-111215828D01*
X210125941Y-111215828D02*
X210030703Y-111311066D01*
X210030703Y-111311066D02*
X209840227Y-111406304D01*
X211459275Y-110644400D02*
X211649751Y-110739638D01*
X211649751Y-110739638D02*
X212030703Y-110739638D01*
X212030703Y-110739638D02*
X212221180Y-110644400D01*
X212221180Y-110644400D02*
X212316418Y-110453923D01*
X212316418Y-110453923D02*
X212316418Y-110358685D01*
X212316418Y-110358685D02*
X212221180Y-110168209D01*
X212221180Y-110168209D02*
X212030703Y-110072971D01*
X212030703Y-110072971D02*
X211744989Y-110072971D01*
X211744989Y-110072971D02*
X211554513Y-109977733D01*
X211554513Y-109977733D02*
X211459275Y-109787257D01*
X211459275Y-109787257D02*
X211459275Y-109692019D01*
X211459275Y-109692019D02*
X211554513Y-109501542D01*
X211554513Y-109501542D02*
X211744989Y-109406304D01*
X211744989Y-109406304D02*
X212030703Y-109406304D01*
X212030703Y-109406304D02*
X212221180Y-109501542D01*
X212887847Y-109406304D02*
X213649751Y-109406304D01*
X213173561Y-108739638D02*
X213173561Y-110453923D01*
X213173561Y-110453923D02*
X213268799Y-110644400D01*
X213268799Y-110644400D02*
X213459275Y-110739638D01*
X213459275Y-110739638D02*
X213649751Y-110739638D01*
X215078323Y-110644400D02*
X214887847Y-110739638D01*
X214887847Y-110739638D02*
X214506894Y-110739638D01*
X214506894Y-110739638D02*
X214316418Y-110644400D01*
X214316418Y-110644400D02*
X214221180Y-110453923D01*
X214221180Y-110453923D02*
X214221180Y-109692019D01*
X214221180Y-109692019D02*
X214316418Y-109501542D01*
X214316418Y-109501542D02*
X214506894Y-109406304D01*
X214506894Y-109406304D02*
X214887847Y-109406304D01*
X214887847Y-109406304D02*
X215078323Y-109501542D01*
X215078323Y-109501542D02*
X215173561Y-109692019D01*
X215173561Y-109692019D02*
X215173561Y-109882495D01*
X215173561Y-109882495D02*
X214221180Y-110072971D01*
X216030704Y-110739638D02*
X216030704Y-109406304D01*
X216030704Y-109596780D02*
X216125942Y-109501542D01*
X216125942Y-109501542D02*
X216316418Y-109406304D01*
X216316418Y-109406304D02*
X216602133Y-109406304D01*
X216602133Y-109406304D02*
X216792609Y-109501542D01*
X216792609Y-109501542D02*
X216887847Y-109692019D01*
X216887847Y-109692019D02*
X216887847Y-110739638D01*
X216887847Y-109692019D02*
X216983085Y-109501542D01*
X216983085Y-109501542D02*
X217173561Y-109406304D01*
X217173561Y-109406304D02*
X217459275Y-109406304D01*
X217459275Y-109406304D02*
X217649752Y-109501542D01*
X217649752Y-109501542D02*
X217744990Y-109692019D01*
X217744990Y-109692019D02*
X217744990Y-110739638D01*
X220887848Y-109692019D02*
X221173562Y-109787257D01*
X221173562Y-109787257D02*
X221268800Y-109882495D01*
X221268800Y-109882495D02*
X221364038Y-110072971D01*
X221364038Y-110072971D02*
X221364038Y-110358685D01*
X221364038Y-110358685D02*
X221268800Y-110549161D01*
X221268800Y-110549161D02*
X221173562Y-110644400D01*
X221173562Y-110644400D02*
X220983086Y-110739638D01*
X220983086Y-110739638D02*
X220221181Y-110739638D01*
X220221181Y-110739638D02*
X220221181Y-108739638D01*
X220221181Y-108739638D02*
X220887848Y-108739638D01*
X220887848Y-108739638D02*
X221078324Y-108834876D01*
X221078324Y-108834876D02*
X221173562Y-108930114D01*
X221173562Y-108930114D02*
X221268800Y-109120590D01*
X221268800Y-109120590D02*
X221268800Y-109311066D01*
X221268800Y-109311066D02*
X221173562Y-109501542D01*
X221173562Y-109501542D02*
X221078324Y-109596780D01*
X221078324Y-109596780D02*
X220887848Y-109692019D01*
X220887848Y-109692019D02*
X220221181Y-109692019D01*
X222506895Y-110739638D02*
X222316419Y-110644400D01*
X222316419Y-110644400D02*
X222221181Y-110549161D01*
X222221181Y-110549161D02*
X222125943Y-110358685D01*
X222125943Y-110358685D02*
X222125943Y-109787257D01*
X222125943Y-109787257D02*
X222221181Y-109596780D01*
X222221181Y-109596780D02*
X222316419Y-109501542D01*
X222316419Y-109501542D02*
X222506895Y-109406304D01*
X222506895Y-109406304D02*
X222792610Y-109406304D01*
X222792610Y-109406304D02*
X222983086Y-109501542D01*
X222983086Y-109501542D02*
X223078324Y-109596780D01*
X223078324Y-109596780D02*
X223173562Y-109787257D01*
X223173562Y-109787257D02*
X223173562Y-110358685D01*
X223173562Y-110358685D02*
X223078324Y-110549161D01*
X223078324Y-110549161D02*
X222983086Y-110644400D01*
X222983086Y-110644400D02*
X222792610Y-110739638D01*
X222792610Y-110739638D02*
X222506895Y-110739638D01*
X224887848Y-110739638D02*
X224887848Y-109692019D01*
X224887848Y-109692019D02*
X224792610Y-109501542D01*
X224792610Y-109501542D02*
X224602134Y-109406304D01*
X224602134Y-109406304D02*
X224221181Y-109406304D01*
X224221181Y-109406304D02*
X224030705Y-109501542D01*
X224887848Y-110644400D02*
X224697372Y-110739638D01*
X224697372Y-110739638D02*
X224221181Y-110739638D01*
X224221181Y-110739638D02*
X224030705Y-110644400D01*
X224030705Y-110644400D02*
X223935467Y-110453923D01*
X223935467Y-110453923D02*
X223935467Y-110263447D01*
X223935467Y-110263447D02*
X224030705Y-110072971D01*
X224030705Y-110072971D02*
X224221181Y-109977733D01*
X224221181Y-109977733D02*
X224697372Y-109977733D01*
X224697372Y-109977733D02*
X224887848Y-109882495D01*
X225840229Y-110739638D02*
X225840229Y-109406304D01*
X225840229Y-109787257D02*
X225935467Y-109596780D01*
X225935467Y-109596780D02*
X226030705Y-109501542D01*
X226030705Y-109501542D02*
X226221181Y-109406304D01*
X226221181Y-109406304D02*
X226411658Y-109406304D01*
X227935467Y-110739638D02*
X227935467Y-108739638D01*
X227935467Y-110644400D02*
X227744991Y-110739638D01*
X227744991Y-110739638D02*
X227364038Y-110739638D01*
X227364038Y-110739638D02*
X227173562Y-110644400D01*
X227173562Y-110644400D02*
X227078324Y-110549161D01*
X227078324Y-110549161D02*
X226983086Y-110358685D01*
X226983086Y-110358685D02*
X226983086Y-109787257D01*
X226983086Y-109787257D02*
X227078324Y-109596780D01*
X227078324Y-109596780D02*
X227173562Y-109501542D01*
X227173562Y-109501542D02*
X227364038Y-109406304D01*
X227364038Y-109406304D02*
X227744991Y-109406304D01*
X227744991Y-109406304D02*
X227935467Y-109501542D01*
D10*
X237733395Y-120256755D02*
X238066728Y-121256755D01*
X238066728Y-121256755D02*
X238400061Y-120256755D01*
X238876252Y-121256755D02*
X238781014Y-121209136D01*
X238781014Y-121209136D02*
X238733395Y-121161516D01*
X238733395Y-121161516D02*
X238685776Y-121066278D01*
X238685776Y-121066278D02*
X238685776Y-120780564D01*
X238685776Y-120780564D02*
X238733395Y-120685326D01*
X238733395Y-120685326D02*
X238781014Y-120637707D01*
X238781014Y-120637707D02*
X238876252Y-120590088D01*
X238876252Y-120590088D02*
X239019109Y-120590088D01*
X239019109Y-120590088D02*
X239114347Y-120637707D01*
X239114347Y-120637707D02*
X239161966Y-120685326D01*
X239161966Y-120685326D02*
X239209585Y-120780564D01*
X239209585Y-120780564D02*
X239209585Y-121066278D01*
X239209585Y-121066278D02*
X239161966Y-121161516D01*
X239161966Y-121161516D02*
X239114347Y-121209136D01*
X239114347Y-121209136D02*
X239019109Y-121256755D01*
X239019109Y-121256755D02*
X238876252Y-121256755D01*
X239781014Y-121256755D02*
X239685776Y-121209136D01*
X239685776Y-121209136D02*
X239638157Y-121113897D01*
X239638157Y-121113897D02*
X239638157Y-120256755D01*
X240019110Y-120590088D02*
X240400062Y-120590088D01*
X240161967Y-120256755D02*
X240161967Y-121113897D01*
X240161967Y-121113897D02*
X240209586Y-121209136D01*
X240209586Y-121209136D02*
X240304824Y-121256755D01*
X240304824Y-121256755D02*
X240400062Y-121256755D01*
X240733396Y-121256755D02*
X240733396Y-120590088D01*
X240733396Y-120685326D02*
X240781015Y-120637707D01*
X240781015Y-120637707D02*
X240876253Y-120590088D01*
X240876253Y-120590088D02*
X241019110Y-120590088D01*
X241019110Y-120590088D02*
X241114348Y-120637707D01*
X241114348Y-120637707D02*
X241161967Y-120732945D01*
X241161967Y-120732945D02*
X241161967Y-121256755D01*
X241161967Y-120732945D02*
X241209586Y-120637707D01*
X241209586Y-120637707D02*
X241304824Y-120590088D01*
X241304824Y-120590088D02*
X241447681Y-120590088D01*
X241447681Y-120590088D02*
X241542920Y-120637707D01*
X241542920Y-120637707D02*
X241590539Y-120732945D01*
X241590539Y-120732945D02*
X241590539Y-121256755D01*
X242447681Y-121209136D02*
X242352443Y-121256755D01*
X242352443Y-121256755D02*
X242161967Y-121256755D01*
X242161967Y-121256755D02*
X242066729Y-121209136D01*
X242066729Y-121209136D02*
X242019110Y-121113897D01*
X242019110Y-121113897D02*
X242019110Y-120732945D01*
X242019110Y-120732945D02*
X242066729Y-120637707D01*
X242066729Y-120637707D02*
X242161967Y-120590088D01*
X242161967Y-120590088D02*
X242352443Y-120590088D01*
X242352443Y-120590088D02*
X242447681Y-120637707D01*
X242447681Y-120637707D02*
X242495300Y-120732945D01*
X242495300Y-120732945D02*
X242495300Y-120828183D01*
X242495300Y-120828183D02*
X242019110Y-120923421D01*
X242781015Y-120590088D02*
X243161967Y-120590088D01*
X242923872Y-120256755D02*
X242923872Y-121113897D01*
X242923872Y-121113897D02*
X242971491Y-121209136D01*
X242971491Y-121209136D02*
X243066729Y-121256755D01*
X243066729Y-121256755D02*
X243161967Y-121256755D01*
X243876253Y-121209136D02*
X243781015Y-121256755D01*
X243781015Y-121256755D02*
X243590539Y-121256755D01*
X243590539Y-121256755D02*
X243495301Y-121209136D01*
X243495301Y-121209136D02*
X243447682Y-121113897D01*
X243447682Y-121113897D02*
X243447682Y-120732945D01*
X243447682Y-120732945D02*
X243495301Y-120637707D01*
X243495301Y-120637707D02*
X243590539Y-120590088D01*
X243590539Y-120590088D02*
X243781015Y-120590088D01*
X243781015Y-120590088D02*
X243876253Y-120637707D01*
X243876253Y-120637707D02*
X243923872Y-120732945D01*
X243923872Y-120732945D02*
X243923872Y-120828183D01*
X243923872Y-120828183D02*
X243447682Y-120923421D01*
X244352444Y-121256755D02*
X244352444Y-120590088D01*
X244352444Y-120780564D02*
X244400063Y-120685326D01*
X244400063Y-120685326D02*
X244447682Y-120637707D01*
X244447682Y-120637707D02*
X244542920Y-120590088D01*
X244542920Y-120590088D02*
X244638158Y-120590088D01*
X245685778Y-120971040D02*
X246161968Y-120971040D01*
X245590540Y-121256755D02*
X245923873Y-120256755D01*
X245923873Y-120256755D02*
X246257206Y-121256755D01*
X246590540Y-121256755D02*
X246590540Y-120256755D01*
X246590540Y-120256755D02*
X246828635Y-120256755D01*
X246828635Y-120256755D02*
X246971492Y-120304374D01*
X246971492Y-120304374D02*
X247066730Y-120399612D01*
X247066730Y-120399612D02*
X247114349Y-120494850D01*
X247114349Y-120494850D02*
X247161968Y-120685326D01*
X247161968Y-120685326D02*
X247161968Y-120828183D01*
X247161968Y-120828183D02*
X247114349Y-121018659D01*
X247114349Y-121018659D02*
X247066730Y-121113897D01*
X247066730Y-121113897D02*
X246971492Y-121209136D01*
X246971492Y-121209136D02*
X246828635Y-121256755D01*
X246828635Y-121256755D02*
X246590540Y-121256755D01*
X247542921Y-121209136D02*
X247685778Y-121256755D01*
X247685778Y-121256755D02*
X247923873Y-121256755D01*
X247923873Y-121256755D02*
X248019111Y-121209136D01*
X248019111Y-121209136D02*
X248066730Y-121161516D01*
X248066730Y-121161516D02*
X248114349Y-121066278D01*
X248114349Y-121066278D02*
X248114349Y-120971040D01*
X248114349Y-120971040D02*
X248066730Y-120875802D01*
X248066730Y-120875802D02*
X248019111Y-120828183D01*
X248019111Y-120828183D02*
X247923873Y-120780564D01*
X247923873Y-120780564D02*
X247733397Y-120732945D01*
X247733397Y-120732945D02*
X247638159Y-120685326D01*
X247638159Y-120685326D02*
X247590540Y-120637707D01*
X247590540Y-120637707D02*
X247542921Y-120542469D01*
X247542921Y-120542469D02*
X247542921Y-120447231D01*
X247542921Y-120447231D02*
X247590540Y-120351993D01*
X247590540Y-120351993D02*
X247638159Y-120304374D01*
X247638159Y-120304374D02*
X247733397Y-120256755D01*
X247733397Y-120256755D02*
X247971492Y-120256755D01*
X247971492Y-120256755D02*
X248114349Y-120304374D01*
X249066730Y-121256755D02*
X248495302Y-121256755D01*
X248781016Y-121256755D02*
X248781016Y-120256755D01*
X248781016Y-120256755D02*
X248685778Y-120399612D01*
X248685778Y-120399612D02*
X248590540Y-120494850D01*
X248590540Y-120494850D02*
X248495302Y-120542469D01*
X249447683Y-120351993D02*
X249495302Y-120304374D01*
X249495302Y-120304374D02*
X249590540Y-120256755D01*
X249590540Y-120256755D02*
X249828635Y-120256755D01*
X249828635Y-120256755D02*
X249923873Y-120304374D01*
X249923873Y-120304374D02*
X249971492Y-120351993D01*
X249971492Y-120351993D02*
X250019111Y-120447231D01*
X250019111Y-120447231D02*
X250019111Y-120542469D01*
X250019111Y-120542469D02*
X249971492Y-120685326D01*
X249971492Y-120685326D02*
X249400064Y-121256755D01*
X249400064Y-121256755D02*
X250019111Y-121256755D01*
X250923873Y-120256755D02*
X250447683Y-120256755D01*
X250447683Y-120256755D02*
X250400064Y-120732945D01*
X250400064Y-120732945D02*
X250447683Y-120685326D01*
X250447683Y-120685326D02*
X250542921Y-120637707D01*
X250542921Y-120637707D02*
X250781016Y-120637707D01*
X250781016Y-120637707D02*
X250876254Y-120685326D01*
X250876254Y-120685326D02*
X250923873Y-120732945D01*
X250923873Y-120732945D02*
X250971492Y-120828183D01*
X250971492Y-120828183D02*
X250971492Y-121066278D01*
X250971492Y-121066278D02*
X250923873Y-121161516D01*
X250923873Y-121161516D02*
X250876254Y-121209136D01*
X250876254Y-121209136D02*
X250781016Y-121256755D01*
X250781016Y-121256755D02*
X250542921Y-121256755D01*
X250542921Y-121256755D02*
X250447683Y-121209136D01*
X250447683Y-121209136D02*
X250400064Y-121161516D01*
X251828635Y-120256755D02*
X251638159Y-120256755D01*
X251638159Y-120256755D02*
X251542921Y-120304374D01*
X251542921Y-120304374D02*
X251495302Y-120351993D01*
X251495302Y-120351993D02*
X251400064Y-120494850D01*
X251400064Y-120494850D02*
X251352445Y-120685326D01*
X251352445Y-120685326D02*
X251352445Y-121066278D01*
X251352445Y-121066278D02*
X251400064Y-121161516D01*
X251400064Y-121161516D02*
X251447683Y-121209136D01*
X251447683Y-121209136D02*
X251542921Y-121256755D01*
X251542921Y-121256755D02*
X251733397Y-121256755D01*
X251733397Y-121256755D02*
X251828635Y-121209136D01*
X251828635Y-121209136D02*
X251876254Y-121161516D01*
X251876254Y-121161516D02*
X251923873Y-121066278D01*
X251923873Y-121066278D02*
X251923873Y-120828183D01*
X251923873Y-120828183D02*
X251876254Y-120732945D01*
X251876254Y-120732945D02*
X251828635Y-120685326D01*
X251828635Y-120685326D02*
X251733397Y-120637707D01*
X251733397Y-120637707D02*
X251542921Y-120637707D01*
X251542921Y-120637707D02*
X251447683Y-120685326D01*
X251447683Y-120685326D02*
X251400064Y-120732945D01*
X251400064Y-120732945D02*
X251352445Y-120828183D01*
X238066728Y-121866699D02*
X238257204Y-121866699D01*
X238257204Y-121866699D02*
X238352442Y-121914318D01*
X238352442Y-121914318D02*
X238447680Y-122009556D01*
X238447680Y-122009556D02*
X238495299Y-122200032D01*
X238495299Y-122200032D02*
X238495299Y-122533365D01*
X238495299Y-122533365D02*
X238447680Y-122723841D01*
X238447680Y-122723841D02*
X238352442Y-122819080D01*
X238352442Y-122819080D02*
X238257204Y-122866699D01*
X238257204Y-122866699D02*
X238066728Y-122866699D01*
X238066728Y-122866699D02*
X237971490Y-122819080D01*
X237971490Y-122819080D02*
X237876252Y-122723841D01*
X237876252Y-122723841D02*
X237828633Y-122533365D01*
X237828633Y-122533365D02*
X237828633Y-122200032D01*
X237828633Y-122200032D02*
X237876252Y-122009556D01*
X237876252Y-122009556D02*
X237971490Y-121914318D01*
X237971490Y-121914318D02*
X238066728Y-121866699D01*
X238923871Y-121866699D02*
X238923871Y-122676222D01*
X238923871Y-122676222D02*
X238971490Y-122771460D01*
X238971490Y-122771460D02*
X239019109Y-122819080D01*
X239019109Y-122819080D02*
X239114347Y-122866699D01*
X239114347Y-122866699D02*
X239304823Y-122866699D01*
X239304823Y-122866699D02*
X239400061Y-122819080D01*
X239400061Y-122819080D02*
X239447680Y-122771460D01*
X239447680Y-122771460D02*
X239495299Y-122676222D01*
X239495299Y-122676222D02*
X239495299Y-121866699D01*
X239828633Y-121866699D02*
X240400061Y-121866699D01*
X240114347Y-122866699D02*
X240114347Y-121866699D01*
X162852442Y-146866699D02*
X162376252Y-146866699D01*
X162376252Y-146866699D02*
X162376252Y-145866699D01*
X163185776Y-146866699D02*
X163185776Y-145866699D01*
X163185776Y-145866699D02*
X163423871Y-145866699D01*
X163423871Y-145866699D02*
X163566728Y-145914318D01*
X163566728Y-145914318D02*
X163661966Y-146009556D01*
X163661966Y-146009556D02*
X163709585Y-146104794D01*
X163709585Y-146104794D02*
X163757204Y-146295270D01*
X163757204Y-146295270D02*
X163757204Y-146438127D01*
X163757204Y-146438127D02*
X163709585Y-146628603D01*
X163709585Y-146628603D02*
X163661966Y-146723841D01*
X163661966Y-146723841D02*
X163566728Y-146819080D01*
X163566728Y-146819080D02*
X163423871Y-146866699D01*
X163423871Y-146866699D02*
X163185776Y-146866699D01*
X164376252Y-145866699D02*
X164566728Y-145866699D01*
X164566728Y-145866699D02*
X164661966Y-145914318D01*
X164661966Y-145914318D02*
X164757204Y-146009556D01*
X164757204Y-146009556D02*
X164804823Y-146200032D01*
X164804823Y-146200032D02*
X164804823Y-146533365D01*
X164804823Y-146533365D02*
X164757204Y-146723841D01*
X164757204Y-146723841D02*
X164661966Y-146819080D01*
X164661966Y-146819080D02*
X164566728Y-146866699D01*
X164566728Y-146866699D02*
X164376252Y-146866699D01*
X164376252Y-146866699D02*
X164281014Y-146819080D01*
X164281014Y-146819080D02*
X164185776Y-146723841D01*
X164185776Y-146723841D02*
X164138157Y-146533365D01*
X164138157Y-146533365D02*
X164138157Y-146200032D01*
X164138157Y-146200032D02*
X164185776Y-146009556D01*
X164185776Y-146009556D02*
X164281014Y-145914318D01*
X164281014Y-145914318D02*
X164376252Y-145866699D01*
X166471490Y-145866699D02*
X165995300Y-145866699D01*
X165995300Y-145866699D02*
X165947681Y-146342889D01*
X165947681Y-146342889D02*
X165995300Y-146295270D01*
X165995300Y-146295270D02*
X166090538Y-146247651D01*
X166090538Y-146247651D02*
X166328633Y-146247651D01*
X166328633Y-146247651D02*
X166423871Y-146295270D01*
X166423871Y-146295270D02*
X166471490Y-146342889D01*
X166471490Y-146342889D02*
X166519109Y-146438127D01*
X166519109Y-146438127D02*
X166519109Y-146676222D01*
X166519109Y-146676222D02*
X166471490Y-146771460D01*
X166471490Y-146771460D02*
X166423871Y-146819080D01*
X166423871Y-146819080D02*
X166328633Y-146866699D01*
X166328633Y-146866699D02*
X166090538Y-146866699D01*
X166090538Y-146866699D02*
X165995300Y-146819080D01*
X165995300Y-146819080D02*
X165947681Y-146771460D01*
X166804824Y-145866699D02*
X167138157Y-146866699D01*
X167138157Y-146866699D02*
X167471490Y-145866699D01*
D12*
X206833333Y-144824819D02*
X206500000Y-144348628D01*
X206261905Y-144824819D02*
X206261905Y-143824819D01*
X206261905Y-143824819D02*
X206642857Y-143824819D01*
X206642857Y-143824819D02*
X206738095Y-143872438D01*
X206738095Y-143872438D02*
X206785714Y-143920057D01*
X206785714Y-143920057D02*
X206833333Y-144015295D01*
X206833333Y-144015295D02*
X206833333Y-144158152D01*
X206833333Y-144158152D02*
X206785714Y-144253390D01*
X206785714Y-144253390D02*
X206738095Y-144301009D01*
X206738095Y-144301009D02*
X206642857Y-144348628D01*
X206642857Y-144348628D02*
X206261905Y-144348628D01*
X207738095Y-143824819D02*
X207261905Y-143824819D01*
X207261905Y-143824819D02*
X207214286Y-144301009D01*
X207214286Y-144301009D02*
X207261905Y-144253390D01*
X207261905Y-144253390D02*
X207357143Y-144205771D01*
X207357143Y-144205771D02*
X207595238Y-144205771D01*
X207595238Y-144205771D02*
X207690476Y-144253390D01*
X207690476Y-144253390D02*
X207738095Y-144301009D01*
X207738095Y-144301009D02*
X207785714Y-144396247D01*
X207785714Y-144396247D02*
X207785714Y-144634342D01*
X207785714Y-144634342D02*
X207738095Y-144729580D01*
X207738095Y-144729580D02*
X207690476Y-144777200D01*
X207690476Y-144777200D02*
X207595238Y-144824819D01*
X207595238Y-144824819D02*
X207357143Y-144824819D01*
X207357143Y-144824819D02*
X207261905Y-144777200D01*
X207261905Y-144777200D02*
X207214286Y-144729580D01*
D13*
X152237833Y-131059695D02*
X152237833Y-131631123D01*
X152237833Y-131631123D02*
X152199738Y-131745409D01*
X152199738Y-131745409D02*
X152123547Y-131821600D01*
X152123547Y-131821600D02*
X152009262Y-131859695D01*
X152009262Y-131859695D02*
X151933071Y-131859695D01*
X153037833Y-131859695D02*
X152580690Y-131859695D01*
X152809262Y-131859695D02*
X152809262Y-131059695D01*
X152809262Y-131059695D02*
X152733071Y-131173980D01*
X152733071Y-131173980D02*
X152656881Y-131250171D01*
X152656881Y-131250171D02*
X152580690Y-131288266D01*
D12*
X223833333Y-144584819D02*
X223500000Y-144108628D01*
X223261905Y-144584819D02*
X223261905Y-143584819D01*
X223261905Y-143584819D02*
X223642857Y-143584819D01*
X223642857Y-143584819D02*
X223738095Y-143632438D01*
X223738095Y-143632438D02*
X223785714Y-143680057D01*
X223785714Y-143680057D02*
X223833333Y-143775295D01*
X223833333Y-143775295D02*
X223833333Y-143918152D01*
X223833333Y-143918152D02*
X223785714Y-144013390D01*
X223785714Y-144013390D02*
X223738095Y-144061009D01*
X223738095Y-144061009D02*
X223642857Y-144108628D01*
X223642857Y-144108628D02*
X223261905Y-144108628D01*
X224166667Y-143584819D02*
X224833333Y-143584819D01*
X224833333Y-143584819D02*
X224404762Y-144584819D01*
D10*
X160316699Y-117923333D02*
X161030984Y-117923333D01*
X161030984Y-117923333D02*
X161173841Y-117970952D01*
X161173841Y-117970952D02*
X161269080Y-118066190D01*
X161269080Y-118066190D02*
X161316699Y-118209047D01*
X161316699Y-118209047D02*
X161316699Y-118304285D01*
X160316699Y-117018571D02*
X160316699Y-117209047D01*
X160316699Y-117209047D02*
X160364318Y-117304285D01*
X160364318Y-117304285D02*
X160411937Y-117351904D01*
X160411937Y-117351904D02*
X160554794Y-117447142D01*
X160554794Y-117447142D02*
X160745270Y-117494761D01*
X160745270Y-117494761D02*
X161126222Y-117494761D01*
X161126222Y-117494761D02*
X161221460Y-117447142D01*
X161221460Y-117447142D02*
X161269080Y-117399523D01*
X161269080Y-117399523D02*
X161316699Y-117304285D01*
X161316699Y-117304285D02*
X161316699Y-117113809D01*
X161316699Y-117113809D02*
X161269080Y-117018571D01*
X161269080Y-117018571D02*
X161221460Y-116970952D01*
X161221460Y-116970952D02*
X161126222Y-116923333D01*
X161126222Y-116923333D02*
X160888127Y-116923333D01*
X160888127Y-116923333D02*
X160792889Y-116970952D01*
X160792889Y-116970952D02*
X160745270Y-117018571D01*
X160745270Y-117018571D02*
X160697651Y-117113809D01*
X160697651Y-117113809D02*
X160697651Y-117304285D01*
X160697651Y-117304285D02*
X160745270Y-117399523D01*
X160745270Y-117399523D02*
X160792889Y-117447142D01*
X160792889Y-117447142D02*
X160888127Y-117494761D01*
X265405714Y-97465984D02*
X265881904Y-97465984D01*
X265310476Y-97751699D02*
X265643809Y-96751699D01*
X265643809Y-96751699D02*
X265977142Y-97751699D01*
X266834285Y-97751699D02*
X266262857Y-97751699D01*
X266548571Y-97751699D02*
X266548571Y-96751699D01*
X266548571Y-96751699D02*
X266453333Y-96894556D01*
X266453333Y-96894556D02*
X266358095Y-96989794D01*
X266358095Y-96989794D02*
X266262857Y-97037413D01*
X264858095Y-137391699D02*
X264858095Y-138201222D01*
X264858095Y-138201222D02*
X264905714Y-138296460D01*
X264905714Y-138296460D02*
X264953333Y-138344080D01*
X264953333Y-138344080D02*
X265048571Y-138391699D01*
X265048571Y-138391699D02*
X265239047Y-138391699D01*
X265239047Y-138391699D02*
X265334285Y-138344080D01*
X265334285Y-138344080D02*
X265381904Y-138296460D01*
X265381904Y-138296460D02*
X265429523Y-138201222D01*
X265429523Y-138201222D02*
X265429523Y-137391699D01*
X265858095Y-138344080D02*
X266000952Y-138391699D01*
X266000952Y-138391699D02*
X266239047Y-138391699D01*
X266239047Y-138391699D02*
X266334285Y-138344080D01*
X266334285Y-138344080D02*
X266381904Y-138296460D01*
X266381904Y-138296460D02*
X266429523Y-138201222D01*
X266429523Y-138201222D02*
X266429523Y-138105984D01*
X266429523Y-138105984D02*
X266381904Y-138010746D01*
X266381904Y-138010746D02*
X266334285Y-137963127D01*
X266334285Y-137963127D02*
X266239047Y-137915508D01*
X266239047Y-137915508D02*
X266048571Y-137867889D01*
X266048571Y-137867889D02*
X265953333Y-137820270D01*
X265953333Y-137820270D02*
X265905714Y-137772651D01*
X265905714Y-137772651D02*
X265858095Y-137677413D01*
X265858095Y-137677413D02*
X265858095Y-137582175D01*
X265858095Y-137582175D02*
X265905714Y-137486937D01*
X265905714Y-137486937D02*
X265953333Y-137439318D01*
X265953333Y-137439318D02*
X266048571Y-137391699D01*
X266048571Y-137391699D02*
X266286666Y-137391699D01*
X266286666Y-137391699D02*
X266429523Y-137439318D01*
X267191428Y-137867889D02*
X267334285Y-137915508D01*
X267334285Y-137915508D02*
X267381904Y-137963127D01*
X267381904Y-137963127D02*
X267429523Y-138058365D01*
X267429523Y-138058365D02*
X267429523Y-138201222D01*
X267429523Y-138201222D02*
X267381904Y-138296460D01*
X267381904Y-138296460D02*
X267334285Y-138344080D01*
X267334285Y-138344080D02*
X267239047Y-138391699D01*
X267239047Y-138391699D02*
X266858095Y-138391699D01*
X266858095Y-138391699D02*
X266858095Y-137391699D01*
X266858095Y-137391699D02*
X267191428Y-137391699D01*
X267191428Y-137391699D02*
X267286666Y-137439318D01*
X267286666Y-137439318D02*
X267334285Y-137486937D01*
X267334285Y-137486937D02*
X267381904Y-137582175D01*
X267381904Y-137582175D02*
X267381904Y-137677413D01*
X267381904Y-137677413D02*
X267334285Y-137772651D01*
X267334285Y-137772651D02*
X267286666Y-137820270D01*
X267286666Y-137820270D02*
X267191428Y-137867889D01*
X267191428Y-137867889D02*
X266858095Y-137867889D01*
X237816699Y-132778333D02*
X238530984Y-132778333D01*
X238530984Y-132778333D02*
X238673841Y-132825952D01*
X238673841Y-132825952D02*
X238769080Y-132921190D01*
X238769080Y-132921190D02*
X238816699Y-133064047D01*
X238816699Y-133064047D02*
X238816699Y-133159285D01*
X238245270Y-132159285D02*
X238197651Y-132254523D01*
X238197651Y-132254523D02*
X238150032Y-132302142D01*
X238150032Y-132302142D02*
X238054794Y-132349761D01*
X238054794Y-132349761D02*
X238007175Y-132349761D01*
X238007175Y-132349761D02*
X237911937Y-132302142D01*
X237911937Y-132302142D02*
X237864318Y-132254523D01*
X237864318Y-132254523D02*
X237816699Y-132159285D01*
X237816699Y-132159285D02*
X237816699Y-131968809D01*
X237816699Y-131968809D02*
X237864318Y-131873571D01*
X237864318Y-131873571D02*
X237911937Y-131825952D01*
X237911937Y-131825952D02*
X238007175Y-131778333D01*
X238007175Y-131778333D02*
X238054794Y-131778333D01*
X238054794Y-131778333D02*
X238150032Y-131825952D01*
X238150032Y-131825952D02*
X238197651Y-131873571D01*
X238197651Y-131873571D02*
X238245270Y-131968809D01*
X238245270Y-131968809D02*
X238245270Y-132159285D01*
X238245270Y-132159285D02*
X238292889Y-132254523D01*
X238292889Y-132254523D02*
X238340508Y-132302142D01*
X238340508Y-132302142D02*
X238435746Y-132349761D01*
X238435746Y-132349761D02*
X238626222Y-132349761D01*
X238626222Y-132349761D02*
X238721460Y-132302142D01*
X238721460Y-132302142D02*
X238769080Y-132254523D01*
X238769080Y-132254523D02*
X238816699Y-132159285D01*
X238816699Y-132159285D02*
X238816699Y-131968809D01*
X238816699Y-131968809D02*
X238769080Y-131873571D01*
X238769080Y-131873571D02*
X238721460Y-131825952D01*
X238721460Y-131825952D02*
X238626222Y-131778333D01*
X238626222Y-131778333D02*
X238435746Y-131778333D01*
X238435746Y-131778333D02*
X238340508Y-131825952D01*
X238340508Y-131825952D02*
X238292889Y-131873571D01*
X238292889Y-131873571D02*
X238245270Y-131968809D01*
X217654699Y-123856904D02*
X218464222Y-123856904D01*
X218464222Y-123856904D02*
X218559460Y-123809285D01*
X218559460Y-123809285D02*
X218607080Y-123761666D01*
X218607080Y-123761666D02*
X218654699Y-123666428D01*
X218654699Y-123666428D02*
X218654699Y-123475952D01*
X218654699Y-123475952D02*
X218607080Y-123380714D01*
X218607080Y-123380714D02*
X218559460Y-123333095D01*
X218559460Y-123333095D02*
X218464222Y-123285476D01*
X218464222Y-123285476D02*
X217654699Y-123285476D01*
X217654699Y-122904523D02*
X217654699Y-122285476D01*
X217654699Y-122285476D02*
X218035651Y-122618809D01*
X218035651Y-122618809D02*
X218035651Y-122475952D01*
X218035651Y-122475952D02*
X218083270Y-122380714D01*
X218083270Y-122380714D02*
X218130889Y-122333095D01*
X218130889Y-122333095D02*
X218226127Y-122285476D01*
X218226127Y-122285476D02*
X218464222Y-122285476D01*
X218464222Y-122285476D02*
X218559460Y-122333095D01*
X218559460Y-122333095D02*
X218607080Y-122380714D01*
X218607080Y-122380714D02*
X218654699Y-122475952D01*
X218654699Y-122475952D02*
X218654699Y-122761666D01*
X218654699Y-122761666D02*
X218607080Y-122856904D01*
X218607080Y-122856904D02*
X218559460Y-122904523D01*
D12*
X244333333Y-144584819D02*
X244000000Y-144108628D01*
X243761905Y-144584819D02*
X243761905Y-143584819D01*
X243761905Y-143584819D02*
X244142857Y-143584819D01*
X244142857Y-143584819D02*
X244238095Y-143632438D01*
X244238095Y-143632438D02*
X244285714Y-143680057D01*
X244285714Y-143680057D02*
X244333333Y-143775295D01*
X244333333Y-143775295D02*
X244333333Y-143918152D01*
X244333333Y-143918152D02*
X244285714Y-144013390D01*
X244285714Y-144013390D02*
X244238095Y-144061009D01*
X244238095Y-144061009D02*
X244142857Y-144108628D01*
X244142857Y-144108628D02*
X243761905Y-144108628D01*
X245190476Y-143584819D02*
X245000000Y-143584819D01*
X245000000Y-143584819D02*
X244904762Y-143632438D01*
X244904762Y-143632438D02*
X244857143Y-143680057D01*
X244857143Y-143680057D02*
X244761905Y-143822914D01*
X244761905Y-143822914D02*
X244714286Y-144013390D01*
X244714286Y-144013390D02*
X244714286Y-144394342D01*
X244714286Y-144394342D02*
X244761905Y-144489580D01*
X244761905Y-144489580D02*
X244809524Y-144537200D01*
X244809524Y-144537200D02*
X244904762Y-144584819D01*
X244904762Y-144584819D02*
X245095238Y-144584819D01*
X245095238Y-144584819D02*
X245190476Y-144537200D01*
X245190476Y-144537200D02*
X245238095Y-144489580D01*
X245238095Y-144489580D02*
X245285714Y-144394342D01*
X245285714Y-144394342D02*
X245285714Y-144156247D01*
X245285714Y-144156247D02*
X245238095Y-144061009D01*
X245238095Y-144061009D02*
X245190476Y-144013390D01*
X245190476Y-144013390D02*
X245095238Y-143965771D01*
X245095238Y-143965771D02*
X244904762Y-143965771D01*
X244904762Y-143965771D02*
X244809524Y-144013390D01*
X244809524Y-144013390D02*
X244761905Y-144061009D01*
X244761905Y-144061009D02*
X244714286Y-144156247D01*
D10*
X206833333Y-126321699D02*
X206500000Y-125845508D01*
X206261905Y-126321699D02*
X206261905Y-125321699D01*
X206261905Y-125321699D02*
X206642857Y-125321699D01*
X206642857Y-125321699D02*
X206738095Y-125369318D01*
X206738095Y-125369318D02*
X206785714Y-125416937D01*
X206785714Y-125416937D02*
X206833333Y-125512175D01*
X206833333Y-125512175D02*
X206833333Y-125655032D01*
X206833333Y-125655032D02*
X206785714Y-125750270D01*
X206785714Y-125750270D02*
X206738095Y-125797889D01*
X206738095Y-125797889D02*
X206642857Y-125845508D01*
X206642857Y-125845508D02*
X206261905Y-125845508D01*
X207166667Y-125321699D02*
X207785714Y-125321699D01*
X207785714Y-125321699D02*
X207452381Y-125702651D01*
X207452381Y-125702651D02*
X207595238Y-125702651D01*
X207595238Y-125702651D02*
X207690476Y-125750270D01*
X207690476Y-125750270D02*
X207738095Y-125797889D01*
X207738095Y-125797889D02*
X207785714Y-125893127D01*
X207785714Y-125893127D02*
X207785714Y-126131222D01*
X207785714Y-126131222D02*
X207738095Y-126226460D01*
X207738095Y-126226460D02*
X207690476Y-126274080D01*
X207690476Y-126274080D02*
X207595238Y-126321699D01*
X207595238Y-126321699D02*
X207309524Y-126321699D01*
X207309524Y-126321699D02*
X207214286Y-126274080D01*
X207214286Y-126274080D02*
X207166667Y-126226460D01*
X159951699Y-139333333D02*
X160665984Y-139333333D01*
X160665984Y-139333333D02*
X160808841Y-139380952D01*
X160808841Y-139380952D02*
X160904080Y-139476190D01*
X160904080Y-139476190D02*
X160951699Y-139619047D01*
X160951699Y-139619047D02*
X160951699Y-139714285D01*
X159951699Y-138952380D02*
X159951699Y-138285714D01*
X159951699Y-138285714D02*
X160951699Y-138714285D01*
D13*
X152233333Y-110059695D02*
X152233333Y-110631123D01*
X152233333Y-110631123D02*
X152195238Y-110745409D01*
X152195238Y-110745409D02*
X152119047Y-110821600D01*
X152119047Y-110821600D02*
X152004762Y-110859695D01*
X152004762Y-110859695D02*
X151928571Y-110859695D01*
X152538095Y-110059695D02*
X153033333Y-110059695D01*
X153033333Y-110059695D02*
X152766667Y-110364457D01*
X152766667Y-110364457D02*
X152880952Y-110364457D01*
X152880952Y-110364457D02*
X152957143Y-110402552D01*
X152957143Y-110402552D02*
X152995238Y-110440647D01*
X152995238Y-110440647D02*
X153033333Y-110516838D01*
X153033333Y-110516838D02*
X153033333Y-110707314D01*
X153033333Y-110707314D02*
X152995238Y-110783504D01*
X152995238Y-110783504D02*
X152957143Y-110821600D01*
X152957143Y-110821600D02*
X152880952Y-110859695D01*
X152880952Y-110859695D02*
X152652381Y-110859695D01*
X152652381Y-110859695D02*
X152576190Y-110821600D01*
X152576190Y-110821600D02*
X152538095Y-110783504D01*
D10*
X236466699Y-116278333D02*
X237180984Y-116278333D01*
X237180984Y-116278333D02*
X237323841Y-116325952D01*
X237323841Y-116325952D02*
X237419080Y-116421190D01*
X237419080Y-116421190D02*
X237466699Y-116564047D01*
X237466699Y-116564047D02*
X237466699Y-116659285D01*
X236561937Y-115849761D02*
X236514318Y-115802142D01*
X236514318Y-115802142D02*
X236466699Y-115706904D01*
X236466699Y-115706904D02*
X236466699Y-115468809D01*
X236466699Y-115468809D02*
X236514318Y-115373571D01*
X236514318Y-115373571D02*
X236561937Y-115325952D01*
X236561937Y-115325952D02*
X236657175Y-115278333D01*
X236657175Y-115278333D02*
X236752413Y-115278333D01*
X236752413Y-115278333D02*
X236895270Y-115325952D01*
X236895270Y-115325952D02*
X237466699Y-115897380D01*
X237466699Y-115897380D02*
X237466699Y-115278333D01*
X181891699Y-142761904D02*
X182701222Y-142761904D01*
X182701222Y-142761904D02*
X182796460Y-142714285D01*
X182796460Y-142714285D02*
X182844080Y-142666666D01*
X182844080Y-142666666D02*
X182891699Y-142571428D01*
X182891699Y-142571428D02*
X182891699Y-142380952D01*
X182891699Y-142380952D02*
X182844080Y-142285714D01*
X182844080Y-142285714D02*
X182796460Y-142238095D01*
X182796460Y-142238095D02*
X182701222Y-142190476D01*
X182701222Y-142190476D02*
X181891699Y-142190476D01*
X182891699Y-141190476D02*
X182891699Y-141761904D01*
X182891699Y-141476190D02*
X181891699Y-141476190D01*
X181891699Y-141476190D02*
X182034556Y-141571428D01*
X182034556Y-141571428D02*
X182129794Y-141666666D01*
X182129794Y-141666666D02*
X182177413Y-141761904D01*
X206833333Y-133581699D02*
X206500000Y-133105508D01*
X206261905Y-133581699D02*
X206261905Y-132581699D01*
X206261905Y-132581699D02*
X206642857Y-132581699D01*
X206642857Y-132581699D02*
X206738095Y-132629318D01*
X206738095Y-132629318D02*
X206785714Y-132676937D01*
X206785714Y-132676937D02*
X206833333Y-132772175D01*
X206833333Y-132772175D02*
X206833333Y-132915032D01*
X206833333Y-132915032D02*
X206785714Y-133010270D01*
X206785714Y-133010270D02*
X206738095Y-133057889D01*
X206738095Y-133057889D02*
X206642857Y-133105508D01*
X206642857Y-133105508D02*
X206261905Y-133105508D01*
X207214286Y-132676937D02*
X207261905Y-132629318D01*
X207261905Y-132629318D02*
X207357143Y-132581699D01*
X207357143Y-132581699D02*
X207595238Y-132581699D01*
X207595238Y-132581699D02*
X207690476Y-132629318D01*
X207690476Y-132629318D02*
X207738095Y-132676937D01*
X207738095Y-132676937D02*
X207785714Y-132772175D01*
X207785714Y-132772175D02*
X207785714Y-132867413D01*
X207785714Y-132867413D02*
X207738095Y-133010270D01*
X207738095Y-133010270D02*
X207166667Y-133581699D01*
X207166667Y-133581699D02*
X207785714Y-133581699D01*
X187333333Y-133581699D02*
X187000000Y-133105508D01*
X186761905Y-133581699D02*
X186761905Y-132581699D01*
X186761905Y-132581699D02*
X187142857Y-132581699D01*
X187142857Y-132581699D02*
X187238095Y-132629318D01*
X187238095Y-132629318D02*
X187285714Y-132676937D01*
X187285714Y-132676937D02*
X187333333Y-132772175D01*
X187333333Y-132772175D02*
X187333333Y-132915032D01*
X187333333Y-132915032D02*
X187285714Y-133010270D01*
X187285714Y-133010270D02*
X187238095Y-133057889D01*
X187238095Y-133057889D02*
X187142857Y-133105508D01*
X187142857Y-133105508D02*
X186761905Y-133105508D01*
X188285714Y-133581699D02*
X187714286Y-133581699D01*
X188000000Y-133581699D02*
X188000000Y-132581699D01*
X188000000Y-132581699D02*
X187904762Y-132724556D01*
X187904762Y-132724556D02*
X187809524Y-132819794D01*
X187809524Y-132819794D02*
X187714286Y-132867413D01*
X223011905Y-139701699D02*
X223011905Y-138701699D01*
X223011905Y-138701699D02*
X223250000Y-138701699D01*
X223250000Y-138701699D02*
X223392857Y-138749318D01*
X223392857Y-138749318D02*
X223488095Y-138844556D01*
X223488095Y-138844556D02*
X223535714Y-138939794D01*
X223535714Y-138939794D02*
X223583333Y-139130270D01*
X223583333Y-139130270D02*
X223583333Y-139273127D01*
X223583333Y-139273127D02*
X223535714Y-139463603D01*
X223535714Y-139463603D02*
X223488095Y-139558841D01*
X223488095Y-139558841D02*
X223392857Y-139654080D01*
X223392857Y-139654080D02*
X223250000Y-139701699D01*
X223250000Y-139701699D02*
X223011905Y-139701699D01*
X224535714Y-139701699D02*
X223964286Y-139701699D01*
X224250000Y-139701699D02*
X224250000Y-138701699D01*
X224250000Y-138701699D02*
X224154762Y-138844556D01*
X224154762Y-138844556D02*
X224059524Y-138939794D01*
X224059524Y-138939794D02*
X223964286Y-138987413D01*
X185209761Y-120944437D02*
X185114523Y-120896818D01*
X185114523Y-120896818D02*
X185019285Y-120801580D01*
X185019285Y-120801580D02*
X184876428Y-120658722D01*
X184876428Y-120658722D02*
X184781190Y-120611103D01*
X184781190Y-120611103D02*
X184685952Y-120611103D01*
X184733571Y-120849199D02*
X184638333Y-120801580D01*
X184638333Y-120801580D02*
X184543095Y-120706341D01*
X184543095Y-120706341D02*
X184495476Y-120515865D01*
X184495476Y-120515865D02*
X184495476Y-120182532D01*
X184495476Y-120182532D02*
X184543095Y-119992056D01*
X184543095Y-119992056D02*
X184638333Y-119896818D01*
X184638333Y-119896818D02*
X184733571Y-119849199D01*
X184733571Y-119849199D02*
X184924047Y-119849199D01*
X184924047Y-119849199D02*
X185019285Y-119896818D01*
X185019285Y-119896818D02*
X185114523Y-119992056D01*
X185114523Y-119992056D02*
X185162142Y-120182532D01*
X185162142Y-120182532D02*
X185162142Y-120515865D01*
X185162142Y-120515865D02*
X185114523Y-120706341D01*
X185114523Y-120706341D02*
X185019285Y-120801580D01*
X185019285Y-120801580D02*
X184924047Y-120849199D01*
X184924047Y-120849199D02*
X184733571Y-120849199D01*
X185543095Y-119944437D02*
X185590714Y-119896818D01*
X185590714Y-119896818D02*
X185685952Y-119849199D01*
X185685952Y-119849199D02*
X185924047Y-119849199D01*
X185924047Y-119849199D02*
X186019285Y-119896818D01*
X186019285Y-119896818D02*
X186066904Y-119944437D01*
X186066904Y-119944437D02*
X186114523Y-120039675D01*
X186114523Y-120039675D02*
X186114523Y-120134913D01*
X186114523Y-120134913D02*
X186066904Y-120277770D01*
X186066904Y-120277770D02*
X185495476Y-120849199D01*
X185495476Y-120849199D02*
X186114523Y-120849199D01*
D12*
X244333333Y-142824819D02*
X244000000Y-142348628D01*
X243761905Y-142824819D02*
X243761905Y-141824819D01*
X243761905Y-141824819D02*
X244142857Y-141824819D01*
X244142857Y-141824819D02*
X244238095Y-141872438D01*
X244238095Y-141872438D02*
X244285714Y-141920057D01*
X244285714Y-141920057D02*
X244333333Y-142015295D01*
X244333333Y-142015295D02*
X244333333Y-142158152D01*
X244333333Y-142158152D02*
X244285714Y-142253390D01*
X244285714Y-142253390D02*
X244238095Y-142301009D01*
X244238095Y-142301009D02*
X244142857Y-142348628D01*
X244142857Y-142348628D02*
X243761905Y-142348628D01*
X245190476Y-142158152D02*
X245190476Y-142824819D01*
X244952381Y-141777200D02*
X244714286Y-142491485D01*
X244714286Y-142491485D02*
X245333333Y-142491485D01*
D14*
%TO.C,R5*%
X202960000Y-142000000D02*
X203730000Y-142000000D01*
X211040000Y-142000000D02*
X210270000Y-142000000D01*
X210270000Y-143370000D02*
X203730000Y-143370000D01*
X203730000Y-140630000D01*
X210270000Y-140630000D01*
X210270000Y-143370000D01*
D13*
%TO.C,J1*%
X154972500Y-137000000D02*
G75*
G02*
X154772500Y-137000000I-100000J0D01*
G01*
X154772500Y-137000000D02*
G75*
G02*
X154972500Y-137000000I100000J0D01*
G01*
D14*
%TO.C,R7*%
X219960000Y-146500000D02*
X220730000Y-146500000D01*
X228040000Y-146500000D02*
X227270000Y-146500000D01*
X220730000Y-145130000D02*
X227270000Y-145130000D01*
X227270000Y-147870000D01*
X220730000Y-147870000D01*
X220730000Y-145130000D01*
D15*
%TO.C,J6*%
X162250000Y-120765000D02*
X162250000Y-110605000D01*
X171750000Y-110605000D02*
X162250000Y-110605000D01*
X171750000Y-120765000D02*
X162250000Y-120765000D01*
X171750000Y-120765000D02*
X171750000Y-110605000D01*
D13*
X167100000Y-121865000D02*
G75*
G02*
X166900000Y-121865000I-100000J0D01*
G01*
X166900000Y-121865000D02*
G75*
G02*
X167100000Y-121865000I100000J0D01*
G01*
D14*
%TO.C,A1*%
X257100000Y-98440000D02*
X257100000Y-101110000D01*
X257100000Y-103650000D02*
X257100000Y-141880000D01*
X257100000Y-141880000D02*
X262180000Y-141880000D01*
X259770000Y-101110000D02*
X257100000Y-101110000D01*
X259770000Y-103650000D02*
X257100000Y-103650000D01*
X259770000Y-103650000D02*
X259770000Y-101110000D01*
X259770000Y-103650000D02*
X259770000Y-139210000D01*
X259770000Y-139210000D02*
X257100000Y-139210000D01*
X262180000Y-134000000D02*
X270060000Y-134000000D01*
X262180000Y-144420000D02*
X262180000Y-134000000D01*
X270060000Y-134000000D02*
X270060000Y-144420000D01*
X270060000Y-144420000D02*
X262180000Y-144420000D01*
X272470000Y-101110000D02*
X272470000Y-139210000D01*
X272470000Y-101110000D02*
X275140000Y-101110000D01*
X272470000Y-139210000D02*
X275140000Y-139210000D01*
X275140000Y-98440000D02*
X257100000Y-98440000D01*
X275140000Y-141880000D02*
X270060000Y-141880000D01*
X275140000Y-141880000D02*
X275140000Y-98440000D01*
D15*
%TO.C,J8*%
X239750000Y-135620000D02*
X239750000Y-125460000D01*
X249250000Y-125460000D02*
X239750000Y-125460000D01*
X249250000Y-135620000D02*
X239750000Y-135620000D01*
X249250000Y-135620000D02*
X249250000Y-125460000D01*
D13*
X244600000Y-136720000D02*
G75*
G02*
X244400000Y-136720000I-100000J0D01*
G01*
X244400000Y-136720000D02*
G75*
G02*
X244600000Y-136720000I100000J0D01*
G01*
D15*
%TO.C,U3*%
X219015000Y-125705000D02*
X219015000Y-119355000D01*
X228605000Y-125705000D02*
X228605000Y-119355000D01*
D13*
X220100000Y-127565000D02*
G75*
G02*
X219900000Y-127565000I-100000J0D01*
G01*
X219900000Y-127565000D02*
G75*
G02*
X220100000Y-127565000I100000J0D01*
G01*
D14*
%TO.C,R6*%
X240460000Y-146500000D02*
X241230000Y-146500000D01*
X248540000Y-146500000D02*
X247770000Y-146500000D01*
X241230000Y-145130000D02*
X247770000Y-145130000D01*
X247770000Y-147870000D01*
X241230000Y-147870000D01*
X241230000Y-145130000D01*
%TO.C,R3*%
X202960000Y-123500000D02*
X203730000Y-123500000D01*
X211040000Y-123500000D02*
X210270000Y-123500000D01*
X210270000Y-124870000D02*
X203730000Y-124870000D01*
X203730000Y-122130000D01*
X210270000Y-122130000D01*
X210270000Y-124870000D01*
D15*
%TO.C,J7*%
X162250000Y-134307500D02*
X162250000Y-144467500D01*
X162250000Y-134307500D02*
X171750000Y-134307500D01*
X162250000Y-144467500D02*
X171750000Y-144467500D01*
X171750000Y-134307500D02*
X171750000Y-144467500D01*
D13*
X167100000Y-133207500D02*
G75*
G02*
X166900000Y-133207500I-100000J0D01*
G01*
X166900000Y-133207500D02*
G75*
G02*
X167100000Y-133207500I100000J0D01*
G01*
%TO.C,J3*%
X154972500Y-116000000D02*
G75*
G02*
X154772500Y-116000000I-100000J0D01*
G01*
X154772500Y-116000000D02*
G75*
G02*
X154972500Y-116000000I100000J0D01*
G01*
D15*
%TO.C,J2*%
X238100000Y-98800000D02*
X249300000Y-98800000D01*
X238100000Y-119120000D02*
X238100000Y-98800000D01*
X238100000Y-119120000D02*
X247000000Y-119120000D01*
X247000000Y-119690000D02*
X247000000Y-119120000D01*
X247800000Y-119120000D02*
X249300000Y-119120000D01*
X247800000Y-119690000D02*
X247000000Y-119690000D01*
X247800000Y-119690000D02*
X247800000Y-119120000D01*
X249300000Y-119120000D02*
X249300000Y-98800000D01*
D13*
X244100000Y-119710000D02*
G75*
G02*
X243900000Y-119710000I-100000J0D01*
G01*
X243900000Y-119710000D02*
G75*
G02*
X244100000Y-119710000I100000J0D01*
G01*
D14*
%TO.C,U1*%
X187850000Y-143800000D02*
X187850000Y-140200000D01*
X183400000Y-142000000D02*
G75*
G02*
X187838478Y-140161522I2600000J0D01*
G01*
X187838478Y-143838478D02*
G75*
G02*
X183399999Y-142000000I-1838478J1838478D01*
G01*
%TO.C,R2*%
X202960000Y-135500000D02*
X203730000Y-135500000D01*
X211040000Y-135500000D02*
X210270000Y-135500000D01*
X203730000Y-134130000D02*
X210270000Y-134130000D01*
X210270000Y-136870000D01*
X203730000Y-136870000D01*
X203730000Y-134130000D01*
%TO.C,R1*%
X183460000Y-135500000D02*
X184230000Y-135500000D01*
X191540000Y-135500000D02*
X190770000Y-135500000D01*
X184230000Y-134130000D02*
X190770000Y-134130000D01*
X190770000Y-136870000D01*
X184230000Y-136870000D01*
X184230000Y-134130000D01*
%TO.C,D1*%
X219880000Y-134244000D02*
X219880000Y-132880000D01*
X219880000Y-138120000D02*
X219880000Y-136756000D01*
X227620000Y-132880000D02*
X219880000Y-132880000D01*
X227620000Y-134244000D02*
X227620000Y-132880000D01*
X227620000Y-138120000D02*
X219880000Y-138120000D01*
X227620000Y-138120000D02*
X227620000Y-136756000D01*
D15*
%TO.C,Q2*%
X182380000Y-122282500D02*
X192540000Y-122282500D01*
X182380000Y-126477500D02*
X182380000Y-122282500D01*
X192540000Y-122282500D02*
X192540000Y-126477500D01*
X192540000Y-126477500D02*
X182380000Y-126477500D01*
D13*
X181730000Y-125000000D02*
G75*
G02*
X181530000Y-125000000I-100000J0D01*
G01*
X181530000Y-125000000D02*
G75*
G02*
X181730000Y-125000000I100000J0D01*
G01*
D14*
%TO.C,R4*%
X240460000Y-140000000D02*
X241230000Y-140000000D01*
X248540000Y-140000000D02*
X247770000Y-140000000D01*
X247770000Y-141370000D02*
X241230000Y-141370000D01*
X241230000Y-138630000D01*
X247770000Y-138630000D01*
X247770000Y-141370000D01*
%TD*%
M02*
