M48
; DRILL file {KiCad 9.0.7} date 2026-04-06T12:16:59+0700
; FORMAT={-:-/ absolute / metric / decimal}
; #@! TF.CreationDate,2026-04-06T12:16:59+07:00
; #@! TF.GenerationSoftware,Kicad,Pcbnew,9.0.7
; #@! TF.FileFunction,Plated,1,2,PTH
FMAT,2
METRIC
; #@! TA.AperFunction,Plated,PTH,ViaDrill
T1C0.300
; #@! TA.AperFunction,Plated,PTH,ComponentDrill
T2C0.700
; #@! TA.AperFunction,Plated,PTH,ComponentDrill
T3C0.750
; #@! TA.AperFunction,Plated,PTH,ComponentDrill
T4C0.780
; #@! TA.AperFunction,Plated,PTH,ComponentDrill
T5C0.800
; #@! TA.AperFunction,Plated,PTH,ComponentDrill
T6C1.000
; #@! TA.AperFunction,Plated,PTH,ComponentDrill
T7C1.300
; #@! TA.AperFunction,Plated,PTH,ComponentDrill
T8C1.330
%
G90
G05
T1
X152.5Y-113.3
X152.5Y-118.7
X152.5Y-134.3
X152.5Y-139.7
T2
X186.0Y-140.73
X186.0Y-143.27
T3
X186.0Y-142.0
T4
X220.0Y-118.56
X220.0Y-126.5
X222.54Y-118.56
X222.54Y-126.5
X225.08Y-118.56
X225.08Y-126.5
X227.62Y-118.56
X227.62Y-126.5
T5
X182.42Y-135.5
X192.58Y-135.5
X201.92Y-123.5
X201.92Y-135.5
X201.92Y-142.0
X212.08Y-123.5
X212.08Y-135.5
X212.08Y-142.0
X218.92Y-146.5
X229.08Y-146.5
X239.42Y-140.0
X239.42Y-146.5
X249.58Y-140.0
X249.58Y-146.5
T6
X220.0Y-135.5
X227.5Y-135.5
X258.5Y-102.38
X258.5Y-104.92
X258.5Y-107.46
X258.5Y-110.0
X258.5Y-112.54
X258.5Y-115.08
X258.5Y-117.62
X258.5Y-120.16
X258.5Y-122.7
X258.5Y-125.24
X258.5Y-127.78
X258.5Y-130.32
X258.5Y-132.86
X258.5Y-135.4
X258.5Y-137.94
X273.74Y-102.38
X273.74Y-104.92
X273.74Y-107.46
X273.74Y-110.0
X273.74Y-112.54
X273.74Y-115.08
X273.74Y-117.62
X273.74Y-120.16
X273.74Y-122.7
X273.74Y-125.24
X273.74Y-127.78
X273.74Y-130.32
X273.74Y-132.86
X273.74Y-135.4
X273.74Y-137.94
T7
X167.0Y-113.145
X167.0Y-118.225
X167.0Y-136.847
X167.0Y-141.927
X244.0Y-101.34
X244.0Y-106.42
X244.0Y-111.5
X244.0Y-116.58
X244.5Y-128.0
X244.5Y-133.08
T8
X184.92Y-125.0
X187.46Y-125.0
X190.0Y-125.0
M30
